<?xml version="1.0" standalone="no"?>
<!DOCTYPE svg PUBLIC "-//W3C//DTD SVG 1.1//EN" "http://www.w3.org/Graphics/SVG/1.1/DTD/svg11.dtd" >
<svg xmlns="http://www.w3.org/2000/svg" xmlns:xlink="http://www.w3.org/1999/xlink" version="1.1">
<metadata></metadata>
<defs>
<font id="aktiv_grotesk_geberitBdIt" horiz-adv-x="1212" >
<font-face units-per-em="2048" ascent="1638" descent="-410" />
<missing-glyph horiz-adv-x="454" />
<glyph unicode="&#xfb00;" horiz-adv-x="1550" d="M135 0l178 846h-168l48 223h167l15 64q23 92 55.5 157.5t81.5 107.5t114.5 61.5t155.5 19.5q88 0 152.5 -19.5t85.5 -29.5l-78 -199q-23 10 -55.5 18t-73.5 8q-68 0 -103.5 -34.5t-52.5 -112.5l-8 -41h246l-47 -223h-248l-178 -846h-287zM911 0l178 846h-168l48 223h167 l15 64q23 92 55.5 157.5t81.5 107.5t114.5 61.5t155.5 19.5q88 0 152.5 -19.5t85.5 -29.5l-78 -199q-23 10 -55.5 18t-73.5 8q-68 0 -103.5 -34.5t-52.5 -112.5l-8 -41h246l-47 -223h-248l-178 -846h-287z" />
<glyph unicode="&#xfb01;" horiz-adv-x="1320" d="M135 0l178 846h-168l48 223h167l15 64q23 92 55.5 157.5t81.5 107.5t114.5 61.5t155.5 19.5q88 0 152.5 -19.5t85.5 -29.5l-78 -199q-23 10 -55.5 18t-73.5 8q-68 0 -103.5 -34.5t-52.5 -112.5l-8 -41h246l-47 -223h-248l-178 -846h-287zM844 0l227 1069h287l-228 -1069 h-286zM1091 1204l56 258h295l-56 -258h-295z" />
<glyph unicode="&#xfb02;" horiz-adv-x="1320" d="M135 0l178 846h-168l48 223h167l15 64q23 92 55.5 157.5t81.5 107.5t114.5 61.5t155.5 19.5q88 0 152.5 -19.5t85.5 -29.5l-78 -199q-23 10 -55.5 18t-73.5 8q-68 0 -103.5 -34.5t-52.5 -112.5l-8 -41h246l-47 -223h-248l-178 -846h-287zM844 0l309 1462h287l-310 -1462 h-286z" />
<glyph unicode="&#xfb03;" horiz-adv-x="2095" d="M135 0l178 846h-168l48 223h167l15 64q23 92 55.5 157.5t81.5 107.5t114.5 61.5t155.5 19.5q88 0 152.5 -19.5t85.5 -29.5l-78 -199q-23 10 -55.5 18t-73.5 8q-68 0 -103.5 -34.5t-52.5 -112.5l-8 -41h246l-47 -223h-248l-178 -846h-287zM911 0l178 846h-168l48 223h167 l15 64q23 92 55.5 157.5t81.5 107.5t114.5 61.5t155.5 19.5q88 0 152.5 -19.5t85.5 -29.5l-78 -199q-23 10 -55.5 18t-73.5 8q-68 0 -103.5 -34.5t-52.5 -112.5l-8 -41h246l-47 -223h-248l-178 -846h-287zM1618 0l227 1069h287l-228 -1069h-286zM1865 1204l56 258h295 l-56 -258h-295z" />
<glyph unicode="&#xfb04;" horiz-adv-x="2095" d="M135 0l178 846h-168l48 223h167l15 64q23 92 55.5 157.5t81.5 107.5t114.5 61.5t155.5 19.5q88 0 152.5 -19.5t85.5 -29.5l-78 -199q-23 10 -55.5 18t-73.5 8q-68 0 -103.5 -34.5t-52.5 -112.5l-8 -41h246l-47 -223h-248l-178 -846h-287zM911 0l178 846h-168l48 223h167 l15 64q23 92 55.5 157.5t81.5 107.5t114.5 61.5t155.5 19.5q88 0 152.5 -19.5t85.5 -29.5l-78 -199q-23 10 -55.5 18t-73.5 8q-68 0 -103.5 -34.5t-52.5 -112.5l-8 -41h246l-47 -223h-248l-178 -846h-287zM1618 0l309 1462h287l-310 -1462h-286z" />
<glyph unicode="&#xd;" horiz-adv-x="454" />
<glyph horiz-adv-x="0" />
<glyph unicode=" "  horiz-adv-x="454" />
<glyph unicode="&#x09;" horiz-adv-x="454" />
<glyph unicode="&#xa0;" horiz-adv-x="454" />
<glyph unicode="!" horiz-adv-x="561" d="M80 0l67 326h283l-68 -326h-282zM184 463l191 999h307l-231 -999h-267z" />
<glyph unicode="&#x22;" horiz-adv-x="786" d="M193 901l104 555h266l-135 -555h-235zM578 901l104 555h262l-133 -555h-233z" />
<glyph unicode="#" d="M59 326l41 211h195l113 315h-183l41 209h217l117 328h244l-119 -328h211l119 328h243l-118 -328h131l-41 -209h-164l-115 -315h148l-41 -211h-183l-116 -326h-244l117 326h-211l-117 -326h-244l117 326h-158zM537 537h211l114 315h-211z" />
<glyph unicode="$" d="M61 453h287q6 -98 41 -160t121 -86l84 401l-23 6q-98 25 -164.5 63t-106.5 86t-56.5 106.5t-16.5 125.5q0 211 142.5 332t400.5 121h2l41 188h133l-43 -200q160 -29 254 -132.5t111 -285.5l-273 -29q-16 92 -46.5 148.5t-92.5 79.5l-80 -386l27 -6q195 -55 276.5 -152.5 t81.5 -230.5q0 -127 -39 -217t-109.5 -148.5t-171 -86t-223.5 -27.5h-28l-43 -207h-133l47 221q-84 14 -154.5 48t-125 90.5t-86.5 139.5t-34 198zM510 1040q0 -72 31.5 -110.5t107.5 -61.5l78 365q-111 -6 -164 -60.5t-53 -132.5zM639 193h2q68 0 112 17t68.5 47t34.5 69 t10 80q0 25 -6 49t-22.5 47.5t-45 42t-71.5 30.5z" />
<glyph unicode="%" horiz-adv-x="1988" d="M180 897q0 100 28.5 199.5t86 178.5t145.5 127t205 48q68 0 125 -24.5t99 -69.5t66.5 -109.5t24.5 -142.5q0 -102 -26.5 -200.5t-84 -176.5t-144.5 -125t-210 -47q-68 0 -125 23.5t-99 68.5t-66.5 108.5t-24.5 141.5zM415 893q0 -70 30 -103.5t79 -33.5q55 0 94 36.5 t62.5 91t34 115t10.5 109.5q0 70 -30 104.5t-79 34.5q-55 0 -94 -36.5t-62.5 -91t-34 -116t-10.5 -110.5zM434 0l1012 1415h278l-1011 -1415h-279zM1200 309q0 100 28.5 199.5t86 178.5t145.5 127t205 48q68 0 125 -24.5t99 -69.5t66.5 -109.5t24.5 -142.5 q0 -102 -26.5 -200.5t-84 -176.5t-144.5 -125t-210 -47q-68 0 -125 23.5t-99 68.5t-66.5 108.5t-24.5 141.5zM1435 305q0 -70 30 -103.5t79 -33.5q55 0 94 36.5t62.5 91t34 115t10.5 109.5q0 70 -30 104.5t-79 34.5q-55 0 -94 -36.5t-62.5 -91t-34 -116t-10.5 -110.5z" />
<glyph unicode="&#x26;" horiz-adv-x="1372" d="M92 344q0 82 23.5 146.5t73 119t124 102.5t174.5 95l-6 10q-35 51 -63.5 123t-28.5 143q0 88 25.5 161t78 125t132.5 81t186 29q88 0 152.5 -24.5t107.5 -65.5t63.5 -94.5t20.5 -110.5q0 -88 -26.5 -154.5t-70.5 -118t-104.5 -91.5t-128.5 -72l197 -299q41 76 58.5 151.5 t21.5 136.5h254q-8 -127 -55.5 -255t-141.5 -238l162 -244h-303l-51 78q-80 -53 -171 -82t-200 -29q-104 0 -196.5 20.5t-160 64.5t-107.5 116t-40 176zM381 383q0 -37 10 -72t38 -61.5t76 -41.5t122 -15q76 0 129 17t94 46l-254 387q-102 -51 -158.5 -107.5t-56.5 -152.5z M641 1102q0 -29 9 -57.5t21.5 -54t25 -46t18.5 -31.5l2 -4q86 41 139 95.5t53 154.5q0 51 -30.5 83t-81.5 32q-66 0 -111 -40t-45 -132z" />
<glyph unicode="'" horiz-adv-x="421" d="M193 901l104 555h283l-134 -555h-253z" />
<glyph unicode="(" horiz-adv-x="610" d="M111 285q0 164 33.5 328.5t95 321.5t148.5 301t194 267h276q-207 -270 -329.5 -585.5t-122.5 -667.5q0 -137 15 -255t62 -249h-270q-23 49 -41 114.5t-31.5 137.5t-21.5 145.5t-8 141.5z" />
<glyph unicode=")" horiz-adv-x="610" d="M-106 -254q207 270 329.5 585.5t122.5 667.5q0 137 -15.5 255t-62.5 249h271q20 -49 39.5 -114.5t33 -137t21.5 -145.5t8 -141q0 -164 -34 -329t-95 -321.5t-148.5 -301t-193.5 -267.5h-276z" />
<glyph unicode="*" horiz-adv-x="851" d="M213 858l244 195l-230 65l111 219l199 -127l2 252h262l-105 -252l228 119l67 -223l-272 -53l168 -219l-193 -129l-123 231l-186 -225z" />
<glyph unicode="+" d="M178 573l53 248h359l82 389h258l-82 -389h358l-53 -248h-358l-82 -389h-258l82 389h-359z" />
<glyph unicode="," horiz-adv-x="503" d="M-29 -193l179 523h278l-238 -523h-219z" />
<glyph unicode="-" horiz-adv-x="796" d="M129 471l61 283h613l-62 -283h-612z" />
<glyph unicode="." horiz-adv-x="503" d="M45 0l70 330h293l-70 -330h-293z" />
<glyph unicode="/" horiz-adv-x="784" d="M-53 0l794 1503h293l-794 -1503h-293z" />
<glyph unicode="0" d="M127 481q0 98 15.5 208t49 218.5t87 206.5t128 174t172 121t222.5 45q98 0 182 -35t143.5 -100.5t93 -161.5t33.5 -219q0 -98 -14 -210t-47 -220.5t-85 -206.5t-127 -173t-174 -120t-226 -45q-98 0 -182.5 35t-143.5 100.5t-93 162.5t-34 220zM426 473q0 -127 42 -193.5 t128 -66.5q92 0 159.5 73.5t111.5 184.5t65.5 238t21.5 233q0 129 -42 195.5t-128 66.5q-61 0 -112 -34.5t-91 -92t-69 -132.5t-48.5 -156.5t-28.5 -163.5t-9 -152z" />
<glyph unicode="1" d="M330 1155l489 260h275l-299 -1415h-293l229 1087l-287 -147z" />
<glyph unicode="2" d="M37 0l45 217q39 31 92 71t110.5 81t113 82t98.5 75q92 72 173 134.5t141 122t95 122t35 133.5q0 82 -49 125t-125 43q-49 0 -90 -9t-75 -33.5t-60.5 -67.5t-46.5 -111l-277 33q27 98 69 178t108.5 137.5t161.5 89t228 31.5q125 0 211 -32.5t140.5 -88t79 -127 t24.5 -149.5q0 -100 -34 -181t-92 -152t-138 -136.5t-172 -134.5q-66 -51 -139.5 -103.5t-135.5 -99.5h572l-82 -250h-981z" />
<glyph unicode="3" d="M106 449h293q0 -109 57.5 -174.5t180.5 -65.5q104 0 168.5 50t64.5 169q0 80 -49 128t-151 48h-148l53 252h166q43 0 83 10.5t71 33t49.5 61t18.5 94.5q0 66 -48.5 110.5t-136.5 44.5q-111 0 -177 -44t-95 -160l-266 36q20 92 61 168t107.5 130.5t161 84t221.5 29.5 q104 0 188 -24.5t144.5 -70.5t93 -112.5t32.5 -150.5q0 -61 -13 -116.5t-44 -103t-80 -85t-121 -62.5q86 -47 130 -124t44 -161q0 -236 -134 -358.5t-402 -122.5q-125 0 -222.5 35t-164 97.5t-101.5 152.5t-35 201z" />
<glyph unicode="4" d="M70 317l45 209l815 889h276l-184 -868h180l-80 -230h-149l-66 -317h-272l65 317h-630zM416 547h334l104 491z" />
<glyph unicode="5" d="M133 412h287q6 -111 55 -156t152 -45q47 0 92 15.5t80 50t55 88t20 131.5q0 84 -48 142t-146 58q-80 0 -131 -24.5t-103 -71.5h-241l227 815h821l-51 -248h-575l-80 -301q113 63 233 64q90 0 161 -32t119 -86t73.5 -126t25.5 -154q0 -123 -33.5 -227t-102.5 -180 t-172 -119t-241 -43q-106 0 -194 28.5t-150.5 85t-97.5 140.5t-35 195z" />
<glyph unicode="6" d="M156 479q0 94 16 203t52 217.5t91.5 208.5t134 177t180 123t228.5 46q182 0 288.5 -87t127.5 -269l-266 -43q-14 94 -57.5 129t-116.5 35q-119 0 -207 -105.5t-131 -296.5q66 66 144.5 90.5t152.5 24.5q86 0 156.5 -30t120.5 -83t77 -130t27 -169q0 -135 -39 -238.5 t-112 -174t-175.5 -107.5t-231.5 -37q-121 0 -206.5 38t-143 106.5t-84 164t-26.5 207.5zM428 416q0 -98 50 -160.5t153 -62.5q57 0 105 16t83 51t54.5 92.5t19.5 141.5q0 90 -48.5 148t-144.5 58q-121 0 -196.5 -66.5t-75.5 -217.5z" />
<glyph unicode="7" d="M238 0q92 178 174 326.5t163.5 285t171 270.5t199.5 285h-672l52 248h999l-47 -221q-205 -270 -390.5 -574.5t-334.5 -619.5h-315z" />
<glyph unicode="8" d="M84 330q0 162 83 258t222 149q-66 41 -100.5 107.5t-34.5 154.5q0 98 37 181.5t107.5 143.5t174 95t238.5 35q111 0 195 -28.5t142 -75.5t88 -111.5t30 -134.5q0 -143 -64.5 -232.5t-197.5 -148.5q72 -39 119.5 -116t47.5 -167q0 -123 -46 -213t-125.5 -148.5t-187 -87 t-230.5 -28.5q-129 0 -223.5 28.5t-155 79t-90 117t-29.5 142.5zM365 365q0 -72 57 -123.5t174 -51.5q57 0 111.5 11.5t96.5 39t66.5 72.5t24.5 113q0 37 -12.5 69.5t-40 57.5t-70.5 40t-104 15q-164 0 -233.5 -67.5t-69.5 -175.5zM522 1014q0 -74 50.5 -124t154.5 -50 q55 0 104.5 11t85 36.5t57 68.5t21.5 105q0 31 -12 61.5t-36.5 55t-63.5 40t-92 15.5q-78 0 -129.5 -18.5t-82 -49t-44 -69.5t-13.5 -82z" />
<glyph unicode="9" d="M92 358h273q14 -96 66 -126.5t140 -30.5q66 0 120 29.5t96 84t72 129t46 164.5q-70 -66 -147.5 -92.5t-155.5 -26.5q-88 0 -161.5 31t-126 85t-82 130t-29.5 168q0 123 36.5 225.5t106.5 174t171 111.5t233 40q104 0 189 -31.5t145.5 -97t94 -166t33.5 -237.5 q0 -86 -10 -190.5t-37.5 -211t-75 -207t-121 -178.5t-177 -125t-240.5 -47q-94 0 -175 19.5t-142.5 65.5t-98.5 122t-43 188zM483 946q0 -41 9.5 -82t32 -73.5t59.5 -53t94 -20.5q55 0 104 15.5t85 48t56.5 86t20.5 126.5q0 94 -51 163t-150 69q-111 0 -185.5 -66.5 t-74.5 -212.5z" />
<glyph unicode=":" horiz-adv-x="503" d="M45 0l70 330h293l-70 -330h-293zM203 739l70 330h293l-70 -330h-293z" />
<glyph unicode=";" horiz-adv-x="503" d="M-29 -193l179 523h278l-238 -523h-219zM213 739l70 330h293l-70 -330h-293z" />
<glyph unicode="&#x3c;" d="M211 582l47 225l1026 410l-57 -273l-672 -256l563 -264l-57 -252z" />
<glyph unicode="=" d="M174 348l51 248h897l-51 -248h-897zM262 801l51 248h897l-51 -248h-897z" />
<glyph unicode="&#x3e;" d="M98 172l58 279l671 251l-563 269l58 246l849 -410l-47 -225z" />
<glyph unicode="?" horiz-adv-x="1050" d="M201 1067q23 94 62.5 172t103 133t153.5 85t217 30q92 0 171 -24.5t136.5 -69.5t89 -108.5t31.5 -143.5q0 -78 -19.5 -134.5t-50 -100.5t-71.5 -79.5t-84 -72.5q-37 -31 -75 -59.5t-68.5 -58.5t-52 -63.5t-29.5 -76.5l-6 -33h-283l8 45q8 53 27.5 94t48.5 77t67.5 69.5 t88.5 72.5q41 33 77.5 61.5t64.5 60.5t44 71t16 92q0 66 -42 103.5t-113 37.5q-43 0 -82 -9t-72 -32.5t-58.5 -64.5t-41.5 -107zM338 0l68 326h282l-67 -326h-283z" />
<glyph unicode="@" horiz-adv-x="2056" d="M139 373q0 217 73 407.5t210 332.5t330.5 225t437.5 83q182 0 333.5 -54t261 -151.5t170 -232.5t60.5 -297q0 -154 -33.5 -282t-101.5 -220t-168 -142t-235 -50q-111 0 -168.5 34.5t-77.5 125.5q-66 -98 -144.5 -136.5t-166.5 -38.5q-84 0 -145.5 29t-102.5 80 t-61.5 118.5t-20.5 147.5q0 133 37 246t102.5 194.5t154.5 128t195 46.5q68 0 131.5 -31t108.5 -102l22 110h256l-139 -665q-2 -10 -2 -29q0 -27 11 -48.5t44 -21.5q135 0 212 132t77 368q0 127 -44 228.5t-124 172t-194.5 107.5t-255.5 37q-184 0 -334 -61.5t-256.5 -172 t-164.5 -265.5t-58 -343q0 -127 37.5 -241.5t115.5 -203t199 -140.5t287 -52q168 0 282.5 38t196.5 118h260q-113 -190 -298 -272.5t-460 -82.5q-190 0 -347 60.5t-268.5 169t-173 261t-61.5 335.5zM862 401q0 -104 32 -153t95 -49q57 0 96 20.5t67 54t44 78.5t27 94l14 66 q10 51 10 90q0 35 -8 64.5t-29 52.5q-18 18 -44.5 29.5t-63.5 11.5q-41 0 -83 -22.5t-77 -66.5t-57.5 -111.5t-22.5 -158.5z" />
<glyph unicode="A" horiz-adv-x="1429" d="M-41 0l858 1462h291l240 -1462h-316l-45 338h-512l-188 -338h-328zM604 590h354l-67 524z" />
<glyph unicode="B" horiz-adv-x="1325" d="M88 0l309 1462h496q135 0 229.5 -26.5t152.5 -72.5t84.5 -108.5t26.5 -132.5q0 -152 -73.5 -235.5t-196.5 -128.5q92 -51 134 -120t42 -161q0 -109 -36.5 -195.5t-113.5 -150t-197 -97.5t-283 -34h-574zM432 240h248q168 0 240.5 59t72.5 176q0 78 -52 120t-173 42h-250z M569 883h258q49 0 95.5 8t82 29.5t56 59.5t20.5 95q0 68 -50 108t-177 40h-213z" />
<glyph unicode="C" horiz-adv-x="1460" d="M182 623q0 172 53.5 330.5t152.5 280.5t240.5 193.5t317.5 71.5q143 0 247.5 -37t173.5 -103.5t104.5 -159.5t44.5 -206l-304 -41q-8 68 -24.5 121t-49 89t-81.5 55.5t-121 19.5q-102 0 -182 -49t-135.5 -131t-85 -189.5t-29.5 -224.5q0 -86 14 -161.5t50 -132 t93.5 -90.5t143.5 -34q150 0 225.5 72t99.5 209h328q-25 -125 -73 -225.5t-126.5 -171t-195.5 -108.5t-279 -38q-160 0 -273.5 52.5t-187 142.5t-107.5 209.5t-34 255.5z" />
<glyph unicode="D" horiz-adv-x="1509" d="M88 0l309 1462h488q147 0 262 -48t194.5 -130t121.5 -191.5t42 -234.5q0 -199 -58 -357.5t-173 -270t-286 -171t-394 -59.5h-506zM446 260h187q143 0 247.5 43t172 122t100.5 186.5t33 236.5q0 74 -19.5 138.5t-59.5 112.5t-102.5 75.5t-146.5 27.5h-211z" />
<glyph unicode="E" horiz-adv-x="1236" d="M88 0l309 1462h998l-56 -260h-692l-67 -319h651l-55 -262h-652l-78 -361h736l-84 -260h-1010z" />
<glyph unicode="F" horiz-adv-x="1196" d="M88 0l309 1462h961l-55 -262h-656l-74 -344h617l-55 -262h-617l-125 -594h-305z" />
<glyph unicode="G" horiz-adv-x="1486" d="M182 618q0 174 53.5 334t155 281t247.5 193.5t331 72.5q254 0 388 -119.5t152 -332.5l-299 -41q-20 127 -81.5 180t-184.5 53q-106 0 -189 -49t-139.5 -131t-86 -191.5t-29.5 -228.5q0 -84 15 -160t52 -133t97.5 -90t148.5 -33t156.5 15.5t132.5 56.5l53 252h-278l55 254 h561l-139 -641q-94 -86 -237.5 -141.5t-323.5 -55.5q-162 0 -278 51.5t-189.5 140.5t-108.5 208.5t-35 254.5z" />
<glyph unicode="H" horiz-adv-x="1488" d="M88 0l309 1462h305l-118 -565h579l119 565h305l-309 -1462h-305l129 614h-580l-129 -614h-305z" />
<glyph unicode="I" horiz-adv-x="604" d="M88 0l309 1462h305l-309 -1462h-305z" />
<glyph unicode="J" horiz-adv-x="1302" d="M104 399q0 25 2.5 50.5t6.5 54.5h303q-2 -18 -2 -31.5v-30.5q0 -94 45 -155.5t168 -61.5q68 0 114.5 21.5t80.5 61.5t54.5 97.5t36.5 126.5l199 930h305l-207 -987q-29 -137 -79 -234.5t-124.5 -159t-174 -90t-228.5 -28.5q-109 0 -200 27.5t-157.5 83t-104.5 136.5 t-38 189z" />
<glyph unicode="K" horiz-adv-x="1382" d="M88 0l309 1462h308l-121 -567l643 567h350l-606 -559l350 -903h-326l-262 725l-225 -190l-113 -535h-307z" />
<glyph unicode="L" horiz-adv-x="1196" d="M88 0l309 1462h305l-253 -1200h692l-88 -262h-965z" />
<glyph unicode="M" horiz-adv-x="1761" d="M88 0l309 1462h359l137 -1091l602 1091h365l-310 -1462h-280l207 975l-537 -975h-238l-135 973l-205 -973h-274z" />
<glyph unicode="N" horiz-adv-x="1472" d="M88 0l309 1462h260l412 -966l205 966h297l-309 -1462h-256l-418 961l-203 -961h-297z" />
<glyph unicode="O" horiz-adv-x="1597" d="M186 578q0 176 53.5 341.5t157 294.5t256 207t351.5 78q141 0 250.5 -46t184 -127t113.5 -193.5t39 -245.5q0 -178 -51 -345t-152.5 -296t-254 -206t-353.5 -77q-141 0 -251.5 45t-186.5 127t-116 194.5t-40 248.5zM502 592q0 -170 74.5 -268.5t224.5 -98.5 q123 0 212 57.5t147.5 149.5t87 208t28.5 232q0 166 -73.5 265.5t-223.5 99.5q-123 0 -213 -57.5t-148.5 -149.5t-87 -207.5t-28.5 -230.5z" />
<glyph unicode="P" horiz-adv-x="1310" d="M88 0l309 1462h504q135 0 228.5 -38t152.5 -96t86 -129.5t27 -139.5q0 -139 -45 -240.5t-131 -167t-208 -97.5t-276 -32h-235l-111 -522h-301zM553 776h209q70 0 129 11.5t102 41t67.5 79.5t24.5 128q0 72 -52 123t-181 51h-207z" />
<glyph unicode="Q" horiz-adv-x="1597" d="M186 578q0 176 53.5 341.5t157 294.5t256 207t351.5 78q141 0 250.5 -46t184 -127t113.5 -193.5t39 -245.5q0 -219 -75.5 -416t-225.5 -328l125 -211l-203 -127l-127 213q-68 -27 -143.5 -41t-161.5 -14q-141 0 -251.5 45t-186.5 127t-116 194.5t-40 248.5zM502 592 q0 -170 74.5 -268.5t224.5 -98.5q84 0 149 27l-139 237l201 127l127 -217q70 96 103.5 220t33.5 253q0 166 -74 265.5t-223 99.5q-123 0 -213 -57.5t-148.5 -149.5t-87 -207.5t-28.5 -230.5z" />
<glyph unicode="R" horiz-adv-x="1337" d="M88 0l309 1462h500q143 0 238.5 -35.5t153 -94t82 -133.5t24.5 -152q0 -178 -91.5 -286t-238.5 -155l182 -606h-319l-144 549h-49h-231l-115 -549h-301zM559 803h246q59 0 110.5 11t89 39t59 74t21.5 113q0 33 -11 64t-38.5 54.5t-71.5 37.5t-112 14h-207z" />
<glyph unicode="S" horiz-adv-x="1320" d="M72 477h309q10 -129 86 -193.5t229 -64.5q141 0 199.5 59.5t58.5 147.5q0 55 -37.5 101t-132.5 67l-159 33q-205 41 -300.5 145.5t-95.5 245.5q0 125 43 216t123 149.5t191.5 87t251.5 28.5q115 0 211 -25.5t166.5 -80t113.5 -138.5t51 -200l-295 -37q-16 123 -78.5 177 t-185.5 54q-80 0 -132 -15t-83 -41t-43 -57.5t-12 -62.5q0 -78 43 -118t125 -58l164 -37q111 -25 187.5 -64.5t122.5 -91t66.5 -110.5t20.5 -127q0 -133 -41 -228.5t-120 -157t-191.5 -90t-253.5 -28.5q-115 0 -222.5 25.5t-190.5 86t-134 159t-55 243.5z" />
<glyph unicode="T" horiz-adv-x="1269" d="M233 1198l56 264h1188l-56 -264h-440l-254 -1198h-307l254 1198h-441z" />
<glyph unicode="U" horiz-adv-x="1419" d="M160 424q0 84 20 174l182 864h306l-185 -870q-18 -80 -18 -139q0 -121 63.5 -174.5t182.5 -53.5q76 0 130 22.5t94 68.5t67.5 115t48.5 161l184 870h305l-184 -870q-35 -166 -89.5 -285t-134 -195.5t-189.5 -112.5t-253 -36q-117 0 -215 28.5t-167.5 85t-108.5 143.5 t-39 204z" />
<glyph unicode="V" horiz-adv-x="1427" d="M268 1462h328l143 -1034l580 1034h336l-858 -1462h-289z" />
<glyph unicode="W" horiz-adv-x="1982" d="M268 1462h344l15 -1016l450 1008h324l39 -1008l442 1016h328l-707 -1462h-297l-43 1081l-493 -1081h-289z" />
<glyph unicode="X" horiz-adv-x="1400" d="M-49 0l672 774l-332 688h334l206 -471l406 471h342l-614 -704l366 -758h-334l-245 537l-453 -537h-348z" />
<glyph unicode="Y" horiz-adv-x="1345" d="M268 1462h328l195 -592l446 592h336l-678 -866l-125 -596h-305l125 596z" />
<glyph unicode="Z" horiz-adv-x="1202" d="M-14 0l47 223l925 977h-704l55 262h1082l-48 -225l-923 -975h749l-86 -262h-1097z" />
<glyph unicode="[" horiz-adv-x="684" d="M31 -254l375 1757h516l-54 -246h-227l-268 -1265h227l-53 -246h-516z" />
<glyph unicode="\" horiz-adv-x="784" d="M276 1503h273l156 -1503h-273z" />
<glyph unicode="]" horiz-adv-x="684" d="M-94 -254l51 246h227l269 1265h-228l54 246h516l-375 -1757h-514z" />
<glyph unicode="^" d="M139 606l598 856h232l233 -856h-291l-123 514l-344 -514h-305z" />
<glyph unicode="_" horiz-adv-x="1024" d="M-137 -358l22 106h1022l-22 -106h-1022z" />
<glyph unicode="`" horiz-adv-x="847" d="M391 1534h314l180 -317h-256z" />
<glyph unicode="a" horiz-adv-x="1148" d="M68 270q0 117 52 191t135 114.5t187.5 58t210.5 21.5l183 9l8 38q6 31 6 56q0 66 -41 98.5t-117 32.5q-90 0 -142 -27.5t-81 -101.5l-256 24q51 174 177 246t333 72q190 0 293.5 -84t105.5 -244q0 -63 -14 -127l-137 -647h-271l29 135q-39 -39 -76 -69.5t-77.5 -51 t-89 -31t-109.5 -10.5q-141 0 -226 75q-83 73 -83 215v7zM356 295q0 -47 32 -77t89 -30q55 0 100.5 13.5t86.5 42.5q92 59 118 178l13 57l-140 -8q-88 -6 -145 -19.5t-91 -36t-48.5 -52t-14.5 -68.5z" />
<glyph unicode="b" horiz-adv-x="1275" d="M66 0l309 1462h287l-111 -522q55 70 135 116t191 46q94 0 164.5 -36t116.5 -99.5t68.5 -147.5t22.5 -178q0 -145 -40 -268t-110.5 -213t-164.5 -141.5t-205 -51.5q-123 0 -208 43t-144 148l-33 -158h-278zM446 430q0 -41 8.5 -77t26.5 -66q25 -41 71 -64.5t112 -23.5 q70 0 124 36.5t89.5 98t54 141.5t18.5 166q0 109 -51 168t-129 59q-109 0 -190 -73q-41 -35 -69 -85.5t-38 -103.5l-16 -74q-10 -57 -11 -102z" />
<glyph unicode="c" horiz-adv-x="1165" d="M137 422q0 166 47 293t129 213t192.5 130t239.5 44q102 0 179 -29t128.5 -79t80 -120.5t34.5 -156.5l-288 -37q-8 94 -44 143t-126 49q-55 0 -105.5 -28.5t-88.5 -85t-59.5 -141.5t-21.5 -197q0 -98 47 -160.5t146 -62.5q180 0 217 190h291q-37 -209 -166 -314.5 t-373 -105.5q-106 0 -191.5 34t-144.5 93.5t-91 143.5t-32 184z" />
<glyph unicode="d" horiz-adv-x="1273" d="M123 426q0 145 42 269t113.5 214t168.5 141.5t206 51.5q115 0 196 -42t140 -140l117 542h287l-312 -1462h-278l26 131q-61 -78 -140 -121t-177 -43q-96 0 -169 34t-122 95.5t-73.5 145.5t-24.5 184zM422 426q0 -45 11 -86t33.5 -71.5t59.5 -49t86 -18.5q106 0 189 75 q39 37 62.5 82t37.5 109l17 80q8 41 8 96q0 35 -9.5 70t-29.5 67q-25 41 -70 65.5t-110 24.5q-72 0 -125.5 -35.5t-88 -96t-53 -141.5t-18.5 -171z" />
<glyph unicode="e" horiz-adv-x="1206" d="M137 422q0 162 45 289t125 214t190.5 132t243.5 45q100 0 180 -31t135.5 -84t84 -129t28.5 -164q0 -39 -4 -88t-16 -104l-8 -37h-717q-2 -20 -2 -39q0 -106 48 -166q56 -70 161 -70q86 0 137 31t74 113h278q-43 -180 -168 -273.5t-352 -93.5q-106 0 -192 33t-145.5 92.5 t-92.5 143t-33 186.5zM446 653h443q7 35 7 65q0 66 -34 108q-50 62 -147 61q-41 0 -82 -10.5t-76 -37t-63.5 -71.5t-47.5 -115z" />
<glyph unicode="f" horiz-adv-x="776" d="M135 0l178 846h-168l48 223h167l15 64q23 92 55.5 157.5t81.5 107.5t114.5 61.5t155.5 19.5q88 0 152.5 -19.5t85.5 -29.5l-78 -199q-23 10 -55.5 18t-73.5 8q-68 0 -103.5 -34.5t-52.5 -112.5l-8 -41h246l-47 -223h-248l-178 -846h-287z" />
<glyph unicode="g" horiz-adv-x="1275" d="M53 -68h291q12 -74 57 -101.5t152 -27.5q76 0 125 30t78.5 79t46 111.5t28.5 128.5l7 26q-66 -78 -143 -112.5t-179 -34.5q-186 0 -286 115q-99 114 -99 311v8q0 135 43 252t113.5 203t164 134t197.5 48q123 0 209 -42t146 -140l32 149h277l-197 -919 q-29 -133 -67.5 -239t-104 -179.5t-166 -112.5t-250.5 -39q-129 0 -218 25.5t-145 72t-83 111t-29 143.5zM430 465q0 -104 50 -155.5t134 -51.5q47 0 95.5 15.5t89.5 48.5t70.5 81t39.5 99l13 55q8 35 8 76q0 51 -10.5 89t-26.5 60q-25 41 -69 64.5t-113 23.5 q-72 0 -124 -36.5t-87 -95t-52.5 -131t-17.5 -142.5z" />
<glyph unicode="h" d="M66 0l309 1462h287l-113 -528q76 90 157.5 129t174.5 39q150 0 229.5 -81t79.5 -226q0 -66 -14 -131l-142 -664h-286l135 639q10 51 10 84q0 72 -34 105.5t-93 33.5q-55 0 -96 -15.5t-82 -47.5q-37 -29 -63.5 -69t-37.5 -87l-135 -643h-286z" />
<glyph unicode="i" horiz-adv-x="544" d="M68 0l227 1069h287l-228 -1069h-286zM315 1204l56 258h295l-56 -258h-295z" />
<glyph unicode="j" horiz-adv-x="544" d="M-274 -334l81 211q25 -10 57 -17t66 -7q53 0 85 29.5t51 113.5l229 1073h287l-240 -1116q-20 -92 -50 -156.5t-75 -103.5t-107.5 -56.5t-146.5 -17.5q-66 0 -125 12.5t-112 34.5zM315 1204l56 258h295l-56 -258h-295z" />
<glyph unicode="k" horiz-adv-x="1181" d="M66 0l309 1462h280l-159 -760l471 367h348l-469 -379l268 -690h-293l-198 541l-193 -144l-84 -397h-280z" />
<glyph unicode="l" horiz-adv-x="544" d="M68 0l309 1462h287l-310 -1462h-286z" />
<glyph unicode="m" horiz-adv-x="1792" d="M66 0l225 1069h278l-28 -143q82 94 158.5 135t158.5 41q117 0 177.5 -44t86.5 -140q90 106 175 145t192 39q135 0 209 -77t74 -216q0 -59 -17 -141l-141 -668h-287l137 645q6 27 8.5 49.5t2.5 40.5q0 76 -33 101.5t-78 25.5q-47 0 -83 -16.5t-71 -44.5q-31 -27 -55.5 -66 t-32.5 -80l-139 -655h-287l138 649q6 27 8 49.5t2 40.5q0 74 -35 98.5t-82 24.5q-82 0 -147 -59q-70 -63 -93 -160l-135 -643h-286z" />
<glyph unicode="n" d="M66 0l225 1069h278l-30 -147q78 96 162.5 138t179.5 42q150 0 229.5 -81t79.5 -226q0 -66 -14 -131l-142 -664h-286l135 639q10 51 10 84q0 72 -34 105.5t-93 33.5q-55 0 -96 -15.5t-82 -47.5q-37 -29 -63.5 -69t-37.5 -87l-135 -643h-286z" />
<glyph unicode="o" horiz-adv-x="1261" d="M137 420q0 160 47 287t132 214t200 134t250 47q109 0 196 -36t147 -97.5t93 -143.5t33 -176q0 -164 -46 -291t-129 -214t-199 -132t-253 -45q-109 0 -195.5 36t-148 97.5t-94.5 143.5t-33 176zM434 422q0 -106 50.5 -165.5t142.5 -59.5q63 0 119.5 28.5t99.5 85 t67.5 140.5t24.5 194q0 106 -50.5 166.5t-142.5 60.5q-63 0 -119.5 -28.5t-99.5 -86t-67.5 -141.5t-24.5 -194z" />
<glyph unicode="p" horiz-adv-x="1275" d="M-18 -397l309 1466h278l-26 -133q55 74 139 120t195 46q94 0 163.5 -36t115.5 -98.5t69.5 -147.5t23.5 -185q-2 -145 -42 -267t-110.5 -211t-164.5 -139.5t-203 -50.5q-123 0 -205 42t-141 138l-117 -544h-284zM446 432q0 -41 8.5 -78t26.5 -67q25 -41 71 -64.5 t112 -23.5q70 0 124 36.5t89.5 98t54 141.5t18.5 166q0 109 -51 168t-129 59q-109 0 -190 -73q-41 -35 -69 -85.5t-38 -103.5l-16 -74q-4 -27 -7.5 -51t-3.5 -49z" />
<glyph unicode="q" horiz-adv-x="1275" d="M125 434q2 145 45 268t114.5 212.5t167 138.5t203.5 49q115 0 202 -44t142 -149l35 160h277l-312 -1466h-286l106 514q-61 -72 -134 -111t-171 -39t-171 35t-121 96.5t-72.5 147.5t-24.5 188zM424 426q0 -45 11 -86t34 -71.5t59.5 -49t85.5 -18.5q106 0 189 75 q39 37 62.5 82t37.5 109l17 80q8 41 8 96q0 35 -9.5 70t-29.5 67q-25 41 -70 65.5t-110 24.5q-72 0 -125.5 -35.5t-88 -96t-53 -141.5t-18.5 -171z" />
<glyph unicode="r" horiz-adv-x="858" d="M66 0l225 1069h278l-30 -149q72 88 145.5 127.5t165.5 39.5q41 0 63.5 -4t40.5 -8l-73 -260q-23 6 -48.5 10t-64.5 4q-51 0 -97 -12t-83 -41q-47 -35 -70.5 -72.5t-34.5 -85.5l-131 -618h-286z" />
<glyph unicode="s" horiz-adv-x="1099" d="M68 336h272q10 -86 63.5 -117t145.5 -31q96 0 142 28t46 93q0 39 -25.5 66.5t-93.5 42.5l-116 24q-88 18 -148.5 48t-97.5 68t-53.5 86t-16.5 104q0 90 36 156.5t99.5 110.5t152.5 65.5t194 21.5q78 0 152.5 -16.5t134 -54.5t99.5 -101.5t48 -157.5l-262 -33 q-4 33 -15.5 59.5t-32 47t-53 32t-82.5 11.5q-63 0 -100 -11.5t-56.5 -29t-24.5 -37.5t-5 -37q0 -45 32 -69.5t105 -40.5l109 -23q92 -18 152.5 -49t97.5 -71t51 -88t14 -103q0 -106 -40 -176t-108.5 -112t-160.5 -58.5t-195 -16.5q-90 0 -172 18.5t-145.5 61.5t-102 113.5 t-40.5 175.5z" />
<glyph unicode="t" horiz-adv-x="776" d="M141 846l47 223h168l62 285h287l-62 -285h246l-47 -223h-246l-102 -484q-8 -33 -9 -61q0 -55 29 -73.5t72 -18.5q29 0 62.5 5t58.5 11l41 -211q-61 -20 -119 -27t-117 -7q-152 0 -234.5 68.5t-82.5 207.5q0 59 14 119l100 471h-168z" />
<glyph unicode="u" horiz-adv-x="1202" d="M123 270q0 57 16 136l142 663h286l-137 -647q-4 -23 -7 -43.5t-3 -38.5q0 -68 31.5 -100.5t91.5 -32.5q55 0 93 15.5t79 47.5q35 27 64.5 70t39.5 96l133 633h287l-225 -1069h-279l31 147q-78 -96 -161 -138t-177 -42q-150 0 -227.5 80t-77.5 223z" />
<glyph unicode="v" horiz-adv-x="1161" d="M180 1069h322l84 -743l395 743h328l-647 -1069h-287z" />
<glyph unicode="w" horiz-adv-x="1583" d="M176 1069h311l-4 -709l348 701h250l52 -701l303 709h299l-537 -1069h-278l-41 705l-342 -705h-275z" />
<glyph unicode="x" horiz-adv-x="1120" d="M-45 0l502 563l-246 506h324l127 -313l262 313h317l-457 -516l258 -553h-317l-152 352l-288 -352h-330z" />
<glyph unicode="y" horiz-adv-x="1161" d="M-8 -360l74 213q25 -8 54.5 -14.5t63.5 -6.5q57 0 95 31t77 98l56 96l-232 1012h320l108 -702l375 702h326l-664 -1100q-55 -92 -102 -160.5t-98.5 -114.5t-114 -68.5t-148.5 -22.5q-53 0 -98 9t-92 28z" />
<glyph unicode="z" horiz-adv-x="1024" d="M14 0l41 195l647 651h-499l47 223h874l-41 -195l-645 -651h533l-74 -223h-883z" />
<glyph unicode="{" horiz-adv-x="681" d="M90 506l51 237h19q63 0 104 39t55 105l66 313q35 168 127 235.5t223 67.5h195l-51 -239h-103q-59 0 -89 -22.5t-40 -74.5l-74 -344q-12 -57 -51 -113.5t-121 -84.5q53 -23 74 -61t21 -83q0 -29 -7 -55l-73 -344q-6 -23 -6 -37q0 -29 17 -44t60 -15h119l-51 -240h-184 q-115 0 -176.5 59.5t-61.5 163.5q0 41 8 80l66 313q4 12 4 23.5v22.5q0 47 -24.5 72.5t-77.5 25.5h-19z" />
<glyph unicode="|" horiz-adv-x="565" d="M31 -254l375 1757h270l-375 -1757h-270z" />
<glyph unicode="}" horiz-adv-x="681" d="M-106 -254l51 240h102q59 0 89 22.5t40 73.5l74 344q6 29 18.5 57.5t33 55t50 49t70.5 37.5q-53 23 -73.5 60.5t-20.5 82.5q0 27 6 55l74 344q6 20 6 37q0 29 -17.5 44.5t-60.5 15.5h-119l51 239h185q115 0 176 -59.5t61 -163.5q0 -41 -8 -80l-66 -313q-4 -12 -4 -23.5 v-21.5q0 -47 25 -73t78 -26h18l-51 -237h-18q-63 0 -104.5 -39t-55.5 -105l-66 -313q-18 -84 -50 -142.5t-77 -94t-101 -51t-122 -15.5h-194z" />
<glyph unicode="~" d="M123 463q10 129 41 212t79 131t110.5 67.5t135.5 19.5q63 0 114.5 -23.5t94.5 -51t82 -50.5t80 -23q55 0 87 28t48 116h256q-10 -127 -40.5 -210t-78 -132t-111 -68.5t-136.5 -19.5q-63 0 -114.5 23.5t-94.5 52t-82 52t-78 23.5q-55 0 -88 -28.5t-47 -118.5h-258z" />
<glyph unicode="&#xa1;" horiz-adv-x="561" d="M-18 -397l231 1003h266l-190 -1003h-307zM233 743l68 326h283l-68 -326h-283z" />
<glyph unicode="&#xa2;" d="M178 606q0 158 43 282t120 210t182.5 133t230.5 53l41 189h133l-43 -197q154 -27 232.5 -124t90.5 -245l-288 -37q-6 66 -24.5 107t-59.5 59l-136 -633q154 16 185 187h291q-37 -205 -163 -309.5t-362 -108.5l-41 -192h-133l43 202q-162 33 -252 147.5t-90 276.5z M469 614q0 -68 23.5 -119t76.5 -75l136 631q-106 -16 -171 -127t-65 -310z" />
<glyph unicode="&#xa3;" d="M92 0l45 203q113 98 161 194.5t52 204.5h-176l47 223h117q-4 23 -7 65t-3 77q0 246 129 366.5t360 120.5q180 0 290 -85t130 -286l-244 -32q-14 92 -61 130t-125 38q-70 0 -113 -21.5t-65.5 -56.5t-30.5 -83t-8 -100q0 -35 3 -66.5t7 -66.5h447l-48 -223h-385 q-4 -98 -41.5 -184t-130.5 -172h701l-84 -246h-967z" />
<glyph unicode="&#xa4;" d="M109 324l141 118q-33 72 -33 156q0 125 33 226.5t92 176.5l-109 129l181 154l108 -133q111 53 236 53q63 0 118.5 -17.5t102.5 -45.5l135 123l143 -170l-137 -115q39 -82 39 -164q0 -123 -30.5 -222t-84.5 -175l113 -129l-180 -154l-109 131q-55 -29 -118.5 -43 t-131.5 -14t-126 18.5t-105 51.5l-135 -125zM451 606q0 -88 46 -143t134 -55q59 0 112.5 23.5t94.5 71.5t64.5 123.5t23.5 180.5q0 88 -47.5 144.5t-139.5 56.5q-55 0 -107 -23.5t-92 -73t-64.5 -125t-24.5 -180.5z" />
<glyph unicode="&#xa5;" d="M113 276l43 199h342l26 129l2 12h-346l43 199h223l-196 600h289l172 -586l409 586h297l-448 -600h223l-43 -199h-342l-2 -12l-27 -129h346l-43 -199h-346l-57 -276h-281l58 276h-342z" />
<glyph unicode="&#xa6;" horiz-adv-x="565" d="M31 -254l153 723h271l-154 -723h-270zM258 815l148 688h270l-148 -688h-270z" />
<glyph unicode="&#xa7;" horiz-adv-x="1142" d="M43 174h283q0 -39 10 -75t33.5 -62.5t63.5 -41.5t102 -15q119 0 159.5 35.5t40.5 107.5q0 41 -27.5 77t-99.5 52l-159 39q-150 37 -220.5 116.5t-70.5 184.5q0 111 53 185.5t178 117.5q-53 31 -86 90t-33 131q0 188 136.5 285.5t381.5 97.5q123 0 204 -30.5t132.5 -78 t78 -106.5t36.5 -117l-264 -61q-16 72 -63.5 119t-145.5 47q-121 0 -165 -39t-44 -96q0 -35 22.5 -69t92.5 -52l194 -51q76 -20 127 -50t82 -67t44.5 -80t13.5 -90q0 -109 -51.5 -185.5t-184.5 -121.5q55 -35 87 -94.5t32 -126.5q0 -209 -126.5 -303.5t-357.5 -94.5 q-109 0 -196.5 23.5t-151 74t-100.5 130t-41 194.5zM403 623q0 -35 24 -75t99 -59l76 -18q16 -4 45 -8t53 -4q35 0 68 9t59.5 30.5t42 55.5t15.5 83q0 35 -23.5 75t-99.5 60l-100 27q-14 4 -37 6t-47 2q-68 -2 -121.5 -45t-53.5 -139z" />
<glyph unicode="&#xa8;" horiz-adv-x="847" d="M264 1245l53 256h267l-54 -256h-266zM678 1245l53 256h266l-53 -256h-266z" />
<glyph unicode="&#xa9;" horiz-adv-x="1591" d="M172 731q0 166 55.5 301t150.5 230.5t223.5 147.5t275.5 52q156 0 284.5 -52t221 -147.5t143.5 -230.5t51 -301t-54.5 -301t-149.5 -230.5t-222 -147.5t-274 -52q-156 0 -286 52t-223.5 147.5t-144.5 230.5t-51 301zM336 731q0 -133 40 -241.5t111.5 -184.5t171 -117 t218.5 -41q117 0 215 41t169.5 117t111.5 184.5t40 241.5t-40 240.5t-111.5 183.5t-169.5 117t-215 41q-119 0 -218.5 -41t-171 -117t-111.5 -183.5t-40 -240.5zM494 729q0 92 26.5 169t77.5 132t125 86t168 31q162 0 245 -78t97 -201l-215 -34q-10 59 -41 100t-94 41 q-49 0 -82 -20.5t-52.5 -54.5t-27.5 -78t-8 -89q0 -49 8 -93t26.5 -78t51 -54.5t82.5 -20.5q129 0 141 144h221q-12 -145 -100 -230.5t-262 -85.5q-100 0 -173 31t-121 86t-70.5 131t-22.5 166z" />
<glyph unicode="&#xaa;" horiz-adv-x="872" d="M201 891q0 94 41 150.5t106.5 87t147.5 41t163 14.5l103 4l4 22q2 10 2 17.5v15.5q0 94 -104 94q-72 0 -108 -22.5t-50 -69.5l-195 19q41 137 131 186t242 49q139 0 216 -62.5t77 -183.5q0 -45 -12 -94l-101 -467h-205l21 96q-49 -53 -103.5 -84.5t-146.5 -31.5 q-102 0 -165.5 63.5t-63.5 155.5zM416 915q0 -31 18.5 -55t71.5 -24q70 0 125 34q74 45 92 136l8 38l-96 -4q-70 -4 -113 -13t-66.5 -25.5t-31.5 -38t-8 -48.5z" />
<glyph unicode="&#xab;" horiz-adv-x="1120" d="M121 528l360 459h299l-348 -473l139 -453h-290zM571 528l361 459h299l-348 -473l139 -453h-291z" />
<glyph unicode="&#xac;" d="M225 655l51 248h898l-117 -553h-256l65 305h-641z" />
<glyph unicode="&#xad;" horiz-adv-x="796" d="M129 471l61 283h613l-62 -283h-612z" />
<glyph unicode="&#xae;" horiz-adv-x="1001" d="M221 1049q0 104 34 187t93.5 141.5t139 90t171.5 31.5q100 0 181.5 -31.5t138.5 -90t89 -141.5t32 -187t-34 -188.5t-93.5 -143t-140 -89t-173.5 -30.5q-98 0 -179 30.5t-138 89t-89 142.5t-32 189zM338 1049q0 -170 88 -260.5t233 -90.5t234.5 90.5t89.5 260.5 t-89.5 260t-234.5 90t-233 -90t-88 -260zM483 840v434h168q59 0 97 -11.5t59.5 -30t29 -42t7.5 -47.5q0 -47 -15.5 -75t-54.5 -50l92 -178h-123l-73 153h-78v-153h-109zM592 1081h70q43 0 56 15.5t13 40.5t-17.5 38t-64.5 13h-57v-107z" />
<glyph unicode="&#xaf;" horiz-adv-x="847" d="M305 1253l45 220h598l-45 -220h-598z" />
<glyph unicode="&#xb0;" horiz-adv-x="720" d="M190 1159q0 61 23 115.5t62.5 94.5t95 62.5t121.5 22.5q63 0 118.5 -22.5t94 -62.5t61 -94t22.5 -116q0 -63 -22.5 -118.5t-61 -95.5t-94 -62.5t-118.5 -22.5q-66 0 -121.5 22.5t-95 62.5t-62.5 95.5t-23 118.5zM365 1159q0 -61 33.5 -97t93.5 -36q55 0 88.5 36t33.5 97 q0 59 -33.5 95t-88.5 36q-59 0 -93 -36t-34 -95z" />
<glyph unicode="&#xb1;" d="M96 0l51 248h320l70 325h-359l53 248h359l82 389h258l-82 -389h358l-53 -248h-358l-70 -325h319l-51 -248h-897z" />
<glyph unicode="&#xb2;" horiz-adv-x="843" d="M170 590l33 153q16 12 36.5 26.5t48 35t66.5 47.5t92 66q59 43 104.5 75.5t76 63t46 62.5t15.5 71q0 31 -22.5 55.5t-67.5 24.5q-25 0 -46.5 -4t-39.5 -18.5t-34.5 -41t-28.5 -71.5l-203 26q20 74 51 128t75 90t107.5 53.5t149.5 17.5q127 0 203.5 -67.5t76.5 -168.5 q0 -55 -13 -99t-41 -82t-67.5 -73.5t-95.5 -74.5q-39 -29 -84 -57.5t-82 -55.5h316l-62 -182h-610z" />
<glyph unicode="&#xb3;" horiz-adv-x="843" d="M172 862h193q0 -66 33.5 -104.5t105.5 -38.5q53 0 89 24.5t36 87.5q0 51 -31 75t-80 24h-86l35 164h84q63 0 95 28.5t32 81.5q0 35 -25.5 58.5t-77.5 23.5q-55 0 -92 -22.5t-57 -100.5l-190 27q33 129 111.5 194.5t242.5 65.5q133 0 208.5 -64.5t75.5 -162.5 q0 -70 -31.5 -122t-117.5 -89q53 -29 78.5 -78t25.5 -109q0 -127 -80.5 -198.5t-248.5 -71.5q-156 0 -242 80t-86 227z" />
<glyph unicode="&#xb4;" horiz-adv-x="847" d="M317 1217l312 317h338l-371 -317h-279z" />
<glyph unicode="&#xb5;" horiz-adv-x="1202" d="M-31 -397l312 1466h286l-137 -647q-10 -47 -10 -76q-2 -139 123 -139q55 0 93 15.5t79 47.5q35 27 64.5 70t39.5 96l133 633h287l-225 -1069h-279l31 147q-47 -72 -109.5 -122t-164.5 -50q-94 0 -144 56l-92 -428h-287z" />
<glyph unicode="&#xb6;" horiz-adv-x="1341" d="M166 920q0 113 37 212t121 172.5t220 115.5t337 42h575l-371 -1747h-270l322 1514h-176l-322 -1514h-270l174 822q-102 8 -174 43.5t-117 89t-65.5 119t-20.5 131.5z" />
<glyph unicode="&#xb7;" horiz-adv-x="503" d="M172 598l70 330h293l-70 -330h-293z" />
<glyph unicode="&#xb8;" horiz-adv-x="847" d="M342 -430l20 139q47 -8 79 -10t59 -2q53 0 74.5 15.5t21.5 45.5q0 25 -23.5 39.5t-83.5 14.5h-69l102 204h156l-55 -116q94 -14 129.5 -58.5t35.5 -93.5q0 -111 -83.5 -151.5t-221.5 -40.5q-29 0 -63.5 3t-77.5 11z" />
<glyph unicode="&#xb9;" horiz-adv-x="843" d="M283 1260l305 155h219l-174 -825h-215l131 616l-197 -96z" />
<glyph unicode="&#xba;" horiz-adv-x="862" d="M188 997q0 119 35 212.5t96.5 158t146.5 98t185 33.5q80 0 145.5 -26.5t111.5 -72.5t71 -108.5t25 -132.5q0 -123 -34 -216t-95.5 -156.5t-146.5 -96.5t-185 -33q-82 0 -147.5 28t-111.5 74t-71 107.5t-25 130.5zM416 1006q0 -74 36.5 -119t102.5 -45q98 0 159.5 73.5 t61.5 235.5q0 74 -37.5 119t-103.5 45q-90 0 -154.5 -74t-64.5 -235z" />
<glyph unicode="&#xbb;" horiz-adv-x="1120" d="M-4 61l352 474l-139 452h287l163 -467l-360 -459h-303zM446 61l353 474l-140 452h287l164 -467l-360 -459h-304z" />
<glyph unicode="&#xbc;" horiz-adv-x="1918" d="M183 1260l305 155h219l-174 -825h-215l131 616l-197 -96zM340 0l1012 1415h278l-1011 -1415h-279zM1135 168l26 133l502 526h199l-105 -495h107l-55 -164h-86l-35 -166h-193l35 166h-395zM1381 332h184l53 256z" />
<glyph unicode="&#xbd;" horiz-adv-x="1918" d="M183 1260l305 155h219l-174 -825h-215l131 616l-197 -96zM278 0l1012 1415h278l-1011 -1415h-279zM1143 2l33 153q16 12 36.5 26.5t48 35t66.5 47.5t92 66q59 43 104.5 75.5t76 63t46 62.5t15.5 71q0 31 -22.5 55.5t-67.5 24.5q-25 0 -46.5 -4t-39.5 -18.5t-34.5 -41 t-28.5 -71.5l-203 26q20 74 51 128t75 90t107.5 53.5t149.5 17.5q127 0 203.5 -67.5t76.5 -168.5q0 -55 -13 -99t-41 -82t-67.5 -73.5t-95.5 -74.5q-39 -29 -84 -57.5t-82 -55.5h316l-62 -182h-610z" />
<glyph unicode="&#xbe;" horiz-adv-x="1918" d="M192 862h193q0 -66 33.5 -104.5t105.5 -38.5q53 0 89 24.5t36 87.5q0 51 -31 75t-80 24h-86l35 164h84q63 0 95 28.5t32 81.5q0 35 -25.5 58.5t-77.5 23.5q-55 0 -92 -22.5t-57 -100.5l-190 27q33 129 111.5 194.5t242.5 65.5q133 0 208.5 -64.5t75.5 -162.5 q0 -70 -31.5 -122t-117.5 -89q53 -29 78.5 -78t25.5 -109q0 -127 -80.5 -198.5t-248.5 -71.5q-156 0 -242 80t-86 227zM473 0l1012 1415h278l-1011 -1415h-279zM1135 168l26 133l502 526h199l-105 -495h107l-55 -164h-86l-35 -166h-193l35 166h-395zM1381 332h184l53 256z " />
<glyph unicode="&#xbf;" horiz-adv-x="1021" d="M-10 -72q0 76 19.5 133.5t50 101.5t71.5 80t84 72q37 31 75 59.5t68.5 58.5t52 63.5t29.5 76.5l6 33h283l-8 -45q-10 -53 -28.5 -94t-47.5 -77t-67.5 -69.5t-88.5 -72.5q-41 -33 -77.5 -61.5t-64.5 -60.5t-44 -71t-16 -92q0 -66 42 -103.5t113 -37.5q43 0 82 9t72 32.5 t58.5 64.5t41.5 107l258 -33q-23 -96 -62.5 -173t-103 -132t-154.5 -85t-216 -30q-92 0 -171 24.5t-136.5 69.5t-89 108.5t-31.5 143.5zM467 743l68 326h282l-67 -326h-283z" />
<glyph unicode="&#xc0;" horiz-adv-x="1429" d="M-41 0l858 1462h291l240 -1462h-316l-45 338h-512l-188 -338h-328zM604 590h354l-67 524zM635 1878h319l201 -297h-258z" />
<glyph unicode="&#xc1;" horiz-adv-x="1429" d="M-41 0l858 1462h291l240 -1462h-316l-45 338h-512l-188 -338h-328zM604 590h354l-67 524zM809 1581l322 297h346l-389 -297h-279z" />
<glyph unicode="&#xc2;" horiz-adv-x="1429" d="M-41 0l858 1462h291l240 -1462h-316l-45 338h-512l-188 -338h-328zM594 1581l305 297h289l191 -297h-246l-111 148l-182 -148h-246zM604 590h354l-67 524z" />
<glyph unicode="&#xc3;" horiz-adv-x="1429" d="M-41 0l858 1462h291l240 -1462h-316l-45 338h-512l-188 -338h-328zM578 1583q12 158 80.5 224.5t181.5 66.5q39 0 74.5 -14.5t66.5 -31t58.5 -30.5t52.5 -14q43 0 66.5 15.5t29.5 66.5h203q-12 -158 -80 -223.5t-180 -65.5q-41 0 -76 14.5t-65.5 31.5t-57.5 31.5 t-51 14.5q-43 0 -68.5 -17.5t-32.5 -68.5h-202zM604 590h354l-67 524z" />
<glyph unicode="&#xc4;" horiz-adv-x="1429" d="M-41 0l858 1462h291l240 -1462h-316l-45 338h-512l-188 -338h-328zM604 590h354l-67 524zM631 1602l55 264h275l-56 -264h-274zM1057 1602l55 264h275l-56 -264h-274z" />
<glyph unicode="&#xc5;" horiz-adv-x="1429" d="M-41 0l844 1438q-39 29 -61.5 76.5t-22.5 113.5q0 61 19.5 107.5t53 76t78.5 45t95 15.5q49 0 94 -15.5t78.5 -45t54 -75.5t20.5 -108q0 -72 -27.5 -121t-72.5 -77l236 -1430h-316l-45 338h-512l-188 -338h-328zM604 590h354l-67 524zM872 1628q0 -51 25 -73.5t68 -22.5 q94 0 94 96q0 53 -24.5 77t-69.5 24q-43 0 -68 -24t-25 -77z" />
<glyph unicode="&#xc6;" horiz-adv-x="2154" d="M-76 0l1135 1462h1253l-55 -260h-653l-68 -319h612l-55 -262h-612l-78 -361h696l-84 -260h-960l92 438h-537l-336 -438h-350zM793 690h407l109 512h-135z" />
<glyph unicode="&#xc7;" horiz-adv-x="1460" d="M182 623q0 172 53.5 330.5t152.5 280.5t240.5 193.5t317.5 71.5q143 0 247.5 -37t173.5 -103.5t104.5 -159.5t44.5 -206l-304 -41q-8 68 -24.5 121t-49 89t-81.5 55.5t-121 19.5q-102 0 -182 -49t-135.5 -131t-85 -189.5t-29.5 -224.5q0 -86 14 -161.5t50 -132 t93.5 -90.5t143.5 -34q150 0 225.5 72t99.5 209h328q-25 -119 -68.5 -215t-115.5 -166t-176.5 -111t-247.5 -49l-33 -67q98 -16 137 -60.5t39 -95.5q0 -57 -23.5 -95t-65.5 -61.5t-101.5 -33t-128.5 -9.5q-29 0 -65 3t-79 12l21 139q49 -8 81 -10t60 -2q53 0 76 17t23 50 q0 25 -25 38t-84 13h-72l80 166q-135 14 -231.5 71.5t-157.5 144.5t-90 200t-29 238z" />
<glyph unicode="&#xc8;" horiz-adv-x="1236" d="M88 0l309 1462h998l-56 -260h-692l-67 -319h651l-55 -262h-652l-78 -361h736l-84 -260h-1010zM606 1878h319l201 -297h-258z" />
<glyph unicode="&#xc9;" horiz-adv-x="1236" d="M88 0l309 1462h998l-56 -260h-692l-67 -319h651l-55 -262h-652l-78 -361h736l-84 -260h-1010zM698 1581l322 297h346l-389 -297h-279z" />
<glyph unicode="&#xca;" horiz-adv-x="1236" d="M88 0l309 1462h998l-56 -260h-692l-67 -319h651l-55 -262h-652l-78 -361h736l-84 -260h-1010zM532 1581l305 297h289l191 -297h-246l-111 148l-182 -148h-246z" />
<glyph unicode="&#xcb;" horiz-adv-x="1236" d="M88 0l309 1462h998l-56 -260h-692l-67 -319h651l-55 -262h-652l-78 -361h736l-84 -260h-1010zM569 1602l55 264h275l-56 -264h-274zM995 1602l55 264h275l-56 -264h-274z" />
<glyph unicode="&#xcc;" horiz-adv-x="604" d="M88 0l309 1462h305l-309 -1462h-305zM238 1878h319l201 -297h-258z" />
<glyph unicode="&#xcd;" horiz-adv-x="604" d="M88 0l309 1462h305l-309 -1462h-305zM385 1581l322 297h346l-389 -297h-279z" />
<glyph unicode="&#xce;" horiz-adv-x="604" d="M88 0l309 1462h305l-309 -1462h-305zM178 1581l305 297h289l191 -297h-246l-111 148l-182 -148h-246z" />
<glyph unicode="&#xcf;" horiz-adv-x="604" d="M88 0l309 1462h305l-309 -1462h-305zM217 1602l55 264h275l-56 -264h-274zM643 1602l55 264h275l-56 -264h-274z" />
<glyph unicode="&#xd0;" horiz-adv-x="1546" d="M100 629l54 252h157l123 581h488q147 0 261.5 -48t194.5 -130t122 -191.5t42 -234.5q0 -199 -58.5 -357.5t-173 -270t-285.5 -171t-394 -59.5h-506l133 629h-158zM483 260h187q143 0 247.5 43t172 122t100.5 186.5t33 236.5q0 74 -19.5 138.5t-59.5 112.5t-102.5 75.5 t-146.5 27.5h-211l-70 -321h314l-54 -252h-313z" />
<glyph unicode="&#xd1;" horiz-adv-x="1472" d="M88 0l309 1462h260l412 -966l205 966h297l-309 -1462h-256l-418 961l-203 -961h-297zM615 1583q12 158 80.5 224.5t181.5 66.5q39 0 74.5 -14.5t66.5 -31t58.5 -30.5t52.5 -14q43 0 66.5 15.5t29.5 66.5h203q-12 -158 -80 -223.5t-180 -65.5q-41 0 -76 14.5t-65.5 31.5 t-57.5 31.5t-51 14.5q-43 0 -68.5 -17.5t-32.5 -68.5h-202z" />
<glyph unicode="&#xd2;" horiz-adv-x="1597" d="M186 578q0 176 53.5 341.5t157 294.5t256 207t351.5 78q141 0 250.5 -46t184 -127t113.5 -193.5t39 -245.5q0 -178 -51 -345t-152.5 -296t-254 -206t-353.5 -77q-141 0 -251.5 45t-186.5 127t-116 194.5t-40 248.5zM502 592q0 -170 74.5 -268.5t224.5 -98.5 q123 0 212 57.5t147.5 149.5t87 208t28.5 232q0 166 -73.5 265.5t-223.5 99.5q-123 0 -213 -57.5t-148.5 -149.5t-87 -207.5t-28.5 -230.5zM741 1878h319l201 -297h-258z" />
<glyph unicode="&#xd3;" horiz-adv-x="1597" d="M186 578q0 176 53.5 341.5t157 294.5t256 207t351.5 78q141 0 250.5 -46t184 -127t113.5 -193.5t39 -245.5q0 -178 -51 -345t-152.5 -296t-254 -206t-353.5 -77q-141 0 -251.5 45t-186.5 127t-116 194.5t-40 248.5zM502 592q0 -170 74.5 -268.5t224.5 -98.5 q123 0 212 57.5t147.5 149.5t87 208t28.5 232q0 166 -73.5 265.5t-223.5 99.5q-123 0 -213 -57.5t-148.5 -149.5t-87 -207.5t-28.5 -230.5zM819 1581l322 297h346l-389 -297h-279z" />
<glyph unicode="&#xd4;" horiz-adv-x="1597" d="M186 578q0 176 53.5 341.5t157 294.5t256 207t351.5 78q141 0 250.5 -46t184 -127t113.5 -193.5t39 -245.5q0 -178 -51 -345t-152.5 -296t-254 -206t-353.5 -77q-141 0 -251.5 45t-186.5 127t-116 194.5t-40 248.5zM502 592q0 -170 74.5 -268.5t224.5 -98.5 q123 0 212 57.5t147.5 149.5t87 208t28.5 232q0 166 -73.5 265.5t-223.5 99.5q-123 0 -213 -57.5t-148.5 -149.5t-87 -207.5t-28.5 -230.5zM645 1581l305 297h289l191 -297h-246l-111 148l-182 -148h-246z" />
<glyph unicode="&#xd5;" horiz-adv-x="1597" d="M186 578q0 176 53.5 341.5t157 294.5t256 207t351.5 78q141 0 250.5 -46t184 -127t113.5 -193.5t39 -245.5q0 -178 -51 -345t-152.5 -296t-254 -206t-353.5 -77q-141 0 -251.5 45t-186.5 127t-116 194.5t-40 248.5zM502 592q0 -170 74.5 -268.5t224.5 -98.5 q123 0 212 57.5t147.5 149.5t87 208t28.5 232q0 166 -73.5 265.5t-223.5 99.5q-123 0 -213 -57.5t-148.5 -149.5t-87 -207.5t-28.5 -230.5zM648 1583q12 158 80.5 224.5t181.5 66.5q39 0 74.5 -14.5t66.5 -31t58.5 -30.5t52.5 -14q43 0 66.5 15.5t29.5 66.5h203 q-12 -158 -80 -223.5t-180 -65.5q-41 0 -76 14.5t-65.5 31.5t-57.5 31.5t-51 14.5q-43 0 -68.5 -17.5t-32.5 -68.5h-202z" />
<glyph unicode="&#xd6;" horiz-adv-x="1597" d="M186 578q0 176 53.5 341.5t157 294.5t256 207t351.5 78q141 0 250.5 -46t184 -127t113.5 -193.5t39 -245.5q0 -178 -51 -345t-152.5 -296t-254 -206t-353.5 -77q-141 0 -251.5 45t-186.5 127t-116 194.5t-40 248.5zM502 592q0 -170 74.5 -268.5t224.5 -98.5 q123 0 212 57.5t147.5 149.5t87 208t28.5 232q0 166 -73.5 265.5t-223.5 99.5q-123 0 -213 -57.5t-148.5 -149.5t-87 -207.5t-28.5 -230.5zM678 1602l55 264h275l-56 -264h-274zM1104 1602l55 264h275l-56 -264h-274z" />
<glyph unicode="&#xd7;" d="M186 416l340 286l-239 297l202 162l234 -291l338 283l147 -174l-340 -287l240 -297l-203 -162l-233 291l-338 -282z" />
<glyph unicode="&#xd8;" horiz-adv-x="1597" d="M150 14l149 172q-113 160 -113 392q0 176 53.5 341.5t157 294.5t256 207t351.5 78q104 0 191 -25.5t157 -72.5l133 153l123 -104l-140 -160q123 -164 123 -403q0 -178 -51 -345t-152.5 -296t-254 -206t-353.5 -77q-113 0 -205 27.5t-163 81.5l-140 -162zM502 592 q0 -41 3 -79t13 -73l641 740q-69 57 -180 57q-123 0 -213 -57.5t-148.5 -149.5t-87 -207.5t-28.5 -230.5zM604 293q78 -68 197 -68q123 0 212 57.5t147.5 149.5t87 207.5t28.5 232.5q0 94 -25 168z" />
<glyph unicode="&#xd9;" horiz-adv-x="1419" d="M160 424q0 84 20 174l182 864h306l-185 -870q-18 -80 -18 -139q0 -121 63.5 -174.5t182.5 -53.5q76 0 130 22.5t94 68.5t67.5 115t48.5 161l184 870h305l-184 -870q-35 -166 -89.5 -285t-134 -195.5t-189.5 -112.5t-253 -36q-117 0 -215 28.5t-167.5 85t-108.5 143.5 t-39 204zM629 1878h319l201 -297h-258z" />
<glyph unicode="&#xda;" horiz-adv-x="1419" d="M160 424q0 84 20 174l182 864h306l-185 -870q-18 -80 -18 -139q0 -121 63.5 -174.5t182.5 -53.5q76 0 130 22.5t94 68.5t67.5 115t48.5 161l184 870h305l-184 -870q-35 -166 -89.5 -285t-134 -195.5t-189.5 -112.5t-253 -36q-117 0 -215 28.5t-167.5 85t-108.5 143.5 t-39 204zM778 1581l322 297h346l-389 -297h-279z" />
<glyph unicode="&#xdb;" horiz-adv-x="1419" d="M160 424q0 84 20 174l182 864h306l-185 -870q-18 -80 -18 -139q0 -121 63.5 -174.5t182.5 -53.5q76 0 130 22.5t94 68.5t67.5 115t48.5 161l184 870h305l-184 -870q-35 -166 -89.5 -285t-134 -195.5t-189.5 -112.5t-253 -36q-117 0 -215 28.5t-167.5 85t-108.5 143.5 t-39 204zM584 1581l305 297h289l191 -297h-246l-111 148l-182 -148h-246z" />
<glyph unicode="&#xdc;" horiz-adv-x="1419" d="M160 424q0 84 20 174l182 864h306l-185 -870q-18 -80 -18 -139q0 -121 63.5 -174.5t182.5 -53.5q76 0 130 22.5t94 68.5t67.5 115t48.5 161l184 870h305l-184 -870q-35 -166 -89.5 -285t-134 -195.5t-189.5 -112.5t-253 -36q-117 0 -215 28.5t-167.5 85t-108.5 143.5 t-39 204zM621 1602l55 264h275l-56 -264h-274zM1047 1602l55 264h275l-56 -264h-274z" />
<glyph unicode="&#xdd;" horiz-adv-x="1345" d="M268 1462h328l195 -592l446 592h336l-678 -866l-125 -596h-305l125 596zM741 1581l322 297h346l-389 -297h-279z" />
<glyph unicode="&#xde;" horiz-adv-x="1310" d="M88 0l309 1462h301l-53 -252h203q135 0 228 -37.5t152.5 -96t86 -130t26.5 -139.5q0 -139 -45 -240.5t-131 -167t-207.5 -97.5t-275.5 -32h-236l-57 -270h-301zM500 524h209q70 0 129 11.5t102 41t67.5 80t24.5 127.5q0 72 -52 123t-181 51h-207z" />
<glyph unicode="&#xdf;" horiz-adv-x="1236" d="M66 0l221 1047q45 213 172 322.5t340 109.5q109 0 188.5 -26t133 -72t80 -109.5t26.5 -138.5q0 -129 -63.5 -217.5t-178.5 -122.5q55 -25 96 -61t67 -79t38 -91t12 -95q0 -100 -26.5 -188.5t-85 -155t-153 -104t-231.5 -37.5t-237 41l70 206q29 -8 66.5 -16t98.5 -8 q106 0 163 65.5t57 194.5q0 86 -57.5 139t-180.5 53h-68l45 220h72q41 0 81 10t70.5 36.5t49 70.5t18.5 112q0 72 -41 114t-116 42q-100 0 -155.5 -56.5t-84.5 -187.5l-215 -1018h-272z" />
<glyph unicode="&#xe0;" horiz-adv-x="1148" d="M68 270q0 117 52 191t135 114.5t187.5 58t210.5 21.5l183 9l8 38q6 31 6 56q0 66 -41 98.5t-117 32.5q-90 0 -142 -27.5t-81 -101.5l-256 24q51 174 177 246t333 72q190 0 293.5 -84t105.5 -244q0 -63 -14 -127l-137 -647h-271l29 135q-39 -39 -76 -69.5t-77.5 -51 t-89 -31t-109.5 -10.5q-141 0 -226 75t-83 222zM356 295q0 -47 32 -77t89 -30q55 0 100.5 13.5t86.5 42.5q92 59 118 178l13 57l-140 -8q-88 -6 -145 -19.5t-91 -36t-48.5 -52t-14.5 -68.5zM471 1534h314l180 -317h-256z" />
<glyph unicode="&#xe1;" horiz-adv-x="1148" d="M68 270q0 117 52 191t135 114.5t187.5 58t210.5 21.5l183 9l8 38q6 31 6 56q0 66 -41 98.5t-117 32.5q-90 0 -142 -27.5t-81 -101.5l-256 24q51 174 177 246t333 72q190 0 293.5 -84t105.5 -244q0 -63 -14 -127l-137 -647h-271l29 135q-39 -39 -76 -69.5t-77.5 -51 t-89 -31t-109.5 -10.5q-141 0 -226 75t-83 222zM356 295q0 -47 32 -77t89 -30q55 0 100.5 13.5t86.5 42.5q92 59 118 178l13 57l-140 -8q-88 -6 -145 -19.5t-91 -36t-48.5 -52t-14.5 -68.5zM557 1217l312 317h338l-371 -317h-279z" />
<glyph unicode="&#xe2;" horiz-adv-x="1148" d="M68 270q0 117 52 191t135 114.5t187.5 58t210.5 21.5l183 9l8 38q6 31 6 56q0 66 -41 98.5t-117 32.5q-90 0 -142 -27.5t-81 -101.5l-256 24q51 174 177 246t333 72q190 0 293.5 -84t105.5 -244q0 -63 -14 -127l-137 -647h-271l29 135q-39 -39 -76 -69.5t-77.5 -51 t-89 -31t-109.5 -10.5q-141 0 -226 75t-83 222zM356 295q0 -47 32 -77t89 -30q55 0 100.5 13.5t86.5 42.5q92 59 118 178l13 57l-140 -8q-88 -6 -145 -19.5t-91 -36t-48.5 -52t-14.5 -68.5zM364 1217l306 317h288l187 -317h-246l-107 169l-182 -169h-246z" />
<glyph unicode="&#xe3;" horiz-adv-x="1148" d="M68 270q0 117 52 191t135 114.5t187.5 58t210.5 21.5l183 9l8 38q6 31 6 56q0 66 -41 98.5t-117 32.5q-90 0 -142 -27.5t-81 -101.5l-256 24q51 174 177 246t333 72q190 0 293.5 -84t105.5 -244q0 -63 -14 -127l-137 -647h-271l29 135q-39 -39 -76 -69.5t-77.5 -51 t-89 -31t-109.5 -10.5q-141 0 -226 75t-83 222zM356 295q0 -47 32 -77t89 -30q55 0 100.5 13.5t86.5 42.5q92 59 118 178l13 57l-140 -8q-88 -6 -145 -19.5t-91 -36t-48.5 -52t-14.5 -68.5zM360 1233q12 158 78 224.5t178 66.5q39 0 74 -14.5t65.5 -31t58 -30.5t52.5 -14 q43 0 67.5 15t30.5 67h193q-12 -158 -78 -223.5t-178 -65.5q-41 0 -76 14t-64.5 31.5t-56 32t-51.5 14.5q-43 0 -68.5 -17.5t-31.5 -68.5h-193z" />
<glyph unicode="&#xe4;" horiz-adv-x="1148" d="M68 270q0 117 52 191t135 114.5t187.5 58t210.5 21.5l183 9l8 38q6 31 6 56q0 66 -41 98.5t-117 32.5q-90 0 -142 -27.5t-81 -101.5l-256 24q51 174 177 246t333 72q190 0 293.5 -84t105.5 -244q0 -63 -14 -127l-137 -647h-271l29 135q-39 -39 -76 -69.5t-77.5 -51 t-89 -31t-109.5 -10.5q-141 0 -226 75t-83 222zM356 295q0 -47 32 -77t89 -30q55 0 100.5 13.5t86.5 42.5q92 59 118 178l13 57l-140 -8q-88 -6 -145 -19.5t-91 -36t-48.5 -52t-14.5 -68.5zM416 1245l53 256h267l-54 -256h-266zM830 1245l53 256h266l-53 -256h-266z" />
<glyph unicode="&#xe5;" horiz-adv-x="1148" d="M68 270q0 117 52 191t135 114.5t187.5 58t210.5 21.5l183 9l8 38q6 31 6 56q0 66 -41 98.5t-117 32.5q-90 0 -142 -27.5t-81 -101.5l-256 24q51 174 177 246t333 72q190 0 293.5 -84t105.5 -244q0 -63 -14 -127l-137 -647h-271l29 135q-39 -39 -76 -69.5t-77.5 -51 t-89 -31t-109.5 -10.5q-141 0 -226 75t-83 222zM356 295q0 -47 32 -77t89 -30q55 0 100.5 13.5t86.5 42.5q92 59 118 178l13 57l-140 -8q-88 -6 -145 -19.5t-91 -36t-48.5 -52t-14.5 -68.5zM525 1436q0 57 19.5 101t51 72.5t74.5 43t90 14.5t90 -14.5t76 -43t52.5 -72.5 t19.5 -101q0 -59 -19.5 -102.5t-52.5 -71t-76 -42t-90 -14.5t-90 14.5t-74.5 42t-51 71t-19.5 102.5zM672 1436q0 -47 23.5 -71t64.5 -24t65.5 24t24.5 71q0 49 -24.5 71.5t-65.5 22.5t-64.5 -22.5t-23.5 -71.5z" />
<glyph unicode="&#xe6;" horiz-adv-x="1837" d="M68 270q0 117 51 191t133 114.5t185.5 58t209.5 21.5l176 9l8 38q6 27 7 52q0 59 -37 97t-117 38q-86 0 -137 -27.5t-80 -101.5l-256 24q51 174 173 246t310 72q133 0 206 -42t114 -124q72 86 160 126t204 40q98 0 177 -31t133.5 -84t83 -129t28.5 -164q0 -39 -3 -82 t-13 -92l-12 -55h-711v-35q0 -111 55 -175.5t146 -64.5q82 0 135 31t76 113h278q-43 -186 -172 -276.5t-342 -90.5q-141 0 -227 56.5t-140 160.5q-37 -43 -76.5 -80.5t-92 -67.5t-121 -46.5t-162.5 -16.5q-172 0 -262 75t-88 222zM356 295q0 -47 33 -77t94 -30 q55 0 98.5 14.5t84.5 43.5q45 33 67.5 74.5t36.5 101.5l12 57l-133 -8q-88 -6 -144 -19.5t-89 -36t-46.5 -52t-13.5 -68.5zM1083 653h437q20 111 -30 172.5t-140 61.5q-39 0 -79 -10.5t-75 -37t-64.5 -71.5t-48.5 -115z" />
<glyph unicode="&#xe7;" horiz-adv-x="1165" d="M137 422q0 166 47 293t129 213t192.5 130t239.5 44q102 0 179 -29t128.5 -79t80 -120.5t34.5 -156.5l-288 -37q-8 94 -44 143t-126 49q-55 0 -105.5 -28.5t-88.5 -85t-59.5 -141.5t-21.5 -197q0 -98 47 -160.5t146 -62.5q180 0 217 190h291q-35 -197 -150 -300t-330 -118 l-32 -69q94 -14 129.5 -58.5t35.5 -93.5q0 -111 -83.5 -151.5t-221.5 -40.5q-29 0 -63.5 3t-77.5 11l20 139q47 -8 79 -10t59 -2q53 0 74.5 15.5t21.5 45.5q0 25 -23.5 39.5t-83.5 14.5h-69l80 163q-172 27 -267.5 147t-95.5 300z" />
<glyph unicode="&#xe8;" horiz-adv-x="1206" d="M137 422q0 162 45 289t125 214t190.5 132t243.5 45q100 0 180 -31t135.5 -84t84 -129t28.5 -164q0 -39 -4 -88t-16 -104l-8 -37h-717q-10 -135 46 -205t161 -70q86 0 137 31t74 113h278q-43 -180 -168 -273.5t-352 -93.5q-106 0 -192 33t-145.5 92.5t-92.5 143t-33 186.5 zM446 653h443q23 111 -27.5 172.5t-146.5 61.5q-41 0 -82 -10.5t-76 -37t-63.5 -71.5t-47.5 -115zM487 1534h314l180 -317h-256z" />
<glyph unicode="&#xe9;" horiz-adv-x="1206" d="M137 422q0 162 45 289t125 214t190.5 132t243.5 45q100 0 180 -31t135.5 -84t84 -129t28.5 -164q0 -39 -4 -88t-16 -104l-8 -37h-717q-10 -135 46 -205t161 -70q86 0 137 31t74 113h278q-43 -180 -168 -273.5t-352 -93.5q-106 0 -192 33t-145.5 92.5t-92.5 143t-33 186.5 zM446 653h443q23 111 -27.5 172.5t-146.5 61.5q-41 0 -82 -10.5t-76 -37t-63.5 -71.5t-47.5 -115zM563 1217l312 317h338l-371 -317h-279z" />
<glyph unicode="&#xea;" horiz-adv-x="1206" d="M137 422q0 162 45 289t125 214t190.5 132t243.5 45q100 0 180 -31t135.5 -84t84 -129t28.5 -164q0 -39 -4 -88t-16 -104l-8 -37h-717q-10 -135 46 -205t161 -70q86 0 137 31t74 113h278q-43 -180 -168 -273.5t-352 -93.5q-106 0 -192 33t-145.5 92.5t-92.5 143t-33 186.5 zM376 1217l306 317h288l187 -317h-246l-107 169l-182 -169h-246zM446 653h443q23 111 -27.5 172.5t-146.5 61.5q-41 0 -82 -10.5t-76 -37t-63.5 -71.5t-47.5 -115z" />
<glyph unicode="&#xeb;" horiz-adv-x="1206" d="M137 422q0 162 45 289t125 214t190.5 132t243.5 45q100 0 180 -31t135.5 -84t84 -129t28.5 -164q0 -39 -4 -88t-16 -104l-8 -37h-717q-10 -135 46 -205t161 -70q86 0 137 31t74 113h278q-43 -180 -168 -273.5t-352 -93.5q-106 0 -192 33t-145.5 92.5t-92.5 143t-33 186.5 zM428 1245l53 256h267l-54 -256h-266zM446 653h443q23 111 -27.5 172.5t-146.5 61.5q-41 0 -82 -10.5t-76 -37t-63.5 -71.5t-47.5 -115zM842 1245l53 256h266l-53 -256h-266z" />
<glyph unicode="&#xec;" horiz-adv-x="544" d="M68 0l227 1069h287l-228 -1069h-286zM137 1534h314l180 -317h-256z" />
<glyph unicode="&#xed;" horiz-adv-x="544" d="M68 0l227 1069h287l-228 -1069h-286zM280 1217l312 317h338l-371 -317h-279z" />
<glyph unicode="&#xee;" horiz-adv-x="544" d="M68 0l227 1069h287l-228 -1069h-286zM77 1217l306 317h288l187 -317h-246l-107 169l-182 -169h-246z" />
<glyph unicode="&#xef;" horiz-adv-x="544" d="M68 0l227 1069h287l-228 -1069h-286zM112 1245l53 256h267l-54 -256h-266zM526 1245l53 256h266l-53 -256h-266z" />
<glyph unicode="&#xf0;" horiz-adv-x="1261" d="M121 412q0 150 46 261t120.5 186t171 112t196.5 37q111 0 192 -39t124 -107q0 121 -43 201t-109 129l-145 -125l-105 115l99 86q-45 14 -90.5 21t-85.5 11l75 211q82 -10 154 -30.5t137 -48.5l146 127l104 -117l-113 -96q119 -96 181.5 -238.5t62.5 -329.5 q0 -416 -164 -613.5t-471 -197.5q-123 0 -214 38t-151.5 100.5t-89 142.5t-28.5 164zM416 438q0 -51 12 -95t38 -77t66 -51t97 -18q72 0 126 26.5t90 74.5t54.5 113.5t18.5 143.5q0 49 -15.5 94t-50.5 76q-59 53 -164 53q-135 0 -203.5 -96t-68.5 -244z" />
<glyph unicode="&#xf1;" d="M66 0l225 1069h278l-30 -147q78 96 162.5 138t179.5 42q150 0 229.5 -81t79.5 -226q0 -66 -14 -131l-142 -664h-286l135 639q10 51 10 84q0 72 -34 105.5t-93 33.5q-55 0 -96 -15.5t-82 -47.5q-37 -29 -63.5 -69t-37.5 -87l-135 -643h-286zM403 1233q12 158 78 224.5 t178 66.5q39 0 74 -14.5t65.5 -31t58 -30.5t52.5 -14q43 0 67.5 15t30.5 67h193q-12 -158 -78 -223.5t-178 -65.5q-41 0 -76 14t-64.5 31.5t-56 32t-51.5 14.5q-43 0 -68.5 -17.5t-31.5 -68.5h-193z" />
<glyph unicode="&#xf2;" horiz-adv-x="1261" d="M137 420q0 160 47 287t132 214t200 134t250 47q109 0 196 -36t147 -97.5t93 -143.5t33 -176q0 -164 -46 -291t-129 -214t-199 -132t-253 -45q-109 0 -195.5 36t-148 97.5t-94.5 143.5t-33 176zM434 422q0 -106 50.5 -165.5t142.5 -59.5q63 0 119.5 28.5t99.5 85 t67.5 140.5t24.5 194q0 106 -50.5 166.5t-142.5 60.5q-63 0 -119.5 -28.5t-99.5 -86t-67.5 -141.5t-24.5 -194zM522 1534h314l180 -317h-256z" />
<glyph unicode="&#xf3;" horiz-adv-x="1261" d="M137 420q0 160 47 287t132 214t200 134t250 47q109 0 196 -36t147 -97.5t93 -143.5t33 -176q0 -164 -46 -291t-129 -214t-199 -132t-253 -45q-109 0 -195.5 36t-148 97.5t-94.5 143.5t-33 176zM434 422q0 -106 50.5 -165.5t142.5 -59.5q63 0 119.5 28.5t99.5 85 t67.5 140.5t24.5 194q0 106 -50.5 166.5t-142.5 60.5q-63 0 -119.5 -28.5t-99.5 -86t-67.5 -141.5t-24.5 -194zM571 1217l312 317h338l-371 -317h-279z" />
<glyph unicode="&#xf4;" horiz-adv-x="1261" d="M137 420q0 160 47 287t132 214t200 134t250 47q109 0 196 -36t147 -97.5t93 -143.5t33 -176q0 -164 -46 -291t-129 -214t-199 -132t-253 -45q-109 0 -195.5 36t-148 97.5t-94.5 143.5t-33 176zM405 1217l306 317h288l187 -317h-246l-107 169l-182 -169h-246zM434 422 q0 -106 50.5 -165.5t142.5 -59.5q63 0 119.5 28.5t99.5 85t67.5 140.5t24.5 194q0 106 -50.5 166.5t-142.5 60.5q-63 0 -119.5 -28.5t-99.5 -86t-67.5 -141.5t-24.5 -194z" />
<glyph unicode="&#xf5;" horiz-adv-x="1261" d="M137 420q0 160 47 287t132 214t200 134t250 47q109 0 196 -36t147 -97.5t93 -143.5t33 -176q0 -164 -46 -291t-129 -214t-199 -132t-253 -45q-109 0 -195.5 36t-148 97.5t-94.5 143.5t-33 176zM397 1233q12 158 78 224.5t178 66.5q39 0 74 -14.5t65.5 -31t58 -30.5 t52.5 -14q43 0 67.5 15t30.5 67h193q-12 -158 -78 -223.5t-178 -65.5q-41 0 -76 14t-64.5 31.5t-56 32t-51.5 14.5q-43 0 -68.5 -17.5t-31.5 -68.5h-193zM434 422q0 -106 50.5 -165.5t142.5 -59.5q63 0 119.5 28.5t99.5 85t67.5 140.5t24.5 194q0 106 -50.5 166.5 t-142.5 60.5q-63 0 -119.5 -28.5t-99.5 -86t-67.5 -141.5t-24.5 -194z" />
<glyph unicode="&#xf6;" horiz-adv-x="1261" d="M137 420q0 160 47 287t132 214t200 134t250 47q109 0 196 -36t147 -97.5t93 -143.5t33 -176q0 -164 -46 -291t-129 -214t-199 -132t-253 -45q-109 0 -195.5 36t-148 97.5t-94.5 143.5t-33 176zM434 422q0 -106 50.5 -165.5t142.5 -59.5q63 0 119.5 28.5t99.5 85 t67.5 140.5t24.5 194q0 106 -50.5 166.5t-142.5 60.5q-63 0 -119.5 -28.5t-99.5 -86t-67.5 -141.5t-24.5 -194zM450 1245l53 256h267l-54 -256h-266zM864 1245l53 256h266l-53 -256h-266z" />
<glyph unicode="&#xf7;" d="M217 573l53 248h897l-53 -248h-897zM449 170l59 276h258l-59 -276h-258zM610 934l60 276h258l-60 -276h-258z" />
<glyph unicode="&#xf8;" horiz-adv-x="1261" d="M94 -6l131 147q-88 119 -88 279t47 287t132 214t200 134t250 47q76 0 139.5 -17.5t116.5 -48.5l113 125l112 -100l-110 -123q98 -121 98 -289q0 -164 -46 -291t-129 -214t-199 -132t-253 -45q-78 0 -146.5 18.5t-121.5 53.5l-131 -148zM434 398.5q0 -11.5 2 -21.5 l414 465q-48 30 -105 30q-63 0 -119.5 -28.5t-99.5 -86t-67.5 -141.5t-24.5 -194v-23.5zM510 231q43 -35 117 -34q63 0 119.5 28.5t99.5 85t67.5 140t24.5 194.5q0 31 -6 62z" />
<glyph unicode="&#xf9;" horiz-adv-x="1202" d="M123 270q0 57 16 136l142 663h286l-137 -647q-4 -23 -7 -43.5t-3 -38.5q0 -68 31.5 -100.5t91.5 -32.5q55 0 93 15.5t79 47.5q35 27 64.5 70t39.5 96l133 633h287l-225 -1069h-279l31 147q-78 -96 -161 -138t-177 -42q-150 0 -227.5 80t-77.5 223zM487 1534h314l180 -317 h-256z" />
<glyph unicode="&#xfa;" horiz-adv-x="1202" d="M123 270q0 57 16 136l142 663h286l-137 -647q-4 -23 -7 -43.5t-3 -38.5q0 -68 31.5 -100.5t91.5 -32.5q55 0 93 15.5t79 47.5q35 27 64.5 70t39.5 96l133 633h287l-225 -1069h-279l31 147q-78 -96 -161 -138t-177 -42q-150 0 -227.5 80t-77.5 223zM571 1217l312 317h338 l-371 -317h-279z" />
<glyph unicode="&#xfb;" horiz-adv-x="1202" d="M123 270q0 57 16 136l142 663h286l-137 -647q-4 -23 -7 -43.5t-3 -38.5q0 -68 31.5 -100.5t91.5 -32.5q55 0 93 15.5t79 47.5q35 27 64.5 70t39.5 96l133 633h287l-225 -1069h-279l31 147q-78 -96 -161 -138t-177 -42q-150 0 -227.5 80t-77.5 223zM405 1217l306 317h288 l187 -317h-246l-107 169l-182 -169h-246z" />
<glyph unicode="&#xfc;" horiz-adv-x="1202" d="M123 270q0 57 16 136l142 663h286l-137 -647q-4 -23 -7 -43.5t-3 -38.5q0 -68 31.5 -100.5t91.5 -32.5q55 0 93 15.5t79 47.5q35 27 64.5 70t39.5 96l133 633h287l-225 -1069h-279l31 147q-78 -96 -161 -138t-177 -42q-150 0 -227.5 80t-77.5 223zM440 1245l53 256h267 l-54 -256h-266zM854 1245l53 256h266l-53 -256h-266z" />
<glyph unicode="&#xfd;" horiz-adv-x="1161" d="M-8 -360l74 213q25 -8 54.5 -14.5t63.5 -6.5q57 0 95 31t77 98l56 96l-232 1012h320l108 -702l375 702h326l-664 -1100q-55 -92 -102 -160.5t-98.5 -114.5t-114 -68.5t-148.5 -22.5q-53 0 -98 9t-92 28zM557 1217l312 317h338l-371 -317h-279z" />
<glyph unicode="&#xfe;" horiz-adv-x="1275" d="M-18 -397l393 1859h287l-113 -526q55 74 139 120t189 46q94 0 164.5 -36t116.5 -99.5t68.5 -147.5t22.5 -180q0 -145 -41 -269t-110.5 -213t-163.5 -139.5t-205 -50.5q-123 0 -205 42t-141 138l-117 -544h-284zM446 426q0 -39 8.5 -75t26.5 -64q25 -41 71 -64.5 t112 -23.5q70 0 124 36.5t89.5 98t54 141.5t18.5 166q0 109 -51 168t-129 59q-109 0 -190 -73q-41 -35 -69 -85.5t-38 -103.5l-16 -74q-6 -29 -8.5 -54t-2.5 -52z" />
<glyph unicode="&#xff;" horiz-adv-x="1161" d="M-8 -360l74 213q25 -8 54.5 -14.5t63.5 -6.5q57 0 95 31t77 98l56 96l-232 1012h320l108 -702l375 702h326l-664 -1100q-55 -92 -102 -160.5t-98.5 -114.5t-114 -68.5t-148.5 -22.5q-53 0 -98 9t-92 28zM418 1245l53 256h267l-54 -256h-266zM832 1245l53 256h266 l-53 -256h-266z" />
<glyph unicode="&#x100;" horiz-adv-x="1429" d="M-41 0l858 1462h291l240 -1462h-316l-45 338h-512l-188 -338h-328zM604 590h354l-67 524zM666 1618l49 227h635l-49 -227h-635z" />
<glyph unicode="&#x101;" horiz-adv-x="1148" d="M68 270q0 117 52 191t135 114.5t187.5 58t210.5 21.5l183 9l8 38q6 31 6 56q0 66 -41 98.5t-117 32.5q-90 0 -142 -27.5t-81 -101.5l-256 24q51 174 177 246t333 72q190 0 293.5 -84t105.5 -244q0 -63 -14 -127l-137 -647h-271l29 135q-39 -39 -76 -69.5t-77.5 -51 t-89 -31t-109.5 -10.5q-141 0 -226 75t-83 222zM356 295q0 -47 32 -77t89 -30q55 0 100.5 13.5t86.5 42.5q92 59 118 178l13 57l-140 -8q-88 -6 -145 -19.5t-91 -36t-48.5 -52t-14.5 -68.5zM438 1253l45 220h598l-45 -220h-598z" />
<glyph unicode="&#x102;" horiz-adv-x="1429" d="M-41 0l858 1462h291l240 -1462h-316l-45 338h-512l-188 -338h-328zM604 590h354l-67 524zM682 1815q0 43 8 83h209q-2 -10 -3 -23t-1 -24q0 -41 23.5 -67.5t70.5 -26.5q59 0 93 32t46 109h209q-25 -162 -112 -239.5t-257 -77.5q-131 0 -208.5 62.5t-77.5 171.5z" />
<glyph unicode="&#x103;" horiz-adv-x="1148" d="M68 270q0 117 52 191t135 114.5t187.5 58t210.5 21.5l183 9l8 38q6 31 6 56q0 66 -41 98.5t-117 32.5q-90 0 -142 -27.5t-81 -101.5l-256 24q51 174 177 246t333 72q190 0 293.5 -84t105.5 -244q0 -63 -14 -127l-137 -647h-271l29 135q-39 -39 -76 -69.5t-77.5 -51 t-89 -31t-109.5 -10.5q-141 0 -226 75t-83 222zM356 295q0 -47 32 -77t89 -30q55 0 100.5 13.5t86.5 42.5q92 59 118 178l13 57l-140 -8q-88 -6 -145 -19.5t-91 -36t-48.5 -52t-14.5 -68.5zM473 1444q0 43 9 84h200q-4 -14 -4 -25.5v-21.5q0 -47 28 -69.5t71 -22.5 q53 0 89 28.5t48 110.5h205q-25 -166 -118 -242t-245 -76q-131 0 -207 64.5t-76 169.5z" />
<glyph unicode="&#x104;" horiz-adv-x="1429" d="M-41 0l858 1462h291l240 -1462q-37 -18 -73 -39.5t-62.5 -45.5t-43 -47.5t-16.5 -47.5q0 -33 23.5 -43t54.5 -10q16 0 29.5 1t31.5 3l-37 -177q-47 -6 -102 -6q-41 0 -84 7.5t-78 26t-57.5 49t-22.5 77.5q0 82 49.5 140.5t149.5 111.5h-78l-45 338h-512l-188 -338h-328z M604 590h354l-67 524z" />
<glyph unicode="&#x105;" horiz-adv-x="1148" d="M68 270q0 117 52 191t135 114.5t187.5 58t210.5 21.5l183 9l8 38q6 31 6 56q0 66 -41 98.5t-117 32.5q-90 0 -142 -27.5t-81 -101.5l-256 24q51 174 177 246t333 72q190 0 293.5 -84t105.5 -244q0 -63 -14 -127l-137 -647q-78 -41 -134.5 -82t-56.5 -92q0 -33 24.5 -42 t55.5 -9h27.5t30.5 2l-37 -170q-43 -6 -99 -6q-41 0 -80.5 6t-73.5 22.5t-54.5 46t-20.5 76.5q0 78 49 137.5t146 110.5h-48l29 135q-39 -39 -76 -69.5t-77.5 -51t-89 -31t-109.5 -10.5q-141 0 -226 75t-83 222zM356 295q0 -47 32 -77t89 -30q55 0 100.5 13.5t86.5 42.5 q92 59 118 178l13 57l-140 -8q-88 -6 -145 -19.5t-91 -36t-48.5 -52t-14.5 -68.5z" />
<glyph unicode="&#x106;" horiz-adv-x="1460" d="M182 623q0 172 53.5 330.5t152.5 280.5t240.5 193.5t317.5 71.5q143 0 247.5 -37t173.5 -103.5t104.5 -159.5t44.5 -206l-304 -41q-8 68 -24.5 121t-49 89t-81.5 55.5t-121 19.5q-102 0 -182 -49t-135.5 -131t-85 -189.5t-29.5 -224.5q0 -86 14 -161.5t50 -132 t93.5 -90.5t143.5 -34q150 0 225.5 72t99.5 209h328q-25 -125 -73 -225.5t-126.5 -171t-195.5 -108.5t-279 -38q-160 0 -273.5 52.5t-187 142.5t-107.5 209.5t-34 255.5zM778 1581l322 297h346l-389 -297h-279z" />
<glyph unicode="&#x107;" horiz-adv-x="1165" d="M137 422q0 166 47 293t129 213t192.5 130t239.5 44q102 0 179 -29t128.5 -79t80 -120.5t34.5 -156.5l-288 -37q-8 94 -44 143t-126 49q-55 0 -105.5 -28.5t-88.5 -85t-59.5 -141.5t-21.5 -197q0 -98 47 -160.5t146 -62.5q180 0 217 190h291q-37 -209 -166 -314.5 t-373 -105.5q-106 0 -191.5 34t-144.5 93.5t-91 143.5t-32 184zM550 1217l312 317h338l-371 -317h-279z" />
<glyph unicode="&#x108;" horiz-adv-x="1460" d="M182 623q0 172 53.5 330.5t152.5 280.5t240.5 193.5t317.5 71.5q143 0 247.5 -37t173.5 -103.5t104.5 -159.5t44.5 -206l-304 -41q-8 68 -24.5 121t-49 89t-81.5 55.5t-121 19.5q-102 0 -182 -49t-135.5 -131t-85 -189.5t-29.5 -224.5q0 -86 14 -161.5t50 -132 t93.5 -90.5t143.5 -34q150 0 225.5 72t99.5 209h328q-25 -125 -73 -225.5t-126.5 -171t-195.5 -108.5t-279 -38q-160 0 -273.5 52.5t-187 142.5t-107.5 209.5t-34 255.5zM602 1581l305 297h289l191 -297h-246l-111 148l-182 -148h-246z" />
<glyph unicode="&#x109;" horiz-adv-x="1165" d="M137 422q0 166 47 293t129 213t192.5 130t239.5 44q102 0 179 -29t128.5 -79t80 -120.5t34.5 -156.5l-288 -37q-8 94 -44 143t-126 49q-55 0 -105.5 -28.5t-88.5 -85t-59.5 -141.5t-21.5 -197q0 -98 47 -160.5t146 -62.5q180 0 217 190h291q-37 -209 -166 -314.5 t-373 -105.5q-106 0 -191.5 34t-144.5 93.5t-91 143.5t-32 184zM379 1217l306 317h288l187 -317h-246l-107 169l-182 -169h-246z" />
<glyph unicode="&#x10a;" horiz-adv-x="1460" d="M182 623q0 172 53.5 330.5t152.5 280.5t240.5 193.5t317.5 71.5q143 0 247.5 -37t173.5 -103.5t104.5 -159.5t44.5 -206l-304 -41q-8 68 -24.5 121t-49 89t-81.5 55.5t-121 19.5q-102 0 -182 -49t-135.5 -131t-85 -189.5t-29.5 -224.5q0 -86 14 -161.5t50 -132 t93.5 -90.5t143.5 -34q150 0 225.5 72t99.5 209h328q-25 -125 -73 -225.5t-126.5 -171t-195.5 -108.5t-279 -38q-160 0 -273.5 52.5t-187 142.5t-107.5 209.5t-34 255.5zM830 1595l59 277h287l-60 -277h-286z" />
<glyph unicode="&#x10b;" horiz-adv-x="1165" d="M137 422q0 166 47 293t129 213t192.5 130t239.5 44q102 0 179 -29t128.5 -79t80 -120.5t34.5 -156.5l-288 -37q-8 94 -44 143t-126 49q-55 0 -105.5 -28.5t-88.5 -85t-59.5 -141.5t-21.5 -197q0 -98 47 -160.5t146 -62.5q180 0 217 190h291q-37 -209 -166 -314.5 t-373 -105.5q-106 0 -191.5 34t-144.5 93.5t-91 143.5t-32 184zM622 1243l56 260h270l-55 -260h-271z" />
<glyph unicode="&#x10c;" horiz-adv-x="1460" d="M182 623q0 172 53.5 330.5t152.5 280.5t240.5 193.5t317.5 71.5q143 0 247.5 -37t173.5 -103.5t104.5 -159.5t44.5 -206l-304 -41q-8 68 -24.5 121t-49 89t-81.5 55.5t-121 19.5q-102 0 -182 -49t-135.5 -131t-85 -189.5t-29.5 -224.5q0 -86 14 -161.5t50 -132 t93.5 -90.5t143.5 -34q150 0 225.5 72t99.5 209h328q-25 -125 -73 -225.5t-126.5 -171t-195.5 -108.5t-279 -38q-160 0 -273.5 52.5t-187 142.5t-107.5 209.5t-34 255.5zM660 1886h245l111 -147l182 147h246l-305 -297h-289z" />
<glyph unicode="&#x10d;" horiz-adv-x="1165" d="M137 422q0 166 47 293t129 213t192.5 130t239.5 44q102 0 179 -29t128.5 -79t80 -120.5t34.5 -156.5l-288 -37q-8 94 -44 143t-126 49q-55 0 -105.5 -28.5t-88.5 -85t-59.5 -141.5t-21.5 -197q0 -98 47 -160.5t146 -62.5q180 0 217 190h291q-37 -209 -166 -314.5 t-373 -105.5q-106 0 -191.5 34t-144.5 93.5t-91 143.5t-32 184zM426 1534h245l107 -170l182 170h246l-305 -317h-289z" />
<glyph unicode="&#x10e;" horiz-adv-x="1509" d="M88 0l309 1462h488q147 0 262 -48t194.5 -130t121.5 -191.5t42 -234.5q0 -199 -58 -357.5t-173 -270t-286 -171t-394 -59.5h-506zM446 260h187q143 0 247.5 43t172 122t100.5 186.5t33 236.5q0 74 -19.5 138.5t-59.5 112.5t-102.5 75.5t-146.5 27.5h-211zM535 1886h245 l111 -147l182 147h246l-305 -297h-289z" />
<glyph unicode="&#x10f;" horiz-adv-x="1273" d="M123 426q0 145 42 269t113.5 214t168.5 141.5t206 51.5q115 0 196 -42t140 -140l117 542h287l-312 -1462h-278l26 131q-61 -78 -140 -121t-177 -43q-96 0 -169 34t-122 95.5t-73.5 145.5t-24.5 184zM422 426q0 -45 11 -86t33.5 -71.5t59.5 -49t86 -18.5q106 0 189 75 q39 37 62.5 82t37.5 109l17 80q8 41 8 96q0 35 -9.5 70t-29.5 67q-25 41 -70 65.5t-110 24.5q-72 0 -125.5 -35.5t-88 -96t-53 -141.5t-18.5 -171zM1435 963l164 499h268l-221 -499h-211z" />
<glyph unicode="&#x110;" horiz-adv-x="1546" d="M100 629l54 252h157l123 581h488q147 0 261.5 -48t194.5 -130t122 -191.5t42 -234.5q0 -199 -58.5 -357.5t-173 -270t-285.5 -171t-394 -59.5h-506l133 629h-158zM483 260h187q143 0 247.5 43t172 122t100.5 186.5t33 236.5q0 74 -19.5 138.5t-59.5 112.5t-102.5 75.5 t-146.5 27.5h-211l-70 -321h314l-54 -252h-313z" />
<glyph unicode="&#x111;" horiz-adv-x="1286" d="M123 399q0 143 41 262t113.5 203t168.5 130t207 46q115 0 190 -38.5t134 -137.5l61 283h-319l37 176h319l31 139h287l-31 -139h137l-37 -176h-137l-244 -1147h-278l26 131q-61 -78 -140 -121t-177 -43q-90 0 -163 33t-123 90t-76.5 136t-26.5 173zM422 406q0 -35 11 -72 t33.5 -66.5t59.5 -48t86 -18.5q106 0 189 75q39 37 62.5 72t37.5 98l17 80q6 37 6 72q-2 31 -10.5 61.5t-26.5 59.5q-25 41 -70 65.5t-110 24.5q-72 0 -125.5 -30.5t-88 -84t-53 -127t-18.5 -161.5z" />
<glyph unicode="&#x112;" horiz-adv-x="1236" d="M88 0l309 1462h998l-56 -260h-692l-67 -319h651l-55 -262h-652l-78 -361h736l-84 -260h-1010zM594 1618l49 227h635l-49 -227h-635z" />
<glyph unicode="&#x113;" horiz-adv-x="1206" d="M137 422q0 162 45 289t125 214t190.5 132t243.5 45q100 0 180 -31t135.5 -84t84 -129t28.5 -164q0 -39 -4 -88t-16 -104l-8 -37h-717q-10 -135 46 -205t161 -70q86 0 137 31t74 113h278q-43 -180 -168 -273.5t-352 -93.5q-106 0 -192 33t-145.5 92.5t-92.5 143t-33 186.5 zM446 653h443q23 111 -27.5 172.5t-146.5 61.5q-41 0 -82 -10.5t-76 -37t-63.5 -71.5t-47.5 -115zM461 1253l45 220h598l-45 -220h-598z" />
<glyph unicode="&#x114;" horiz-adv-x="1236" d="M88 0l309 1462h998l-56 -260h-692l-67 -319h651l-55 -262h-652l-78 -361h736l-84 -260h-1010zM617 1815q0 43 8 83h209q-2 -10 -3 -23t-1 -24q0 -41 23.5 -67.5t70.5 -26.5q59 0 93 32t46 109h209q-25 -162 -112 -239.5t-257 -77.5q-131 0 -208.5 62.5t-77.5 171.5z" />
<glyph unicode="&#x115;" horiz-adv-x="1206" d="M137 422q0 162 45 289t125 214t190.5 132t243.5 45q100 0 180 -31t135.5 -84t84 -129t28.5 -164q0 -39 -4 -88t-16 -104l-8 -37h-717q-10 -135 46 -205t161 -70q86 0 137 31t74 113h278q-43 -180 -168 -273.5t-352 -93.5q-106 0 -192 33t-145.5 92.5t-92.5 143t-33 186.5 zM446 653h443q23 111 -27.5 172.5t-146.5 61.5q-41 0 -82 -10.5t-76 -37t-63.5 -71.5t-47.5 -115zM483 1444q0 43 9 84h200q-4 -14 -4 -25.5v-21.5q0 -47 28 -69.5t71 -22.5q53 0 89 28.5t48 110.5h205q-25 -166 -118 -242t-245 -76q-131 0 -207 64.5t-76 169.5z" />
<glyph unicode="&#x116;" horiz-adv-x="1236" d="M88 0l309 1462h998l-56 -260h-692l-67 -319h651l-55 -262h-652l-78 -361h736l-84 -260h-1010zM766 1595l59 277h287l-60 -277h-286z" />
<glyph unicode="&#x117;" horiz-adv-x="1206" d="M137 422q0 162 45 289t125 214t190.5 132t243.5 45q100 0 180 -31t135.5 -84t84 -129t28.5 -164q0 -39 -4 -88t-16 -104l-8 -37h-717q-10 -135 46 -205t161 -70q86 0 137 31t74 113h278q-43 -180 -168 -273.5t-352 -93.5q-106 0 -192 33t-145.5 92.5t-92.5 143t-33 186.5 zM446 653h443q23 111 -27.5 172.5t-146.5 61.5q-41 0 -82 -10.5t-76 -37t-63.5 -71.5t-47.5 -115zM616 1243l56 260h270l-55 -260h-271z" />
<glyph unicode="&#x118;" horiz-adv-x="1236" d="M88 0l309 1462h998l-56 -260h-692l-67 -319h651l-55 -262h-652l-78 -361h736l-84 -260q-37 -18 -73 -39.5t-62.5 -45.5t-43 -47.5t-16.5 -47.5q0 -33 23.5 -43t54.5 -10q16 0 29.5 1t31.5 3l-36 -177q-47 -6 -103 -6q-41 0 -84 7.5t-77.5 26t-57 49t-22.5 77.5 q0 82 49 140.5t149 111.5h-772z" />
<glyph unicode="&#x119;" horiz-adv-x="1206" d="M137 422q0 162 45 289t125 214t190.5 132t243.5 45q100 0 180 -31t135.5 -84t84 -129t28.5 -164q0 -39 -4 -88t-16 -104l-8 -37h-717q-10 -135 46 -205t161 -70q86 0 137 31t74 113h278q-31 -127 -101.5 -211t-187.5 -123q-78 -41 -134 -82t-56 -92q0 -33 24.5 -42 t55.5 -9h27.5t29.5 2l-37 -170q-43 -6 -98 -6q-41 0 -81 6t-73.5 22.5t-54 46t-20.5 76.5q0 127 139 217q-195 14 -305.5 136t-110.5 317zM446 653h443q23 111 -27.5 172.5t-146.5 61.5q-41 0 -82 -10.5t-76 -37t-63.5 -71.5t-47.5 -115z" />
<glyph unicode="&#x11a;" horiz-adv-x="1236" d="M88 0l309 1462h998l-56 -260h-692l-67 -319h651l-55 -262h-652l-78 -361h736l-84 -260h-1010zM582 1886h245l111 -147l182 147h246l-305 -297h-289z" />
<glyph unicode="&#x11b;" horiz-adv-x="1206" d="M137 422q0 162 45 289t125 214t190.5 132t243.5 45q100 0 180 -31t135.5 -84t84 -129t28.5 -164q0 -39 -4 -88t-16 -104l-8 -37h-717q-10 -135 46 -205t161 -70q86 0 137 31t74 113h278q-43 -180 -168 -273.5t-352 -93.5q-106 0 -192 33t-145.5 92.5t-92.5 143t-33 186.5 zM430 1534h245l107 -170l182 170h246l-305 -317h-289zM446 653h443q23 111 -27.5 172.5t-146.5 61.5q-41 0 -82 -10.5t-76 -37t-63.5 -71.5t-47.5 -115z" />
<glyph unicode="&#x11c;" horiz-adv-x="1486" d="M182 618q0 174 53.5 334t155 281t247.5 193.5t331 72.5q254 0 388 -119.5t152 -332.5l-299 -41q-20 127 -81.5 180t-184.5 53q-106 0 -189 -49t-139.5 -131t-86 -191.5t-29.5 -228.5q0 -84 15 -160t52 -133t97.5 -90t148.5 -33t156.5 15.5t132.5 56.5l53 252h-278l55 254 h561l-139 -641q-94 -86 -237.5 -141.5t-323.5 -55.5q-162 0 -278 51.5t-189.5 140.5t-108.5 208.5t-35 254.5zM606 1581l305 297h289l191 -297h-246l-111 148l-182 -148h-246z" />
<glyph unicode="&#x11d;" horiz-adv-x="1275" d="M53 -68h291q12 -74 57 -101.5t152 -27.5q76 0 125 30t78.5 79t46 111.5t28.5 128.5l7 26q-66 -78 -143 -112.5t-179 -34.5q-186 0 -286.5 115.5t-98.5 318.5q0 135 43 252t113.5 203t164 134t197.5 48q123 0 209 -42t146 -140l32 149h277l-197 -919q-29 -133 -67.5 -239 t-104 -179.5t-166 -112.5t-250.5 -39q-129 0 -218 25.5t-145 72t-83 111t-29 143.5zM430 465q0 -104 50 -155.5t134 -51.5q47 0 95.5 15.5t89.5 48.5t70.5 81t39.5 99l13 55q8 35 8 76q0 51 -10.5 89t-26.5 60q-25 41 -69 64.5t-113 23.5q-72 0 -124 -36.5t-87 -95 t-52.5 -131t-17.5 -142.5zM462 1217l306 317h288l187 -317h-246l-107 169l-182 -169h-246z" />
<glyph unicode="&#x11e;" horiz-adv-x="1486" d="M182 618q0 174 53.5 334t155 281t247.5 193.5t331 72.5q254 0 388 -119.5t152 -332.5l-299 -41q-20 127 -81.5 180t-184.5 53q-106 0 -189 -49t-139.5 -131t-86 -191.5t-29.5 -228.5q0 -84 15 -160t52 -133t97.5 -90t148.5 -33t156.5 15.5t132.5 56.5l53 252h-278l55 254 h561l-139 -641q-94 -86 -237.5 -141.5t-323.5 -55.5q-162 0 -278 51.5t-189.5 140.5t-108.5 208.5t-35 254.5zM693 1815q0 43 8 83h209q-2 -10 -3 -23t-1 -24q0 -41 23.5 -67.5t70.5 -26.5q59 0 93 32t46 109h209q-25 -162 -112 -239.5t-257 -77.5q-131 0 -208.5 62.5 t-77.5 171.5z" />
<glyph unicode="&#x11f;" horiz-adv-x="1275" d="M53 -68h291q12 -74 57 -101.5t152 -27.5q76 0 125 30t78.5 79t46 111.5t28.5 128.5l7 26q-66 -78 -143 -112.5t-179 -34.5q-186 0 -286.5 115.5t-98.5 318.5q0 135 43 252t113.5 203t164 134t197.5 48q123 0 209 -42t146 -140l32 149h277l-197 -919q-29 -133 -67.5 -239 t-104 -179.5t-166 -112.5t-250.5 -39q-129 0 -218 25.5t-145 72t-83 111t-29 143.5zM430 465q0 -104 50 -155.5t134 -51.5q47 0 95.5 15.5t89.5 48.5t70.5 81t39.5 99l13 55q8 35 8 76q0 51 -10.5 89t-26.5 60q-25 41 -69 64.5t-113 23.5q-72 0 -124 -36.5t-87 -95 t-52.5 -131t-17.5 -142.5zM532 1444q0 43 9 84h200q-4 -14 -4 -25.5v-21.5q0 -47 28 -69.5t71 -22.5q53 0 89 28.5t48 110.5h205q-25 -166 -118 -242t-245 -76q-131 0 -207 64.5t-76 169.5z" />
<glyph unicode="&#x120;" horiz-adv-x="1486" d="M182 618q0 174 53.5 334t155 281t247.5 193.5t331 72.5q254 0 388 -119.5t152 -332.5l-299 -41q-20 127 -81.5 180t-184.5 53q-106 0 -189 -49t-139.5 -131t-86 -191.5t-29.5 -228.5q0 -84 15 -160t52 -133t97.5 -90t148.5 -33t156.5 15.5t132.5 56.5l53 252h-278l55 254 h561l-139 -641q-94 -86 -237.5 -141.5t-323.5 -55.5q-162 0 -278 51.5t-189.5 140.5t-108.5 208.5t-35 254.5zM824 1595l59 277h287l-60 -277h-286z" />
<glyph unicode="&#x121;" horiz-adv-x="1275" d="M53 -68h291q12 -74 57 -101.5t152 -27.5q76 0 125 30t78.5 79t46 111.5t28.5 128.5l7 26q-66 -78 -143 -112.5t-179 -34.5q-186 0 -286.5 115.5t-98.5 318.5q0 135 43 252t113.5 203t164 134t197.5 48q123 0 209 -42t146 -140l32 149h277l-197 -919q-29 -133 -67.5 -239 t-104 -179.5t-166 -112.5t-250.5 -39q-129 0 -218 25.5t-145 72t-83 111t-29 143.5zM430 465q0 -104 50 -155.5t134 -51.5q47 0 95.5 15.5t89.5 48.5t70.5 81t39.5 99l13 55q8 35 8 76q0 51 -10.5 89t-26.5 60q-25 41 -69 64.5t-113 23.5q-72 0 -124 -36.5t-87 -95 t-52.5 -131t-17.5 -142.5zM651 1243l56 260h270l-55 -260h-271z" />
<glyph unicode="&#x122;" horiz-adv-x="1486" d="M182 618q0 174 53.5 334t155 281t247.5 193.5t331 72.5q254 0 388 -119.5t152 -332.5l-299 -41q-20 127 -81.5 180t-184.5 53q-106 0 -189 -49t-139.5 -131t-86 -191.5t-29.5 -228.5q0 -84 15 -160t52 -133t97.5 -90t148.5 -33t156.5 15.5t132.5 56.5l53 252h-278l55 254 h561l-139 -641q-94 -86 -237.5 -141.5t-323.5 -55.5q-162 0 -278 51.5t-189.5 140.5t-108.5 208.5t-35 254.5zM360 -465l236 330h321l-294 -330h-263z" />
<glyph unicode="&#x123;" horiz-adv-x="1275" d="M53 -68h291q12 -74 57 -101.5t152 -27.5q76 0 125 30t78.5 79t46 111.5t28.5 128.5l7 26q-66 -78 -143 -112.5t-179 -34.5q-186 0 -286.5 115.5t-98.5 318.5q0 135 43 252t113.5 203t164 134t197.5 48q123 0 209 -42t146 -140l32 149h277l-197 -919q-29 -133 -67.5 -239 t-104 -179.5t-166 -112.5t-250.5 -39q-129 0 -218 25.5t-145 72t-83 111t-29 143.5zM430 465q0 -104 50 -155.5t134 -51.5q47 0 95.5 15.5t89.5 48.5t70.5 81t39.5 99l13 55q8 35 8 76q0 51 -10.5 89t-26.5 60q-25 41 -69 64.5t-113 23.5q-72 0 -124 -36.5t-87 -95 t-52.5 -131t-17.5 -142.5zM643 1217l281 317h245l-221 -317h-305z" />
<glyph unicode="&#x124;" horiz-adv-x="1488" d="M29 0l309 1462h305l-118 -565h579l119 565h305l-309 -1462h-305l129 614h-580l-129 -614h-305zM627 1581l305 297h289l191 -297h-246l-111 148l-182 -148h-246z" />
<glyph unicode="&#x125;" d="M66 0l309 1462h287l-113 -528q76 90 157.5 129t174.5 39q150 0 229.5 -81t79.5 -226q0 -66 -14 -131l-142 -664h-286l135 639q10 51 10 84q0 72 -34 105.5t-93 33.5q-55 0 -96 -15.5t-82 -47.5q-37 -29 -63.5 -69t-37.5 -87l-135 -643h-286zM418 1581l305 297h289 l191 -297h-246l-111 148l-182 -148h-246z" />
<glyph unicode="&#x126;" horiz-adv-x="1562" d="M125 0l221 1053h-158l50 231h157l39 178h305l-39 -178h580l39 178h305l-39 -178h162l-49 -231h-162l-221 -1053h-305l123 584h-580l-123 -584h-305zM612 866h580l39 187h-580z" />
<glyph unicode="&#x127;" horiz-adv-x="1220" d="M74 0l241 1147h-133l37 176h133l31 139h287l-31 -139h326l-37 -176h-326l-57 -275q76 90 157.5 129t174.5 39q150 0 229.5 -80.5t79.5 -226.5q0 -66 -15 -131l-129 -602h-286l123 578q8 39 8 79q0 72 -33 108t-92 36q-55 0 -96 -15.5t-82 -48.5q-37 -29 -63.5 -68.5 t-37.5 -86.5l-123 -582h-286z" />
<glyph unicode="&#x128;" horiz-adv-x="604" d="M88 0l309 1462h305l-309 -1462h-305zM176 1583q12 158 80.5 224.5t181.5 66.5q39 0 74.5 -14.5t66.5 -31t58.5 -30.5t52.5 -14q43 0 66.5 15.5t29.5 66.5h203q-12 -158 -80 -223.5t-180 -65.5q-41 0 -76 14.5t-65.5 31.5t-57.5 31.5t-51 14.5q-43 0 -68.5 -17.5 t-32.5 -68.5h-202z" />
<glyph unicode="&#x129;" horiz-adv-x="544" d="M68 0l227 1069h287l-228 -1069h-286zM69 1233q12 158 78 224.5t178 66.5q39 0 74 -14.5t65.5 -31t58 -30.5t52.5 -14q43 0 67.5 15t30.5 67h193q-12 -158 -78 -223.5t-178 -65.5q-41 0 -76 14t-64.5 31.5t-56 32t-51.5 14.5q-43 0 -68.5 -17.5t-31.5 -68.5h-193z" />
<glyph unicode="&#x12a;" horiz-adv-x="604" d="M88 0l309 1462h305l-309 -1462h-305zM252 1618l49 227h635l-49 -227h-635z" />
<glyph unicode="&#x12b;" horiz-adv-x="544" d="M68 0l227 1069h287l-228 -1069h-286zM153 1253l45 220h598l-45 -220h-598z" />
<glyph unicode="&#x12c;" horiz-adv-x="604" d="M88 0l309 1462h305l-309 -1462h-305zM273 1815q0 43 8 83h209q-2 -10 -3 -23t-1 -24q0 -41 23.5 -67.5t70.5 -26.5q59 0 93 32t46 109h209q-25 -162 -112 -239.5t-257 -77.5q-131 0 -208.5 62.5t-77.5 171.5z" />
<glyph unicode="&#x12d;" horiz-adv-x="544" d="M68 0l227 1069h287l-228 -1069h-286zM172 1444q0 43 9 84h200q-4 -14 -4 -25.5v-21.5q0 -47 28 -69.5t71 -22.5q53 0 89 28.5t48 110.5h205q-25 -166 -118 -242t-245 -76q-131 0 -207 64.5t-76 169.5z" />
<glyph unicode="&#x12e;" horiz-adv-x="604" d="M-43 -252q0 82 49 140.5t150 111.5h-68l309 1462h305l-309 -1462q-37 -18 -72.5 -39.5t-62.5 -45.5t-43 -47.5t-16 -47.5q0 -33 23.5 -43t53.5 -10q16 0 29.5 1t32.5 3l-37 -177q-47 -6 -102 -6q-41 0 -84 7.5t-78 26t-57.5 49t-22.5 77.5z" />
<glyph unicode="&#x12f;" horiz-adv-x="544" d="M-63 -248q0 78 49 137.5t145 110.5h-63l227 1069h287l-228 -1069q-78 -41 -134 -82t-56 -92q0 -33 24.5 -42t55.5 -9h27.5t29.5 2l-37 -170q-43 -6 -98 -6q-41 0 -81 6t-74 22.5t-54 46t-20 76.5zM315 1204l56 258h295l-56 -258h-295z" />
<glyph unicode="&#x130;" horiz-adv-x="604" d="M88 0l309 1462h305l-309 -1462h-305zM428 1595l59 277h287l-60 -277h-286z" />
<glyph unicode="&#x131;" horiz-adv-x="544" d="M68 0l227 1069h287l-228 -1069h-286z" />
<glyph unicode="&#x132;" horiz-adv-x="1912" d="M88 0l309 1462h305l-309 -1462h-305zM714 399q0 25 2.5 50.5t6.5 54.5h303q-2 -18 -2 -31.5v-30.5q0 -94 45 -155.5t168 -61.5q68 0 114.5 21.5t80.5 61.5t54.5 97.5t36.5 126.5l199 930h305l-207 -987q-29 -137 -79 -234.5t-124.5 -159t-174 -90t-228.5 -28.5 q-109 0 -200 27.5t-157.5 83t-104.5 136.5t-38 189z" />
<glyph unicode="&#x133;" horiz-adv-x="1089" d="M68 0l227 1069h287l-228 -1069h-286zM271 -334l81 211q25 -10 57 -17t66 -7q53 0 85 29.5t51 113.5l229 1073h287l-240 -1116q-20 -92 -50 -156.5t-75 -103.5t-107.5 -56.5t-146.5 -17.5q-66 0 -125 12.5t-112 34.5zM315 1204l56 258h295l-56 -258h-295zM860 1204l56 258 h295l-56 -258h-295z" />
<glyph unicode="&#x134;" horiz-adv-x="1302" d="M104 399q0 25 2.5 50.5t6.5 54.5h303q-2 -18 -2 -31.5v-30.5q0 -94 45 -155.5t168 -61.5q68 0 114.5 21.5t80.5 61.5t54.5 97.5t36.5 126.5l199 930h305l-207 -987q-29 -137 -79 -234.5t-124.5 -159t-174 -90t-228.5 -28.5q-109 0 -200 27.5t-157.5 83t-104.5 136.5 t-38 189zM885 1581l305 297h289l191 -297h-246l-111 148l-182 -148h-246z" />
<glyph unicode="&#x135;" horiz-adv-x="544" d="M-274 -334l81 211q25 -10 57 -17t66 -7q53 0 85 29.5t51 113.5l229 1073h287l-240 -1116q-20 -92 -50 -156.5t-75 -103.5t-107.5 -56.5t-146.5 -17.5q-66 0 -125 12.5t-112 34.5zM77 1217l306 317h288l187 -317h-246l-107 169l-182 -169h-246z" />
<glyph unicode="&#x136;" horiz-adv-x="1382" d="M88 0l309 1462h308l-121 -567l643 567h350l-606 -559l350 -903h-326l-262 725l-225 -190l-113 -535h-307zM284 -465l236 330h321l-294 -330h-263z" />
<glyph unicode="&#x137;" horiz-adv-x="1181" d="M66 0l309 1462h280l-159 -760l471 367h348l-469 -379l268 -690h-293l-198 541l-193 -144l-84 -397h-280zM168 -453l221 318h305l-280 -318h-246z" />
<glyph unicode="&#x138;" horiz-adv-x="1181" d="M66 0l225 1069h280l-88 -414l498 414h334l-477 -414l280 -655h-303l-194 504l-201 -156l-74 -348h-280z" />
<glyph unicode="&#x139;" horiz-adv-x="1196" d="M88 0l309 1462h305l-253 -1200h692l-88 -262h-965zM395 1581l322 297h346l-389 -297h-279z" />
<glyph unicode="&#x13a;" horiz-adv-x="544" d="M68 0l309 1462h287l-310 -1462h-286zM368 1581l322 297h346l-389 -297h-279z" />
<glyph unicode="&#x13b;" horiz-adv-x="1196" d="M88 0l309 1462h305l-253 -1200h692l-88 -262h-965zM165 -465l236 330h321l-294 -330h-263z" />
<glyph unicode="&#x13c;" horiz-adv-x="544" d="M-188 -453l221 318h305l-280 -318h-246zM68 0l309 1462h287l-310 -1462h-286z" />
<glyph unicode="&#x13d;" horiz-adv-x="1196" d="M88 0l309 1462h305l-253 -1200h692l-88 -262h-965zM846 963l164 499h268l-221 -499h-211z" />
<glyph unicode="&#x13e;" horiz-adv-x="544" d="M68 0l309 1462h287l-310 -1462h-286zM694 963l164 499h268l-221 -499h-211z" />
<glyph unicode="&#x13f;" horiz-adv-x="1196" d="M88 0l309 1462h305l-253 -1200h692l-88 -262h-965zM809 659l70 330h293l-70 -330h-293z" />
<glyph unicode="&#x140;" horiz-adv-x="892" d="M68 0l309 1462h287l-310 -1462h-286zM645 598l70 330h293l-70 -330h-293z" />
<glyph unicode="&#x141;" horiz-adv-x="1232" d="M31 344l57 274l191 111l155 733h305l-114 -538l376 221l-55 -273l-379 -221l-82 -389h693l-88 -262h-965l96 455z" />
<glyph unicode="&#x142;" horiz-adv-x="657" d="M41 485l49 244l213 111l131 622h287l-98 -465l206 111l-49 -242l-209 -112l-159 -754h-287l127 598z" />
<glyph unicode="&#x143;" horiz-adv-x="1472" d="M88 0l309 1462h260l412 -966l205 966h297l-309 -1462h-256l-418 961l-203 -961h-297zM776 1581l322 297h346l-389 -297h-279z" />
<glyph unicode="&#x144;" d="M66 0l225 1069h278l-30 -147q78 96 162.5 138t179.5 42q150 0 229.5 -81t79.5 -226q0 -66 -14 -131l-142 -664h-286l135 639q10 51 10 84q0 72 -34 105.5t-93 33.5q-55 0 -96 -15.5t-82 -47.5q-37 -29 -63.5 -69t-37.5 -87l-135 -643h-286zM589 1217l312 317h338 l-371 -317h-279z" />
<glyph unicode="&#x145;" horiz-adv-x="1472" d="M88 0l309 1462h260l412 -966l205 966h297l-309 -1462h-256l-418 961l-203 -961h-297zM299 -465l236 330h321l-294 -330h-263z" />
<glyph unicode="&#x146;" d="M66 0l225 1069h278l-30 -147q78 96 162.5 138t179.5 42q150 0 229.5 -81t79.5 -226q0 -66 -14 -131l-142 -664h-286l135 639q10 51 10 84q0 72 -34 105.5t-93 33.5q-55 0 -96 -15.5t-82 -47.5q-37 -29 -63.5 -69t-37.5 -87l-135 -643h-286zM166 -453l221 318h305 l-280 -318h-246z" />
<glyph unicode="&#x147;" horiz-adv-x="1472" d="M88 0l309 1462h260l412 -966l205 966h297l-309 -1462h-256l-418 961l-203 -961h-297zM637 1886h245l111 -147l182 147h246l-305 -297h-289z" />
<glyph unicode="&#x148;" d="M66 0l225 1069h278l-30 -147q78 96 162.5 138t179.5 42q150 0 229.5 -81t79.5 -226q0 -66 -14 -131l-142 -664h-286l135 639q10 51 10 84q0 72 -34 105.5t-93 33.5q-55 0 -96 -15.5t-82 -47.5q-37 -29 -63.5 -69t-37.5 -87l-135 -643h-286zM453 1534h245l107 -170 l182 170h246l-305 -317h-289z" />
<glyph unicode="&#x149;" horiz-adv-x="1454" d="M140 942l178 520h278l-237 -520h-219zM308 0l225 1069h278l-30 -147q78 96 162.5 138t179.5 42q150 0 229.5 -81t79.5 -226q0 -66 -14 -131l-142 -664h-286l135 639q10 51 10 84q0 72 -34 105.5t-93 33.5q-55 0 -96 -15.5t-82 -47.5q-37 -29 -63.5 -69t-37.5 -87 l-135 -643h-286z" />
<glyph unicode="&#x14a;" horiz-adv-x="1472" d="M88 0l309 1462h260l412 -966l205 966h297l-299 -1407q-31 -139 -79 -231t-116.5 -146.5t-157 -76t-196.5 -21.5q-84 0 -160 17.5t-133 40.5l92 241q49 -16 93 -26.5t116 -10.5q90 0 149.5 48.5t90.5 187.5l-383 883l-203 -961h-297z" />
<glyph unicode="&#x14b;" d="M66 0l225 1069h278l-30 -147q78 96 162.5 138t179.5 42q150 0 229.5 -81t79.5 -226q0 -66 -14 -131l-152 -711q-20 -92 -50 -156.5t-75 -103.5t-107.5 -56.5t-146.5 -17.5q-66 0 -125 12.5t-112 34.5l81 211q25 -10 57 -17t66 -7q53 0 86 29.5t50 113.5l135 643 q10 51 10 84q0 72 -34 105.5t-93 33.5q-55 0 -96 -15.5t-82 -47.5q-37 -29 -63.5 -69t-37.5 -87l-135 -643h-286z" />
<glyph unicode="&#x14c;" horiz-adv-x="1597" d="M186 578q0 176 53.5 341.5t157 294.5t256 207t351.5 78q141 0 250.5 -46t184 -127t113.5 -193.5t39 -245.5q0 -178 -51 -345t-152.5 -296t-254 -206t-353.5 -77q-141 0 -251.5 45t-186.5 127t-116 194.5t-40 248.5zM502 592q0 -170 74.5 -268.5t224.5 -98.5 q123 0 212 57.5t147.5 149.5t87 208t28.5 232q0 166 -73.5 265.5t-223.5 99.5q-123 0 -213 -57.5t-148.5 -149.5t-87 -207.5t-28.5 -230.5zM752 1618l49 227h635l-49 -227h-635z" />
<glyph unicode="&#x14d;" horiz-adv-x="1261" d="M137 420q0 160 47 287t132 214t200 134t250 47q109 0 196 -36t147 -97.5t93 -143.5t33 -176q0 -164 -46 -291t-129 -214t-199 -132t-253 -45q-109 0 -195.5 36t-148 97.5t-94.5 143.5t-33 176zM434 422q0 -106 50.5 -165.5t142.5 -59.5q63 0 119.5 28.5t99.5 85 t67.5 140.5t24.5 194q0 106 -50.5 166.5t-142.5 60.5q-63 0 -119.5 -28.5t-99.5 -86t-67.5 -141.5t-24.5 -194zM498 1253l45 220h598l-45 -220h-598z" />
<glyph unicode="&#x14e;" horiz-adv-x="1597" d="M186 578q0 176 53.5 341.5t157 294.5t256 207t351.5 78q141 0 250.5 -46t184 -127t113.5 -193.5t39 -245.5q0 -178 -51 -345t-152.5 -296t-254 -206t-353.5 -77q-141 0 -251.5 45t-186.5 127t-116 194.5t-40 248.5zM502 592q0 -170 74.5 -268.5t224.5 -98.5 q123 0 212 57.5t147.5 149.5t87 208t28.5 232q0 166 -73.5 265.5t-223.5 99.5q-123 0 -213 -57.5t-148.5 -149.5t-87 -207.5t-28.5 -230.5zM725 1815q0 43 8 83h209q-2 -10 -3 -23t-1 -24q0 -41 23.5 -67.5t70.5 -26.5q59 0 93 32t46 109h209q-25 -162 -112 -239.5 t-257 -77.5q-131 0 -208.5 62.5t-77.5 171.5z" />
<glyph unicode="&#x14f;" horiz-adv-x="1261" d="M137 420q0 160 47 287t132 214t200 134t250 47q109 0 196 -36t147 -97.5t93 -143.5t33 -176q0 -164 -46 -291t-129 -214t-199 -132t-253 -45q-109 0 -195.5 36t-148 97.5t-94.5 143.5t-33 176zM434 422q0 -106 50.5 -165.5t142.5 -59.5q63 0 119.5 28.5t99.5 85 t67.5 140.5t24.5 194q0 106 -50.5 166.5t-142.5 60.5q-63 0 -119.5 -28.5t-99.5 -86t-67.5 -141.5t-24.5 -194zM512 1444q0 43 9 84h200q-4 -14 -4 -25.5v-21.5q0 -47 28 -69.5t71 -22.5q53 0 89 28.5t48 110.5h205q-25 -166 -118 -242t-245 -76q-131 0 -207 64.5t-76 169.5 z" />
<glyph unicode="&#x150;" horiz-adv-x="1597" d="M186 578q0 176 53.5 341.5t157 294.5t256 207t351.5 78q141 0 250.5 -46t184 -127t113.5 -193.5t39 -245.5q0 -178 -51 -345t-152.5 -296t-254 -206t-353.5 -77q-141 0 -251.5 45t-186.5 127t-116 194.5t-40 248.5zM502 592q0 -170 74.5 -268.5t224.5 -98.5 q123 0 212 57.5t147.5 149.5t87 208t28.5 232q0 166 -73.5 265.5t-223.5 99.5q-123 0 -213 -57.5t-148.5 -149.5t-87 -207.5t-28.5 -230.5zM670 1581l309 297h323l-372 -297h-260zM1112 1581l309 297h324l-373 -297h-260z" />
<glyph unicode="&#x151;" horiz-adv-x="1261" d="M137 420q0 160 47 287t132 214t200 134t250 47q109 0 196 -36t147 -97.5t93 -143.5t33 -176q0 -164 -46 -291t-129 -214t-199 -132t-253 -45q-109 0 -195.5 36t-148 97.5t-94.5 143.5t-33 176zM434 422q0 -106 50.5 -165.5t142.5 -59.5q63 0 119.5 28.5t99.5 85 t67.5 140.5t24.5 194q0 106 -50.5 166.5t-142.5 60.5q-63 0 -119.5 -28.5t-99.5 -86t-67.5 -141.5t-24.5 -194zM463 1217l301 317h297l-361 -317h-237zM864 1217l301 317h297l-360 -317h-238z" />
<glyph unicode="&#x152;" horiz-adv-x="2174" d="M186 578q0 176 54.5 341.5t156 294.5t242.5 207t317 78q82 0 144.5 -17.5t108.5 -46t79 -66.5t60 -81l36 174h949l-56 -260h-653l-68 -319h613l-55 -262h-613l-78 -361h697l-84 -260h-961l27 125q-66 -72 -155 -117t-218 -45q-119 0 -218 45t-172 127t-113 194.5 t-40 248.5zM502 592q0 -170 73.5 -268.5t204.5 -98.5q111 0 196 54.5t142.5 145.5t87 208t29.5 239q0 172 -75 268.5t-202 96.5q-115 0 -199.5 -57.5t-142 -149.5t-86 -207.5t-28.5 -230.5z" />
<glyph unicode="&#x153;" horiz-adv-x="1966" d="M137 420q0 160 47 287t129 214t190.5 134t229.5 47q74 0 131.5 -16.5t100.5 -44t74.5 -66.5t56.5 -82q78 102 174 155.5t239 53.5q96 0 174 -31t132.5 -84t84 -129t29.5 -164q0 -39 -3 -82t-13 -92l-12 -55h-711v-35q0 -111 55 -175.5t146 -64.5q82 0 135 31t76 113h278 q-43 -186 -170 -276.5t-326 -90.5q-86 0 -146 17.5t-103 47t-73 65.5t-54 73q-82 -109 -182.5 -156t-235.5 -47q-104 0 -188.5 36t-142.5 97.5t-90 143.5t-32 176zM434 422q0 -106 50.5 -165.5t136.5 -59.5q63 0 119.5 28.5t99.5 85t67.5 140.5t24.5 194q0 106 -50.5 166.5 t-142.5 60.5q-61 0 -116.5 -28.5t-97.5 -86t-66.5 -141.5t-24.5 -194zM1212 653h437q20 111 -30 172.5t-140 61.5q-39 0 -79 -10.5t-75 -37t-64.5 -71.5t-48.5 -115z" />
<glyph unicode="&#x154;" horiz-adv-x="1337" d="M88 0l309 1462h500q143 0 238.5 -35.5t153 -94t82 -133.5t24.5 -152q0 -178 -91.5 -286t-238.5 -155l182 -606h-319l-144 549h-49h-231l-115 -549h-301zM559 803h246q59 0 110.5 11t89 39t59 74t21.5 113q0 33 -11 64t-38.5 54.5t-71.5 37.5t-112 14h-207zM665 1581 l322 297h346l-389 -297h-279z" />
<glyph unicode="&#x155;" horiz-adv-x="858" d="M66 0l225 1069h278l-30 -149q72 88 145.5 127.5t165.5 39.5q41 0 63.5 -4t40.5 -8l-73 -260q-23 6 -48.5 10t-64.5 4q-51 0 -97 -12t-83 -41q-47 -35 -70.5 -72.5t-34.5 -85.5l-131 -618h-286zM467 1217l312 317h338l-371 -317h-279z" />
<glyph unicode="&#x156;" horiz-adv-x="1337" d="M88 0l309 1462h500q143 0 238.5 -35.5t153 -94t82 -133.5t24.5 -152q0 -178 -91.5 -286t-238.5 -155l182 -606h-319l-144 549h-49h-231l-115 -549h-301zM245 -465l236 330h321l-294 -330h-263zM559 803h246q59 0 110.5 11t89 39t59 74t21.5 113q0 33 -11 64t-38.5 54.5 t-71.5 37.5t-112 14h-207z" />
<glyph unicode="&#x157;" horiz-adv-x="858" d="M-180 -453l221 318h305l-280 -318h-246zM66 0l225 1069h278l-30 -149q72 88 145.5 127.5t165.5 39.5q41 0 63.5 -4t40.5 -8l-73 -260q-23 6 -48.5 10t-64.5 4q-51 0 -97 -12t-83 -41q-47 -35 -70.5 -72.5t-34.5 -85.5l-131 -618h-286z" />
<glyph unicode="&#x158;" horiz-adv-x="1337" d="M88 0l309 1462h500q143 0 238.5 -35.5t153 -94t82 -133.5t24.5 -152q0 -178 -91.5 -286t-238.5 -155l182 -606h-319l-144 549h-49h-231l-115 -549h-301zM516 1886h245l111 -147l182 147h246l-305 -297h-289zM559 803h246q59 0 110.5 11t89 39t59 74t21.5 113q0 33 -11 64 t-38.5 54.5t-71.5 37.5t-112 14h-207z" />
<glyph unicode="&#x159;" horiz-adv-x="858" d="M66 0l225 1069h278l-30 -149q72 88 145.5 127.5t165.5 39.5q41 0 63.5 -4t40.5 -8l-73 -260q-23 6 -48.5 10t-64.5 4q-51 0 -97 -12t-83 -41q-47 -35 -70.5 -72.5t-34.5 -85.5l-131 -618h-286zM267 1534h245l107 -170l182 170h246l-305 -317h-289z" />
<glyph unicode="&#x15a;" horiz-adv-x="1320" d="M72 477h309q10 -129 86 -193.5t229 -64.5q141 0 199.5 59.5t58.5 147.5q0 55 -37.5 101t-132.5 67l-159 33q-205 41 -300.5 145.5t-95.5 245.5q0 125 43 216t123 149.5t191.5 87t251.5 28.5q115 0 211 -25.5t166.5 -80t113.5 -138.5t51 -200l-295 -37q-16 123 -78.5 177 t-185.5 54q-80 0 -132 -15t-83 -41t-43 -57.5t-12 -62.5q0 -78 43 -118t125 -58l164 -37q111 -25 187.5 -64.5t122.5 -91t66.5 -110.5t20.5 -127q0 -133 -41 -228.5t-120 -157t-191.5 -90t-253.5 -28.5q-115 0 -222.5 25.5t-190.5 86t-134 159t-55 243.5zM669 1581l322 297 h346l-389 -297h-279z" />
<glyph unicode="&#x15b;" horiz-adv-x="1099" d="M68 336h272q10 -86 63.5 -117t145.5 -31q96 0 142 28t46 93q0 39 -25.5 66.5t-93.5 42.5l-116 24q-88 18 -148.5 48t-97.5 68t-53.5 86t-16.5 104q0 90 36 156.5t99.5 110.5t152.5 65.5t194 21.5q78 0 152.5 -16.5t134 -54.5t99.5 -101.5t48 -157.5l-262 -33 q-4 33 -15.5 59.5t-32 47t-53 32t-82.5 11.5q-63 0 -100 -11.5t-56.5 -29t-24.5 -37.5t-5 -37q0 -45 32 -69.5t105 -40.5l109 -23q92 -18 152.5 -49t97.5 -71t51 -88t14 -103q0 -106 -40 -176t-108.5 -112t-160.5 -58.5t-195 -16.5q-90 0 -172 18.5t-145.5 61.5t-102 113.5 t-40.5 175.5zM510 1217l312 317h338l-371 -317h-279z" />
<glyph unicode="&#x15c;" horiz-adv-x="1320" d="M72 477h309q10 -129 86 -193.5t229 -64.5q141 0 199.5 59.5t58.5 147.5q0 55 -37.5 101t-132.5 67l-159 33q-205 41 -300.5 145.5t-95.5 245.5q0 125 43 216t123 149.5t191.5 87t251.5 28.5q115 0 211 -25.5t166.5 -80t113.5 -138.5t51 -200l-295 -37q-16 123 -78.5 177 t-185.5 54q-80 0 -132 -15t-83 -41t-43 -57.5t-12 -62.5q0 -78 43 -118t125 -58l164 -37q111 -25 187.5 -64.5t122.5 -91t66.5 -110.5t20.5 -127q0 -133 -41 -228.5t-120 -157t-191.5 -90t-253.5 -28.5q-115 0 -222.5 25.5t-190.5 86t-134 159t-55 243.5zM477 1581l305 297 h289l191 -297h-246l-111 148l-182 -148h-246z" />
<glyph unicode="&#x15d;" horiz-adv-x="1099" d="M68 336h272q10 -86 63.5 -117t145.5 -31q96 0 142 28t46 93q0 39 -25.5 66.5t-93.5 42.5l-116 24q-88 18 -148.5 48t-97.5 68t-53.5 86t-16.5 104q0 90 36 156.5t99.5 110.5t152.5 65.5t194 21.5q78 0 152.5 -16.5t134 -54.5t99.5 -101.5t48 -157.5l-262 -33 q-4 33 -15.5 59.5t-32 47t-53 32t-82.5 11.5q-63 0 -100 -11.5t-56.5 -29t-24.5 -37.5t-5 -37q0 -45 32 -69.5t105 -40.5l109 -23q92 -18 152.5 -49t97.5 -71t51 -88t14 -103q0 -106 -40 -176t-108.5 -112t-160.5 -58.5t-195 -16.5q-90 0 -172 18.5t-145.5 61.5t-102 113.5 t-40.5 175.5zM299 1217l306 317h288l187 -317h-246l-107 169l-182 -169h-246z" />
<glyph unicode="&#x15e;" horiz-adv-x="1320" d="M72 477h309q10 -129 86 -193.5t229 -64.5q141 0 199.5 59.5t58.5 147.5q0 55 -37.5 101t-132.5 67l-159 33q-205 41 -300.5 145.5t-95.5 245.5q0 125 43 216t123 149.5t191.5 87t251.5 28.5q115 0 211 -25.5t166.5 -80t113.5 -138.5t51 -200l-295 -37q-16 123 -78.5 177 t-185.5 54q-80 0 -132 -15t-83 -41t-43 -57.5t-12 -62.5q0 -78 43 -118t125 -58l164 -37q111 -25 187.5 -64.5t122.5 -91t66.5 -110.5t20.5 -127q0 -127 -39 -220t-111.5 -154.5t-178 -93.5t-238.5 -36l-31 -65q98 -16 137 -60.5t39 -95.5q0 -57 -23.5 -95t-65.5 -61.5 t-101.5 -33t-128.5 -9.5q-29 0 -65 3t-79 12l21 139q49 -8 80.5 -10t60.5 -2q53 0 75.5 17t22.5 50q0 25 -24.5 38t-83.5 13h-72l82 166q-98 12 -184 45t-152.5 93.5t-106.5 151.5t-42 218z" />
<glyph unicode="&#x15f;" horiz-adv-x="1099" d="M68 336h272q10 -86 63.5 -117t145.5 -31q96 0 142 28t46 93q0 39 -25.5 66.5t-93.5 42.5l-116 24q-88 18 -148.5 48t-97.5 68t-53.5 86t-16.5 104q0 90 36 156.5t99.5 110.5t152.5 65.5t194 21.5q78 0 152.5 -16.5t134 -54.5t99.5 -101.5t48 -157.5l-262 -33 q-4 33 -15.5 59.5t-32 47t-53 32t-82.5 11.5q-63 0 -100 -11.5t-56.5 -29t-24.5 -37.5t-5 -37q0 -45 32 -69.5t105 -40.5l109 -23q92 -18 152.5 -49t97.5 -71t51 -88t14 -103q0 -98 -33.5 -165t-93 -109t-139.5 -62.5t-172 -24.5l-33 -69q94 -14 130 -58.5t36 -93.5 q0 -111 -84 -151.5t-221 -40.5q-29 0 -63.5 3t-77.5 11l20 139q47 -8 79 -10t58 -2q53 0 75 15.5t22 45.5q0 25 -24 39.5t-83 14.5h-70l80 159q-76 8 -142.5 33t-116.5 68t-79.5 108.5t-31.5 155.5z" />
<glyph unicode="&#x160;" horiz-adv-x="1320" d="M72 477h309q10 -129 86 -193.5t229 -64.5q141 0 199.5 59.5t58.5 147.5q0 55 -37.5 101t-132.5 67l-159 33q-205 41 -300.5 145.5t-95.5 245.5q0 125 43 216t123 149.5t191.5 87t251.5 28.5q115 0 211 -25.5t166.5 -80t113.5 -138.5t51 -200l-295 -37q-16 123 -78.5 177 t-185.5 54q-80 0 -132 -15t-83 -41t-43 -57.5t-12 -62.5q0 -78 43 -118t125 -58l164 -37q111 -25 187.5 -64.5t122.5 -91t66.5 -110.5t20.5 -127q0 -133 -41 -228.5t-120 -157t-191.5 -90t-253.5 -28.5q-115 0 -222.5 25.5t-190.5 86t-134 159t-55 243.5zM529 1886h245 l111 -147l182 147h246l-305 -297h-289z" />
<glyph unicode="&#x161;" horiz-adv-x="1099" d="M68 336h272q10 -86 63.5 -117t145.5 -31q96 0 142 28t46 93q0 39 -25.5 66.5t-93.5 42.5l-116 24q-88 18 -148.5 48t-97.5 68t-53.5 86t-16.5 104q0 90 36 156.5t99.5 110.5t152.5 65.5t194 21.5q78 0 152.5 -16.5t134 -54.5t99.5 -101.5t48 -157.5l-262 -33 q-4 33 -15.5 59.5t-32 47t-53 32t-82.5 11.5q-63 0 -100 -11.5t-56.5 -29t-24.5 -37.5t-5 -37q0 -45 32 -69.5t105 -40.5l109 -23q92 -18 152.5 -49t97.5 -71t51 -88t14 -103q0 -106 -40 -176t-108.5 -112t-160.5 -58.5t-195 -16.5q-90 0 -172 18.5t-145.5 61.5t-102 113.5 t-40.5 175.5zM367 1534h245l107 -170l182 170h246l-305 -317h-289z" />
<glyph unicode="&#x162;" horiz-adv-x="1269" d="M233 1198l56 264h1188l-56 -264h-440l-254 -1198h-82l-47 -100q94 -14 130 -58.5t36 -93.5q0 -111 -84 -151.5t-221 -40.5q-29 0 -64 3t-78 11l21 139q47 -8 79 -10t58 -2q53 0 74.5 15.5t21.5 45.5q0 25 -23.5 39.5t-82.5 14.5h-70l94 188h-69l254 1198h-441z" />
<glyph unicode="&#x163;" horiz-adv-x="776" d="M141 846l47 223h168l62 285h287l-62 -285h246l-47 -223h-246l-102 -484q-8 -33 -9 -61q0 -55 29 -73.5t72 -18.5q29 0 62.5 5t58.5 11l41 -211q-59 -18 -114.5 -26t-115.5 -8l-37 -80q94 -14 130 -58.5t36 -93.5q0 -111 -84 -151.5t-221 -40.5q-29 0 -63.5 3t-77.5 11 l20 139q47 -8 79 -10t58 -2q53 0 75 15.5t22 45.5q0 25 -23.5 39.5t-83.5 14.5h-69l92 188q-86 27 -131 89.5t-45 166.5q0 59 14 119l100 471h-168z" />
<glyph unicode="&#x164;" horiz-adv-x="1269" d="M233 1198l56 264h1188l-56 -264h-440l-254 -1198h-307l254 1198h-441zM549 1886h245l111 -147l182 147h246l-305 -297h-289z" />
<glyph unicode="&#x165;" horiz-adv-x="776" d="M141 846l47 223h168l62 285h287l-62 -285h246l-47 -223h-246l-102 -484q-8 -33 -9 -61q0 -55 29 -73.5t72 -18.5q29 0 62.5 5t58.5 11l41 -211q-61 -20 -119 -27t-117 -7q-152 0 -234.5 68.5t-82.5 207.5q0 59 14 119l100 471h-168zM770 1188l131 348h242l-185 -348h-188 z" />
<glyph unicode="&#x166;" horiz-adv-x="1269" d="M233 1198l56 264h1188l-56 -264h-440l-80 -379h279l-56 -252h-278l-119 -567h-307l119 567h-279l55 252h279l80 379h-441z" />
<glyph unicode="&#x167;" horiz-adv-x="776" d="M55 442l49 224h166l39 180h-168l47 223h168l62 285h287l-62 -285h246l-47 -223h-246l-39 -180h248l-49 -224h-246l-16 -80q-8 -33 -9 -61q0 -55 29 -73.5t72 -18.5q29 0 62.5 5t58.5 11l41 -211q-61 -20 -119 -27t-117 -7q-152 0 -234.5 68.5t-82.5 207.5q0 59 14 119 l14 67h-168z" />
<glyph unicode="&#x168;" horiz-adv-x="1419" d="M160 424q0 84 20 174l182 864h306l-185 -870q-18 -80 -18 -139q0 -121 63.5 -174.5t182.5 -53.5q76 0 130 22.5t94 68.5t67.5 115t48.5 161l184 870h305l-184 -870q-35 -166 -89.5 -285t-134 -195.5t-189.5 -112.5t-253 -36q-117 0 -215 28.5t-167.5 85t-108.5 143.5 t-39 204zM592 1583q12 158 80.5 224.5t181.5 66.5q39 0 74.5 -14.5t66.5 -31t58.5 -30.5t52.5 -14q43 0 66.5 15.5t29.5 66.5h203q-12 -158 -80 -223.5t-180 -65.5q-41 0 -76 14.5t-65.5 31.5t-57.5 31.5t-51 14.5q-43 0 -68.5 -17.5t-32.5 -68.5h-202z" />
<glyph unicode="&#x169;" horiz-adv-x="1202" d="M123 270q0 57 16 136l142 663h286l-137 -647q-4 -23 -7 -43.5t-3 -38.5q0 -68 31.5 -100.5t91.5 -32.5q55 0 93 15.5t79 47.5q35 27 64.5 70t39.5 96l133 633h287l-225 -1069h-279l31 147q-78 -96 -161 -138t-177 -42q-150 0 -227.5 80t-77.5 223zM401 1233 q12 158 78 224.5t178 66.5q39 0 74 -14.5t65.5 -31t58 -30.5t52.5 -14q43 0 67.5 15t30.5 67h193q-12 -158 -78 -223.5t-178 -65.5q-41 0 -76 14t-64.5 31.5t-56 32t-51.5 14.5q-43 0 -68.5 -17.5t-31.5 -68.5h-193z" />
<glyph unicode="&#x16a;" horiz-adv-x="1419" d="M160 424q0 84 20 174l182 864h306l-185 -870q-18 -80 -18 -139q0 -121 63.5 -174.5t182.5 -53.5q76 0 130 22.5t94 68.5t67.5 115t48.5 161l184 870h305l-184 -870q-35 -166 -89.5 -285t-134 -195.5t-189.5 -112.5t-253 -36q-117 0 -215 28.5t-167.5 85t-108.5 143.5 t-39 204zM656 1618l49 227h635l-49 -227h-635z" />
<glyph unicode="&#x16b;" horiz-adv-x="1202" d="M123 270q0 57 16 136l142 663h286l-137 -647q-4 -23 -7 -43.5t-3 -38.5q0 -68 31.5 -100.5t91.5 -32.5q55 0 93 15.5t79 47.5q35 27 64.5 70t39.5 96l133 633h287l-225 -1069h-279l31 147q-78 -96 -161 -138t-177 -42q-150 0 -227.5 80t-77.5 223zM481 1253l45 220h598 l-45 -220h-598z" />
<glyph unicode="&#x16c;" horiz-adv-x="1419" d="M160 424q0 84 20 174l182 864h306l-185 -870q-18 -80 -18 -139q0 -121 63.5 -174.5t182.5 -53.5q76 0 130 22.5t94 68.5t67.5 115t48.5 161l184 870h305l-184 -870q-35 -166 -89.5 -285t-134 -195.5t-189.5 -112.5t-253 -36q-117 0 -215 28.5t-167.5 85t-108.5 143.5 t-39 204zM680 1815q0 43 8 83h209q-2 -10 -3 -23t-1 -24q0 -41 23.5 -67.5t70.5 -26.5q59 0 93 32t46 109h209q-25 -162 -112 -239.5t-257 -77.5q-131 0 -208.5 62.5t-77.5 171.5z" />
<glyph unicode="&#x16d;" horiz-adv-x="1202" d="M123 270q0 57 16 136l142 663h286l-137 -647q-4 -23 -7 -43.5t-3 -38.5q0 -68 31.5 -100.5t91.5 -32.5q55 0 93 15.5t79 47.5q35 27 64.5 70t39.5 96l133 633h287l-225 -1069h-279l31 147q-78 -96 -161 -138t-177 -42q-150 0 -227.5 80t-77.5 223zM495 1444q0 43 9 84 h200q-4 -14 -4 -25.5v-21.5q0 -47 28 -69.5t71 -22.5q53 0 89 28.5t48 110.5h205q-25 -166 -118 -242t-245 -76q-131 0 -207 64.5t-76 169.5z" />
<glyph unicode="&#x16e;" horiz-adv-x="1419" d="M160 424q0 84 20 174l182 864h306l-185 -870q-18 -80 -18 -139q0 -121 63.5 -174.5t182.5 -53.5q76 0 130 22.5t94 68.5t67.5 115t48.5 161l184 870h305l-184 -870q-35 -166 -89.5 -285t-134 -195.5t-189.5 -112.5t-253 -36q-117 0 -215 28.5t-167.5 85t-108.5 143.5 t-39 204zM716 1753q0 61 19.5 107.5t53.5 76t79 45t94 15.5t94 -15.5t79 -45t54.5 -75.5t20.5 -108q0 -61 -20.5 -106t-54.5 -75t-79 -44.5t-94 -14.5t-94 14.5t-79 44.5t-53.5 75t-19.5 106zM870 1753q0 -51 24.5 -73.5t67.5 -22.5q94 0 94 96q0 53 -24.5 76.5t-69.5 23.5 q-43 0 -67.5 -23.5t-24.5 -76.5z" />
<glyph unicode="&#x16f;" horiz-adv-x="1202" d="M123 270q0 57 16 136l142 663h286l-137 -647q-4 -23 -7 -43.5t-3 -38.5q0 -68 31.5 -100.5t91.5 -32.5q55 0 93 15.5t79 47.5q35 27 64.5 70t39.5 96l133 633h287l-225 -1069h-279l31 147q-78 -96 -161 -138t-177 -42q-150 0 -227.5 80t-77.5 223zM557 1436 q0 57 19.5 101t51 72.5t74.5 43t90 14.5t90 -14.5t76 -43t52.5 -72.5t19.5 -101q0 -59 -19.5 -102.5t-52.5 -71t-76 -42t-90 -14.5t-90 14.5t-74.5 42t-51 71t-19.5 102.5zM704 1436q0 -47 23.5 -71t64.5 -24t65.5 24t24.5 71q0 49 -24.5 71.5t-65.5 22.5t-64.5 -22.5 t-23.5 -71.5z" />
<glyph unicode="&#x170;" horiz-adv-x="1419" d="M160 424q0 84 20 174l182 864h306l-185 -870q-18 -80 -18 -139q0 -121 63.5 -174.5t182.5 -53.5q76 0 130 22.5t94 68.5t67.5 115t48.5 161l184 870h305l-184 -870q-35 -166 -89.5 -285t-134 -195.5t-189.5 -112.5t-253 -36q-117 0 -215 28.5t-167.5 85t-108.5 143.5 t-39 204zM564 1581l309 297h323l-372 -297h-260zM1006 1581l309 297h324l-373 -297h-260z" />
<glyph unicode="&#x171;" horiz-adv-x="1202" d="M123 270q0 57 16 136l142 663h286l-137 -647q-4 -23 -7 -43.5t-3 -38.5q0 -68 31.5 -100.5t91.5 -32.5q55 0 93 15.5t79 47.5q35 27 64.5 70t39.5 96l133 633h287l-225 -1069h-279l31 147q-78 -96 -161 -138t-177 -42q-150 0 -227.5 80t-77.5 223zM441 1217l301 317h297 l-361 -317h-237zM842 1217l301 317h297l-360 -317h-238z" />
<glyph unicode="&#x172;" horiz-adv-x="1419" d="M160 424q0 84 20 174l182 864h306l-185 -870q-18 -80 -18 -139q0 -121 63.5 -174.5t182.5 -53.5q76 0 130 22.5t94 68.5t67.5 115t48.5 161l184 870h305l-184 -870q-53 -252 -152.5 -396.5t-267.5 -197.5q-74 -39 -131 -84t-57 -94q0 -33 23.5 -43t53.5 -10q16 0 29.5 1 t32.5 3l-37 -177q-47 -6 -102 -6q-41 0 -84 7.5t-78 26t-57.5 49t-22.5 77.5q0 68 33.5 120t103.5 97q-109 6 -198 37t-152.5 87t-98 140t-34.5 195z" />
<glyph unicode="&#x173;" horiz-adv-x="1202" d="M123 270q0 57 16 136l142 663h286l-137 -647q-4 -23 -7 -43.5t-3 -38.5q0 -68 31.5 -100.5t91.5 -32.5q55 0 93 15.5t79 47.5q35 27 64.5 70t39.5 96l133 633h287l-225 -1069q-78 -41 -134.5 -82t-56.5 -92q0 -33 24.5 -42t55.5 -9h27.5t30.5 2l-37 -170q-43 -6 -99 -6 q-41 0 -80.5 6t-73.5 22.5t-54.5 46t-20.5 76.5q0 78 49 137.5t146 110.5h-56l31 147q-78 -96 -161 -138t-177 -42q-150 0 -227.5 80t-77.5 223z" />
<glyph unicode="&#x174;" horiz-adv-x="1982" d="M268 1462h344l15 -1016l450 1008h324l39 -1008l442 1016h328l-707 -1462h-297l-43 1081l-493 -1081h-289zM872 1581l305 297h289l191 -297h-246l-111 148l-182 -148h-246z" />
<glyph unicode="&#x175;" horiz-adv-x="1583" d="M176 1069h311l-4 -709l348 701h250l52 -701l303 709h299l-537 -1069h-278l-41 705l-342 -705h-275zM591 1217l306 317h288l187 -317h-246l-107 169l-182 -169h-246z" />
<glyph unicode="&#x176;" horiz-adv-x="1345" d="M268 1462h328l195 -592l446 592h336l-678 -866l-125 -596h-305l125 596zM536 1581l305 297h289l191 -297h-246l-111 148l-182 -148h-246z" />
<glyph unicode="&#x177;" horiz-adv-x="1161" d="M-8 -360l74 213q25 -8 54.5 -14.5t63.5 -6.5q57 0 95 31t77 98l56 96l-232 1012h320l108 -702l375 702h326l-664 -1100q-55 -92 -102 -160.5t-98.5 -114.5t-114 -68.5t-148.5 -22.5q-53 0 -98 9t-92 28zM366 1217l306 317h288l187 -317h-246l-107 169l-182 -169h-246z " />
<glyph unicode="&#x178;" horiz-adv-x="1345" d="M268 1462h328l195 -592l446 592h336l-678 -866l-125 -596h-305l125 596zM578 1602l55 264h275l-56 -264h-274zM1004 1602l55 264h275l-56 -264h-274z" />
<glyph unicode="&#x179;" horiz-adv-x="1202" d="M-14 0l47 223l925 977h-704l55 262h1082l-48 -225l-923 -975h749l-86 -262h-1097zM633 1581l322 297h346l-389 -297h-279z" />
<glyph unicode="&#x17a;" horiz-adv-x="1024" d="M14 0l41 195l647 651h-499l47 223h874l-41 -195l-645 -651h533l-74 -223h-883zM518 1217l312 317h338l-371 -317h-279z" />
<glyph unicode="&#x17b;" horiz-adv-x="1202" d="M-14 0l47 223l925 977h-704l55 262h1082l-48 -225l-923 -975h749l-86 -262h-1097zM676 1595l59 277h287l-60 -277h-286z" />
<glyph unicode="&#x17c;" horiz-adv-x="1024" d="M14 0l41 195l647 651h-499l47 223h874l-41 -195l-645 -651h533l-74 -223h-883zM551 1243l56 260h270l-55 -260h-271z" />
<glyph unicode="&#x17d;" horiz-adv-x="1202" d="M-14 0l47 223l925 977h-704l55 262h1082l-48 -225l-923 -975h749l-86 -262h-1097zM514 1886h245l111 -147l182 147h246l-305 -297h-289z" />
<glyph unicode="&#x17e;" horiz-adv-x="1024" d="M14 0l41 195l647 651h-499l47 223h874l-41 -195l-645 -651h533l-74 -223h-883zM355 1534h245l107 -170l182 170h246l-305 -317h-289z" />
<glyph unicode="&#x17f;" horiz-adv-x="559" d="M68 0l239 1133q23 92 55.5 157.5t82 107.5t115 61.5t155.5 19.5q88 0 152.5 -19.5t84.5 -29.5l-78 -199q-23 10 -55.5 18t-73.5 8q-68 0 -103.5 -34.5t-51.5 -112.5l-236 -1110h-286z" />
<glyph unicode="&#x192;" d="M-133 -303l88 207q29 -12 59.5 -21.5t69.5 -9.5q70 0 99.5 29.5t56.5 101.5l284 797h-157l63 233h176l33 92q57 162 159.5 244t284.5 82q66 0 125.5 -18.5t94.5 -36.5l-89 -207q-29 12 -59.5 21.5t-69.5 9.5q-70 0 -105.5 -29t-64.5 -107l-18 -51h244l-64 -233h-262 l-301 -840q-29 -80 -62.5 -140.5t-81.5 -100t-112.5 -59t-157.5 -19.5q-78 0 -138 18t-95 37z" />
<glyph unicode="&#x218;" horiz-adv-x="1320" d="M72 477h309q10 -129 86 -193.5t229 -64.5q141 0 199.5 59.5t58.5 147.5q0 55 -37.5 101t-132.5 67l-159 33q-205 41 -300.5 145.5t-95.5 245.5q0 125 43 216t123 149.5t191.5 87t251.5 28.5q115 0 211 -25.5t166.5 -80t113.5 -138.5t51 -200l-295 -37q-16 123 -78.5 177 t-185.5 54q-80 0 -132 -15t-83 -41t-43 -57.5t-12 -62.5q0 -78 43 -118t125 -58l164 -37q111 -25 187.5 -64.5t122.5 -91t66.5 -110.5t20.5 -127q0 -133 -41 -228.5t-120 -157t-191.5 -90t-253.5 -28.5q-115 0 -222.5 25.5t-190.5 86t-134 159t-55 243.5zM231 -465l236 330 h321l-294 -330h-263z" />
<glyph unicode="&#x219;" horiz-adv-x="1099" d="M68 336h272q10 -86 63.5 -117t145.5 -31q96 0 142 28t46 93q0 39 -25.5 66.5t-93.5 42.5l-116 24q-88 18 -148.5 48t-97.5 68t-53.5 86t-16.5 104q0 90 36 156.5t99.5 110.5t152.5 65.5t194 21.5q78 0 152.5 -16.5t134 -54.5t99.5 -101.5t48 -157.5l-262 -33 q-4 33 -15.5 59.5t-32 47t-53 32t-82.5 11.5q-63 0 -100 -11.5t-56.5 -29t-24.5 -37.5t-5 -37q0 -45 32 -69.5t105 -40.5l109 -23q92 -18 152.5 -49t97.5 -71t51 -88t14 -103q0 -106 -40 -176t-108.5 -112t-160.5 -58.5t-195 -16.5q-90 0 -172 18.5t-145.5 61.5t-102 113.5 t-40.5 175.5zM154 -453l221 318h305l-280 -318h-246z" />
<glyph unicode="&#x21a;" horiz-adv-x="1269" d="M153 -465l236 330h321l-294 -330h-263zM233 1198l56 264h1188l-56 -264h-440l-254 -1198h-307l254 1198h-441z" />
<glyph unicode="&#x21b;" horiz-adv-x="776" d="M25 -453l221 318h305l-280 -318h-246zM141 846l47 223h168l62 285h287l-62 -285h246l-47 -223h-246l-102 -484q-8 -33 -9 -61q0 -55 29 -73.5t72 -18.5q29 0 62.5 5t58.5 11l41 -211q-61 -20 -119 -27t-117 -7q-152 0 -234.5 68.5t-82.5 207.5q0 59 14 119l100 471h-168z " />
<glyph unicode="&#x2c6;" horiz-adv-x="847" d="M229 1217l306 317h288l187 -317h-246l-107 169l-182 -169h-246z" />
<glyph unicode="&#x2c7;" horiz-adv-x="847" d="M242 1534h245l107 -170l182 170h246l-305 -317h-289z" />
<glyph unicode="&#x2d8;" horiz-adv-x="847" d="M319 1444q0 43 9 84h200q-4 -14 -4 -25.5v-21.5q0 -47 28 -69.5t71 -22.5q53 0 89 28.5t48 110.5h205q-25 -166 -118 -242t-245 -76q-131 0 -207 64.5t-76 169.5z" />
<glyph unicode="&#x2d9;" horiz-adv-x="847" d="M438 1243l56 260h270l-55 -260h-271z" />
<glyph unicode="&#x2da;" horiz-adv-x="847" d="M375 1436q0 57 19.5 101t51 72.5t74.5 43t90 14.5t90 -14.5t76 -43t52.5 -72.5t19.5 -101q0 -59 -19.5 -102.5t-52.5 -71t-76 -42t-90 -14.5t-90 14.5t-74.5 42t-51 71t-19.5 102.5zM522 1436q0 -47 23.5 -71t64.5 -24t65.5 24t24.5 71q0 49 -24.5 71.5t-65.5 22.5 t-64.5 -22.5t-23.5 -71.5z" />
<glyph unicode="&#x2db;" horiz-adv-x="847" d="M555 -248q0 78 49 137.5t146 110.5h223q-78 -41 -134.5 -82t-56.5 -92q0 -33 24.5 -42t55.5 -9h27.5t30.5 2l-37 -170q-43 -6 -99 -6q-41 0 -80.5 6t-73.5 22.5t-54.5 46t-20.5 76.5z" />
<glyph unicode="&#x2dc;" horiz-adv-x="847" d="M221 1233q12 158 78 224.5t178 66.5q39 0 74 -14.5t65.5 -31t58 -30.5t52.5 -14q43 0 67.5 15t30.5 67h193q-12 -158 -78 -223.5t-178 -65.5q-41 0 -76 14t-64.5 31.5t-56 32t-51.5 14.5q-43 0 -68.5 -17.5t-31.5 -68.5h-193z" />
<glyph unicode="&#x2dd;" horiz-adv-x="847" d="M162 1217l301 317h297l-361 -317h-237zM563 1217l301 317h297l-360 -317h-238z" />
<glyph unicode="&#x3a9;" horiz-adv-x="1509" d="M29 0l51 246h256q-57 80 -95 183t-38 206q0 172 51 328.5t151.5 275.5t247 189.5t336.5 70.5q123 0 223.5 -41t171 -112.5t109.5 -171t39 -218.5q0 -131 -26.5 -235.5t-71.5 -190.5t-106.5 -155.5t-129.5 -128.5h270l-79 -246h-555l49 231q82 59 145.5 138.5t107.5 171.5 t66.5 193.5t22.5 203.5q0 145 -69 231t-193 86q-135 0 -224.5 -57t-142.5 -149.5t-75.5 -207t-22.5 -227.5q0 -49 11 -103t29.5 -105.5t42 -96.5t50.5 -78l-49 -231h-553z" />
<glyph unicode="&#x3c0;" horiz-adv-x="1314" d="M131 840l47 229h1219l-47 -229h-191l-106 -498q-10 -47 -11 -70q0 -33 15.5 -54t56.5 -21q23 0 43.5 2t34.5 6l29 -207q-35 -12 -85.5 -21.5t-129.5 -9.5q-70 0 -118 17.5t-78 47t-43 69.5t-13 87q0 25 4 70t20 127l99 455h-271l-178 -840h-287l178 840h-188z" />
<glyph unicode="&#x400;" horiz-adv-x="1236" d="M88 0l309 1462h998l-56 -260h-692l-67 -319h651l-55 -262h-652l-78 -361h736l-84 -260h-1010zM606 1878h319l201 -297h-258z" />
<glyph unicode="&#x401;" horiz-adv-x="1236" d="M88 0l309 1462h998l-56 -260h-692l-67 -319h651l-55 -262h-652l-78 -361h736l-84 -260h-1010zM569 1602l55 264h275l-56 -264h-274zM995 1602l55 264h275l-56 -264h-274z" />
<glyph unicode="&#x402;" horiz-adv-x="1689" d="M225 1198l56 264h1226l-55 -264h-512l-70 -328q57 16 141.5 28.5t170.5 12.5q104 0 191 -24.5t151.5 -74.5t100.5 -126t36 -180q0 -121 -37 -214t-117 -158.5t-205.5 -99.5t-304.5 -34h-114l55 256h96q139 0 226.5 50t87.5 167q0 92 -58.5 139t-199.5 47q-53 0 -94.5 -4 t-73 -10t-56 -14t-47.5 -15l-133 -616h-305l254 1198h-410z" />
<glyph unicode="&#x403;" horiz-adv-x="1095" d="M65 0l307 1462h926l-57 -264h-621l-252 -1198h-303zM610 1581l322 297h346l-389 -297h-279z" />
<glyph unicode="&#x404;" horiz-adv-x="1484" d="M190 623q0 166 50.5 323.5t148.5 280.5t242.5 197.5t333.5 74.5q240 0 385 -107.5t180 -324.5l-307 -43q-23 111 -87.5 162t-181.5 51q-66 0 -127 -17.5t-115.5 -59.5t-99.5 -109.5t-73 -167.5h596l-54 -262h-573v-29q0 -78 18.5 -144.5t56.5 -115.5t95 -78t135 -29 q143 0 213 59.5t104 166.5h320q-59 -238 -222 -363t-446 -125q-143 0 -253.5 48t-185.5 135t-114 208t-39 269z" />
<glyph unicode="&#x405;" horiz-adv-x="1320" d="M72 477h309q10 -129 86 -193.5t229 -64.5q141 0 199.5 59.5t58.5 147.5q0 55 -37.5 101t-132.5 67l-159 33q-205 41 -300.5 145.5t-95.5 245.5q0 125 43 216t123 149.5t191.5 87t251.5 28.5q115 0 211 -25.5t166.5 -80t113.5 -138.5t51 -200l-295 -37q-16 123 -78.5 177 t-185.5 54q-80 0 -132 -15t-83 -41t-43 -57.5t-12 -62.5q0 -78 43 -118t125 -58l164 -37q111 -25 187.5 -64.5t122.5 -91t66.5 -110.5t20.5 -127q0 -133 -41 -228.5t-120 -157t-191.5 -90t-253.5 -28.5q-115 0 -222.5 25.5t-190.5 86t-134 159t-55 243.5z" />
<glyph unicode="&#x406;" horiz-adv-x="604" d="M88 0l309 1462h305l-309 -1462h-305z" />
<glyph unicode="&#x407;" horiz-adv-x="604" d="M88 0l309 1462h305l-309 -1462h-305zM217 1602l55 264h275l-56 -264h-274zM643 1602l55 264h275l-56 -264h-274z" />
<glyph unicode="&#x408;" horiz-adv-x="1302" d="M104 399q0 25 2.5 50.5t6.5 54.5h303q-2 -18 -2 -31.5v-30.5q0 -94 45 -155.5t168 -61.5q68 0 114.5 21.5t80.5 61.5t54.5 97.5t36.5 126.5l199 930h305l-207 -987q-29 -137 -79 -234.5t-124.5 -159t-174 -90t-228.5 -28.5q-109 0 -200 27.5t-157.5 83t-104.5 136.5 t-38 189z" />
<glyph unicode="&#x409;" horiz-adv-x="2189" d="M-18 -16l53 260h33q76 0 137 24.5t114.5 85t100.5 164t96 260.5l213 684h875l-107 -501h172q233 0 366.5 -110t133.5 -312q0 -262 -177 -400.5t-497 -138.5h-508l256 1206h-291l-172 -553q-53 -172 -116.5 -299t-147.5 -209t-193.5 -121.5t-254.5 -39.5h-86zM1346 252 h204q154 0 235 64.5t81 205.5q0 86 -57.5 135.5t-182.5 49.5h-184z" />
<glyph unicode="&#x40a;" horiz-adv-x="2129" d="M88 0l307 1462h305l-114 -542h549l114 542h305l-112 -542h160q117 0 210 -29t159.5 -83t102 -131t35.5 -171q0 -254 -167.5 -380t-487.5 -126h-514l137 655h-547l-139 -655h-303zM1298 252h193q76 0 135.5 11t99 38t60 73t20.5 118q0 74 -57 118.5t-182 44.5h-183z" />
<glyph unicode="&#x40b;" horiz-adv-x="1689" d="M225 1198l56 264h1226l-55 -264h-512l-78 -364q68 29 153 45t171 16q119 0 208 -37t143 -104.5t70.5 -162.5t-8.5 -214l-81 -377h-306l72 334q14 72 15 131t-21.5 101t-70.5 64.5t-128 22.5q-70 0 -143.5 -14t-120.5 -35l-129 -604h-305l254 1198h-410z" />
<glyph unicode="&#x40c;" horiz-adv-x="1394" d="M88 0l307 1462h305l-125 -598h58q45 0 84 16.5t73.5 46t66.5 67.5t67 81l114 148q43 55 86 99t91.5 74.5t103.5 48t123 17.5q45 0 90 -8t65 -14l-69 -244q-20 4 -43 7t-39 3q-68 0 -112 -42t-87 -99l-96 -125q-49 -63 -103.5 -111.5t-134.5 -76.5q74 -29 113 -91.5 t74 -138.5l241 -522h-323l-213 471q-35 74 -78 109.5t-121 35.5h-82l-133 -616h-303zM817 1581l322 297h346l-389 -297h-279z" />
<glyph unicode="&#x40d;" horiz-adv-x="1460" d="M88 0l307 1462h297l-203 -960l795 960h275l-312 -1462h-297l205 950l-795 -950h-272zM655 1878h319l201 -297h-258z" />
<glyph unicode="&#x40e;" horiz-adv-x="1280" d="M25 6l84 227q29 -10 76.5 -20t93.5 -10q84 0 143 40t119 132l39 59l-320 1028h313l199 -753l451 753h313l-700 -1114q-63 -100 -122 -173t-123.5 -120t-139 -69.5t-166.5 -22.5q-43 0 -84 4t-76 10.5t-61.5 14.5t-38.5 14zM581 1844q0 23 2 37t5 22h202q-2 -10 -2 -17.5 v-15.5q0 -18 6.5 -38.5t22.5 -36t45 -25.5t76 -10q78 0 126 32.5t68 110.5h205q-14 -70 -44 -128t-80 -101t-122.5 -67t-171.5 -24q-68 0 -129 14.5t-107 45.5t-74 80t-28 121z" />
<glyph unicode="&#x40f;" horiz-adv-x="1454" d="M88 0l311 1462h306l-256 -1198h542l256 1198h305l-311 -1462h-442l-76 -354h-266l75 354h-444z" />
<glyph unicode="&#x410;" horiz-adv-x="1429" d="M-41 0l858 1462h291l240 -1462h-316l-45 338h-512l-188 -338h-328zM604 590h354l-67 524z" />
<glyph unicode="&#x411;" horiz-adv-x="1304" d="M88 0l307 1462h893l-53 -264h-592l-53 -260h182q233 0 366.5 -107.5t133.5 -302.5q0 -256 -177 -392t-497 -136h-510zM446 252h203q154 0 234 62.5t80 197.5q0 78 -57.5 126t-182.5 48h-186z" />
<glyph unicode="&#x412;" horiz-adv-x="1325" d="M88 0l309 1462h496q135 0 229.5 -26.5t152.5 -72.5t84.5 -108.5t26.5 -132.5q0 -152 -73.5 -235.5t-196.5 -128.5q92 -51 134 -120t42 -161q0 -109 -36.5 -195.5t-113.5 -150t-197 -97.5t-283 -34h-574zM432 240h248q168 0 240.5 59t72.5 176q0 78 -52 120t-173 42h-250z M569 883h258q49 0 95.5 8t82 29.5t56 59.5t20.5 95q0 68 -50 108t-177 40h-213z" />
<glyph unicode="&#x413;" horiz-adv-x="1107" d="M88 0l307 1462h926l-57 -264h-621l-252 -1198h-303z" />
<glyph unicode="&#x414;" horiz-adv-x="1562" d="M-109 -354l132 618h161q78 57 143.5 149.5t122 207t103.5 245.5t90 264l105 332h878l-254 -1198h160l-131 -618h-266l75 354h-977l-75 -354h-267zM528 264h539l201 942h-310l-57 -182q-37 -115 -75 -222.5t-83 -204.5t-97 -182t-118 -151z" />
<glyph unicode="&#x415;" horiz-adv-x="1236" d="M88 0l309 1462h998l-56 -260h-692l-67 -319h651l-55 -262h-652l-78 -361h736l-84 -260h-1010z" />
<glyph unicode="&#x416;" horiz-adv-x="2168" d="M-47 0l514 602q59 68 111.5 105.5t109.5 54.5q-55 25 -91 73t-58 119l-43 133q-18 59 -51 93t-109 34q-12 0 -24.5 -1t-22.5 -1q-10 -2 -21 -2l41 234q49 12 80 15t72 3q111 0 172 -55t98 -160l72 -207q31 -86 81 -132t128 -46h39l127 600h305l-127 -600h39 q59 0 125.5 36t136.5 142l139 213q78 121 169 165t214 44q57 0 92 -5t68 -15l-70 -244l-20 4t-23.5 3t-27.5 1q-66 0 -106 -25.5t-85 -97.5l-98 -153q-49 -80 -100.5 -118t-106.5 -60q49 -27 86 -87.5t65 -125.5l234 -539h-342l-207 498q-23 53 -56.5 86.5t-109.5 33.5h-65 l-133 -618h-306l133 618h-63q-47 0 -85 -23.5t-87 -80.5l-434 -514h-379z" />
<glyph unicode="&#x417;" horiz-adv-x="1325" d="M119 451h287q10 -72 29.5 -118t53 -74t85 -39t124.5 -11q135 0 206 57.5t71 188.5q0 88 -68.5 132t-216.5 44h-143l51 243h160q72 0 132 12.5t103 38t67.5 68.5t24.5 105q0 78 -65.5 117.5t-161.5 39.5q-72 0 -125 -10t-93 -32.5t-69.5 -61.5t-50.5 -96l-276 37 q66 209 217 308t420 99q104 0 195 -25.5t156.5 -72.5t103.5 -118t38 -159q0 -145 -77.5 -232t-200.5 -132q80 -47 130 -123t50 -176q0 -117 -43 -210t-120 -156.5t-183.5 -97.5t-235.5 -34q-274 0 -418.5 119t-156.5 369z" />
<glyph unicode="&#x418;" horiz-adv-x="1460" d="M88 0l307 1462h297l-203 -960l795 960h275l-312 -1462h-297l205 950l-795 -950h-272z" />
<glyph unicode="&#x419;" horiz-adv-x="1460" d="M88 0l307 1462h297l-203 -960l795 960h275l-312 -1462h-297l205 950l-795 -950h-272zM675 1844q0 23 2 37t5 22h202q-2 -10 -2 -17.5v-15.5q0 -18 6.5 -38.5t22.5 -36t45 -25.5t76 -10q78 0 126 32.5t68 110.5h205q-14 -70 -44 -128t-80 -101t-122.5 -67t-171.5 -24 q-68 0 -129 14.5t-107 45.5t-74 80t-28 121z" />
<glyph unicode="&#x41a;" horiz-adv-x="1394" d="M88 0l307 1462h305l-125 -598h58q45 0 84 16.5t73.5 46t66.5 67.5t67 81l114 148q43 55 86 99t91.5 74.5t103.5 48t123 17.5q45 0 90 -8t65 -14l-69 -244q-20 4 -43 7t-39 3q-68 0 -112 -42t-87 -99l-96 -125q-49 -63 -103.5 -111.5t-134.5 -76.5q74 -29 113 -91.5 t74 -138.5l241 -522h-323l-213 471q-35 74 -78 109.5t-121 35.5h-82l-133 -616h-303z" />
<glyph unicode="&#x41b;" horiz-adv-x="1550" d="M-18 -16l53 260h33q76 0 137 24.5t114.5 85t100.5 164t96 260.5l213 684h920l-312 -1462h-305l256 1206h-336l-172 -553q-53 -172 -116.5 -299t-147.5 -209t-193.5 -121.5t-254.5 -39.5h-86z" />
<glyph unicode="&#x41c;" horiz-adv-x="1761" d="M88 0l309 1462h359l137 -1091l602 1091h365l-310 -1462h-280l207 975l-537 -975h-238l-135 973l-205 -973h-274z" />
<glyph unicode="&#x41d;" horiz-adv-x="1488" d="M88 0l309 1462h305l-118 -565h579l119 565h305l-309 -1462h-305l129 614h-580l-129 -614h-305z" />
<glyph unicode="&#x41e;" horiz-adv-x="1597" d="M186 578q0 176 53.5 341.5t157 294.5t256 207t351.5 78q141 0 250.5 -46t184 -127t113.5 -193.5t39 -245.5q0 -178 -51 -345t-152.5 -296t-254 -206t-353.5 -77q-141 0 -251.5 45t-186.5 127t-116 194.5t-40 248.5zM502 592q0 -170 74.5 -268.5t224.5 -98.5 q123 0 212 57.5t147.5 149.5t87 208t28.5 232q0 166 -73.5 265.5t-223.5 99.5q-123 0 -213 -57.5t-148.5 -149.5t-87 -207.5t-28.5 -230.5z" />
<glyph unicode="&#x41f;" horiz-adv-x="1454" d="M88 0l309 1462h1155l-309 -1462h-305l254 1198h-547l-252 -1198h-305z" />
<glyph unicode="&#x420;" horiz-adv-x="1310" d="M88 0l309 1462h504q135 0 228.5 -38t152.5 -96t86 -129.5t27 -139.5q0 -139 -45 -240.5t-131 -167t-208 -97.5t-276 -32h-235l-111 -522h-301zM553 776h209q70 0 129 11.5t102 41t67.5 79.5t24.5 128q0 72 -52 123t-181 51h-207z" />
<glyph unicode="&#x421;" horiz-adv-x="1460" d="M182 623q0 172 53.5 330.5t152.5 280.5t240.5 193.5t317.5 71.5q143 0 247.5 -37t173.5 -103.5t104.5 -159.5t44.5 -206l-304 -41q-8 68 -24.5 121t-49 89t-81.5 55.5t-121 19.5q-102 0 -182 -49t-135.5 -131t-85 -189.5t-29.5 -224.5q0 -86 14 -161.5t50 -132 t93.5 -90.5t143.5 -34q150 0 225.5 72t99.5 209h328q-25 -125 -73 -225.5t-126.5 -171t-195.5 -108.5t-279 -38q-160 0 -273.5 52.5t-187 142.5t-107.5 209.5t-34 255.5z" />
<glyph unicode="&#x422;" horiz-adv-x="1269" d="M233 1198l56 264h1188l-56 -264h-440l-254 -1198h-307l254 1198h-441z" />
<glyph unicode="&#x423;" horiz-adv-x="1280" d="M25 6l84 227q29 -10 76.5 -20t93.5 -10q84 0 143 40t119 132l39 59l-320 1028h313l199 -753l451 753h313l-700 -1114q-63 -100 -122 -173t-123.5 -120t-139 -69.5t-166.5 -22.5q-43 0 -84 4t-76 10.5t-61.5 14.5t-38.5 14z" />
<glyph unicode="&#x424;" horiz-adv-x="1763" d="M176 713q0 172 64.5 301t174 217t251 137t295.5 59l32 156h295l-35 -166q117 -16 213.5 -57t165 -107.5t106.5 -159t38 -212.5q0 -164 -65.5 -290t-174.5 -214t-252 -138.5t-297 -62.5l-37 -176h-293l39 188q-117 18 -213 58.5t-163.5 105t-105.5 154.5t-38 207zM477 719 q0 -123 65.5 -198t205.5 -97l159 758q-111 -12 -192.5 -51t-134 -99.5t-78 -140.5t-25.5 -172zM1040 420q225 27 330 151.5t105 317.5q0 115 -64.5 192.5t-208.5 100.5z" />
<glyph unicode="&#x425;" horiz-adv-x="1400" d="M-49 0l672 774l-332 688h334l206 -471l406 471h342l-614 -704l366 -758h-334l-245 537l-453 -537h-348z" />
<glyph unicode="&#x426;" horiz-adv-x="1501" d="M88 0l309 1462h305l-253 -1198h532l254 1198h305l-254 -1198h168l-131 -618h-266l76 354h-1045z" />
<glyph unicode="&#x427;" horiz-adv-x="1388" d="M254 834.5q-16 95.5 8 214.5l88 413h305l-77 -370q-16 -72 -16.5 -131.5t22 -101.5t70.5 -64.5t128 -22.5q70 0 143.5 14.5t121.5 34.5l135 641h305l-309 -1462h-306l125 592q-68 -29 -151.5 -45.5t-169.5 -16.5q-119 0 -208 37t-143.5 104.5t-70.5 163z" />
<glyph unicode="&#x428;" horiz-adv-x="2086" d="M88 0l307 1462h305l-254 -1198h437l254 1198h305l-254 -1198h438l254 1198h305l-309 -1462h-1788z" />
<glyph unicode="&#x429;" horiz-adv-x="2146" d="M88 0l307 1462h305l-254 -1198h437l254 1198h305l-254 -1198h438l254 1198h305l-254 -1198h168l-131 -618h-266l76 354h-1690z" />
<glyph unicode="&#x42a;" horiz-adv-x="1515" d="M217 1198l57 264h615l-107 -501h213q233 0 366.5 -113t133.5 -316q0 -262 -177 -397t-497 -135h-545l250 1198h-309zM635 252h244q154 0 233.5 64.5t79.5 205.5q0 86 -57.5 135.5t-182.5 49.5h-223z" />
<glyph unicode="&#x42b;" horiz-adv-x="1902" d="M88 0h508q319 0 496.5 135t177.5 397q0 203 -133 316t-367 113h-176l106 501h-305zM444 252l97 455h186q125 0 182.5 -49.5t57.5 -135.5q0 -141 -81 -205.5t-235 -64.5h-207zM1386 0l310 1462h305l-309 -1462h-306z" />
<glyph unicode="&#x42c;" horiz-adv-x="1316" d="M88 0l307 1462h305l-106 -501h213q233 0 366.5 -113t133.5 -316q0 -262 -177.5 -397t-496.5 -135h-545zM444 252h244q154 0 235 64.5t81 205.5q0 86 -57.5 135.5t-182.5 49.5h-223z" />
<glyph unicode="&#x42d;" horiz-adv-x="1454" d="M121 451h299q14 -74 45 -118t73 -67.5t93 -32t108 -8.5q80 0 141.5 29t107.5 81t78 124.5t50 161.5h-600l55 262h566q0 94 -22.5 160.5t-63.5 109.5t-97.5 63.5t-122.5 20.5q-127 0 -207.5 -49t-134.5 -170l-282 53q82 221 239.5 324.5t397.5 103.5q162 0 276.5 -49 t187 -136t106.5 -209t34 -267q0 -182 -45 -342t-136 -279t-230.5 -186.5t-325.5 -67.5q-117 0 -218.5 30t-180.5 90t-129 151.5t-62 216.5z" />
<glyph unicode="&#x42e;" horiz-adv-x="2244" d="M88 0l307 1462h301l-123 -583h332q35 129 101.5 241.5t162 197.5t219 133t275.5 48q137 0 243.5 -46t180.5 -127t112.5 -193.5t38.5 -245.5q0 -178 -51 -345t-151.5 -296t-250 -206t-345.5 -77q-137 0 -243.5 45t-180.5 127t-112 194.5t-38 248.5v45h-348l-131 -623h-299 zM1174 592q0 -170 72.5 -268.5t213.5 -98.5q119 0 206 57.5t144.5 149.5t85 208t27.5 232q0 166 -72 265.5t-213 99.5q-119 0 -205.5 -57.5t-144 -149.5t-86 -207.5t-28.5 -230.5z" />
<glyph unicode="&#x42f;" horiz-adv-x="1402" d="M-10 0l270 410q31 45 57.5 80.5t54 62.5t58.5 46t68 36q-100 51 -154.5 139t-54.5 211q0 244 170 360.5t479 116.5h563l-307 -1462h-305l117 549h-142q-55 0 -94 -11.5t-68.5 -32t-52 -48t-43.5 -60.5l-254 -397h-362zM598 973q0 -72 54.5 -121t150.5 -49h256l86 407 h-240q-160 0 -233.5 -51t-73.5 -186z" />
<glyph unicode="&#x430;" horiz-adv-x="1148" d="M66 274q0 119 51 193t134 116t188.5 59t211.5 22l183 8l8 43q6 31 6 57q0 66 -41 98.5t-117 32.5q-90 0 -142 -27.5t-81 -101.5l-256 25q51 174 177 245.5t333 71.5q190 0 293.5 -83t105.5 -245q0 -29 -3 -61.5t-11 -67.5l-137 -659h-271l29 135q-39 -39 -76 -69.5 t-78 -51t-89 -31t-109 -10.5q-141 0 -225 76t-84 225zM354 299q0 -49 32 -80t89 -31q55 0 100.5 13.5t86.5 42.5q45 29 75.5 73.5t42.5 108.5l13 61l-140 -8q-88 -6 -145 -19.5t-91 -36t-48.5 -54t-14.5 -70.5z" />
<glyph unicode="&#x431;" horiz-adv-x="1282" d="M154 467q0 94 14 192.5t44 191.5t78 179t116 158q90 94 234 164.5t349 101.5l281 43l-15 -235l-196 -31q-92 -14 -164 -31.5t-127 -41t-97 -51.5t-77 -65q-41 -43 -68.5 -92t-48.5 -94q66 72 161 117t198 45q94 0 167.5 -32t126 -87t80 -130t27.5 -161 q0 -305 -156.5 -473t-445.5 -168q-125 0 -216 36t-149.5 101.5t-87 157.5t-28.5 205zM442 416q0 -94 54.5 -156.5t146.5 -62.5q76 0 132 31.5t93 86t55.5 124t18.5 145.5q0 100 -56 152t-130 52q-33 0 -77 -7t-91 -36q-80 -51 -113 -141t-33 -188z" />
<glyph unicode="&#x432;" horiz-adv-x="1163" d="M66 0l229 1081h514q92 0 158.5 -21.5t109.5 -56t63.5 -80t20.5 -92.5q0 -111 -45 -176t-155 -100q80 -35 112.5 -94.5t32.5 -136.5q0 -150 -105.5 -237t-341.5 -87h-593zM389 221h234q106 0 151 32t45 99q0 47 -33.5 74t-99.5 27h-248zM477 641h242q31 0 61.5 6t54 19.5 t38 38t14.5 61.5q0 39 -30 67.5t-101 28.5h-232z" />
<glyph unicode="&#x433;" horiz-adv-x="915" d="M66 0l229 1081h756l-52 -239h-469l-178 -842h-286z" />
<glyph unicode="&#x434;" horiz-adv-x="1277" d="M-90 -287l110 525h111q84 55 161 216.5t150 409.5l64 217h788l-176 -843h133l-112 -525h-246l59 287h-739l-59 -287h-244zM446 238h388l127 618h-248l-49 -166q-49 -166 -110.5 -285.5t-107.5 -166.5z" />
<glyph unicode="&#x435;" horiz-adv-x="1206" d="M137 426q0 162 45 290t125 216t190.5 134t243.5 46q100 0 180 -30.5t135.5 -86t84 -130t28.5 -163.5q0 -39 -4 -88t-16 -104l-8 -37h-717q-2 -10 -2 -20.5v-20.5q0 -117 55 -179.5t154 -62.5q86 0 137 31t74 113h278q-43 -180 -167 -273.5t-353 -93.5q-106 0 -192 33 t-145.5 93.5t-92.5 145.5t-33 187zM446 662h443q6 31 6 59q0 84 -49 130t-131 46q-41 0 -82 -10t-76 -37t-63.5 -73t-47.5 -115z" />
<glyph unicode="&#x436;" horiz-adv-x="1724" d="M-41 0l313 401q59 76 112.5 112t113.5 48q-35 16 -53.5 45t-32.5 66l-37 94q-39 96 -127 96q-20 0 -41 -4q-8 -2 -19 -2l21 209q12 4 33 8q16 4 39.5 6t52.5 2q90 0 149.5 -47t94.5 -127l61 -139q27 -59 51.5 -94t73.5 -35h41l94 442h270l-94 -442h29q53 0 93 35t77 90 l92 141q115 176 330 176q41 0 78.5 -7t54.5 -15l-62 -207q-8 2 -18 4t-21.5 4t-25.5 2q-47 0 -77 -25.5t-58 -66.5l-70 -106q-59 -86 -137 -109q61 -23 91 -68t46 -88l148 -399h-291l-105 319q-43 125 -166 125h-49l-96 -444h-270l96 444h-59q-59 0 -99.5 -29.5t-91.5 -95.5 l-242 -319h-313z" />
<glyph unicode="&#x437;" horiz-adv-x="1134" d="M70 356h274q10 -82 72.5 -119.5t154.5 -37.5q66 0 108 11t65.5 30.5t32.5 45t9 54.5q0 61 -45 86t-123 25h-200l41 192h219q76 0 123 31t47 96q0 61 -48 90t-120 29q-102 0 -166.5 -36t-93.5 -124l-264 45q57 176 191 257t349 81q209 0 319.5 -75.5t110.5 -202.5 q0 -104 -55 -170t-151 -99q70 -29 113.5 -88t43.5 -151q0 -90 -35.5 -157t-102.5 -111t-160 -65.5t-208 -21.5q-223 0 -352 93.5t-149 291.5z" />
<glyph unicode="&#x438;" horiz-adv-x="1193" d="M66 0l231 1081h260l-145 -678l585 678h234l-232 -1081h-260l138 639l-564 -639h-247z" />
<glyph unicode="&#x439;" horiz-adv-x="1193" d="M66 0l231 1081h260l-145 -678l585 678h234l-232 -1081h-260l138 639l-564 -639h-247zM460 1471q0 23 2 37t5 22h202q-2 -10 -2 -17.5v-15.5q0 -18 6.5 -38.5t22.5 -36t45 -25.5t76 -10q78 0 126 32.5t68 110.5h205q-14 -70 -44 -128t-80 -101t-122.5 -67t-171.5 -24 q-68 0 -129 14.5t-107 45.5t-74 80t-28 121z" />
<glyph unicode="&#x43a;" horiz-adv-x="1144" d="M66 0l231 1081h287l-97 -442h52q37 0 77.5 24.5t88.5 100.5l83 133q35 55 69 90t72 56.5t82 29.5t99 8q29 0 73 -6t74 -16l-59 -207q-10 2 -22 4q-10 2 -23.5 4t-24.5 2q-47 0 -72.5 -20.5t-56.5 -67.5l-59 -90q-31 -49 -66.5 -80t-80.5 -49q63 -25 91.5 -73t45.5 -93 l143 -389h-289l-108 319q-10 31 -22.5 54.5t-31 39t-46 23.5t-66.5 8h-64l-96 -444h-284z" />
<glyph unicode="&#x43b;" horiz-adv-x="1222" d="M-49 -10l47 233h22q51 0 92.5 19.5t75 62.5t63.5 112.5t62 170.5l158 493h803l-230 -1081h-286l178 844h-258l-88 -287q-47 -150 -97.5 -257t-115 -176t-145 -101.5t-187.5 -32.5h-94z" />
<glyph unicode="&#x43c;" horiz-adv-x="1486" d="M66 0l231 1081h297l160 -782l512 782h272l-231 -1081h-258l129 602l-398 -602h-186l-133 655l-137 -655h-258z" />
<glyph unicode="&#x43d;" horiz-adv-x="1245" d="M66 0l231 1081h287l-86 -405h426l86 405h286l-231 -1081h-287l92 438h-426l-92 -438h-286z" />
<glyph unicode="&#x43e;" horiz-adv-x="1261" d="M127 424q0 160 47 287t132 216t200 137t250 48q109 0 195.5 -36t147 -98.5t93.5 -145t33 -177.5q0 -164 -46 -291.5t-129 -216t-199 -134.5t-253 -46q-109 0 -196 36t-148 98.5t-94 145.5t-33 177zM424 426q0 -106 50 -167.5t142 -61.5q63 0 120 29.5t100 87t67.5 142.5 t24.5 195q0 106 -50.5 169t-142.5 63q-63 0 -119.5 -30t-99.5 -88t-67.5 -143t-24.5 -196z" />
<glyph unicode="&#x43f;" horiz-adv-x="1220" d="M66 0l231 1081h975l-232 -1081h-286l178 844h-402l-178 -844h-286z" />
<glyph unicode="&#x440;" horiz-adv-x="1277" d="M-18 -397l313 1478h278l-26 -131q55 74 139 119t195 45q94 0 163.5 -36t115.5 -99.5t69.5 -149.5t23.5 -186q0 -145 -41 -269t-111.5 -214t-166.5 -141.5t-205 -51.5q-123 0 -205 41t-141 139l-117 -544h-284zM446 436q0 -41 8.5 -80t26.5 -69q51 -88 183 -88 q70 0 124 37.5t90.5 100t56 144.5t19.5 168q0 111 -51 171.5t-129 60.5q-109 0 -190 -74q-41 -35 -69 -86t-38 -105l-16 -77q-4 -27 -9.5 -52.5t-5.5 -50.5z" />
<glyph unicode="&#x441;" horiz-adv-x="1165" d="M127 428q0 166 47 295t129 216t192.5 132t239.5 45q102 0 178 -28.5t128.5 -79t81 -121t34.5 -156.5l-289 -37q-8 94 -42.5 143.5t-127.5 49.5q-55 0 -105 -30t-88 -87t-59.5 -144t-21.5 -200q0 -100 46 -164.5t144 -64.5q180 0 217 190h291q-37 -211 -165 -315.5 t-373 -104.5q-106 0 -191.5 34t-144 95.5t-90 145.5t-31.5 186z" />
<glyph unicode="&#x442;" horiz-adv-x="1064" d="M158 844l51 237h983l-51 -237h-346l-181 -844h-286l180 844h-350z" />
<glyph unicode="&#x443;" horiz-adv-x="1161" d="M-8 -360l74 213q25 -8 54.5 -14.5t63.5 -6.5q57 0 95 31t77 98l54 92l-234 1028h320l110 -712l377 712h326l-664 -1112q-55 -92 -102 -160.5t-98.5 -114.5t-114 -68.5t-148.5 -22.5q-53 0 -98 9t-92 28z" />
<glyph unicode="&#x444;" horiz-adv-x="1529" d="M102 442q0 143 50.5 254t141.5 189t216 123t274 57l76 358h279l-78 -362q113 -12 200 -55t144 -106.5t87 -139.5t30 -154q0 -133 -51.5 -240.5t-141.5 -185.5t-217 -124t-276 -56l-74 -348h-277l74 350q-115 14 -201 55t-142 99.5t-85 132t-29 153.5zM387 467 q0 -90 51 -153.5t170 -77.5l127 593q-160 -18 -254 -113t-94 -249zM887 236q156 18 252 109t96 267q0 86 -53.5 145.5t-169.5 71.5z" />
<glyph unicode="&#x445;" horiz-adv-x="1120" d="M-45 0l502 567l-246 514h324l127 -313l262 313h317l-457 -524l258 -557h-317l-152 356l-288 -356h-330z" />
<glyph unicode="&#x446;" horiz-adv-x="1224" d="M66 0l229 1081h287l-179 -843h375l176 843h287l-176 -843h133l-113 -525h-245l59 287h-833z" />
<glyph unicode="&#x447;" horiz-adv-x="1153" d="M184 696q0 27 4.5 55.5t10.5 59.5l57 270h287l-58 -268q-4 -20 -6 -37.5t-2 -34.5q0 -72 40 -102.5t132 -30.5q53 0 98.5 7.5t73.5 17.5l97 448h286l-231 -1081h-287l84 399q-45 -10 -104.5 -16t-106.5 -6q-182 0 -278.5 85t-96.5 234z" />
<glyph unicode="&#x448;" horiz-adv-x="1720" d="M66 0l231 1081h287l-181 -843h308l180 843h287l-181 -843h308l180 843h287l-232 -1081h-1474z" />
<glyph unicode="&#x449;" horiz-adv-x="1751" d="M66 0l229 1081h287l-179 -843h308l178 843h287l-179 -843h306l178 843h286l-178 -843h133l-112 -525h-246l59 287h-1357z" />
<glyph unicode="&#x44a;" horiz-adv-x="1253" d="M113 844l51 237h518l-74 -346h205q98 0 173 -24.5t125 -68.5t74.5 -104.5t24.5 -129.5q0 -186 -128 -297t-380 -111h-538l180 844h-231zM502 233h227q94 0 141.5 44.5t47.5 123.5q0 41 -31 72t-105 31h-223z" />
<glyph unicode="&#x44b;" horiz-adv-x="1626" d="M66 0l231 1081h287l-74 -346h182q98 0 173 -24.5t125 -68.5t75 -104.5t25 -129.5q0 -186 -128 -297t-380 -111h-516zM403 233h205q94 0 141.5 44.5t47.5 123.5q0 41 -31 72t-104 31h-201zM1157 0l232 1081h288l-231 -1081h-289z" />
<glyph unicode="&#x44c;" horiz-adv-x="1163" d="M66 0l231 1081h287l-74 -346h213q98 0 173 -24.5t125 -68.5t74.5 -104.5t24.5 -129.5q0 -186 -128 -297t-380 -111h-546zM401 233h238q94 0 141 44.5t47 123.5q0 41 -30.5 72t-104.5 31h-229z" />
<glyph unicode="&#x44d;" horiz-adv-x="1187" d="M80 346h270q14 -72 65.5 -114t137.5 -42q127 0 192.5 67t88.5 185h-404l41 201h385q0 121 -50 183.5t-142 62.5q-172 0 -236 -156l-252 47q53 147 180 239.5t344 92.5q106 0 190.5 -38t142 -104.5t88 -155.5t30.5 -191q0 -127 -36 -245t-111.5 -209t-191.5 -146.5 t-277 -55.5q-96 0 -177.5 26.5t-142.5 76t-97 119t-38 157.5z" />
<glyph unicode="&#x44e;" horiz-adv-x="1748" d="M66 0l231 1081h287l-92 -424h204q29 106 85.5 191.5t132 144t166 89t188.5 30.5q104 0 187 -36t139.5 -98.5t87 -145t30.5 -177.5q0 -164 -46 -291.5t-128 -216t-191.5 -134.5t-236.5 -46q-104 0 -186 36t-139.5 98.5t-87 145.5t-29.5 177v22h-222l-94 -446h-286z M961 426q0 -106 45 -167.5t133 -61.5q51 0 101 29.5t89 87t62.5 142.5t23.5 195q0 106 -45 169t-133 63q-51 0 -101.5 -30t-89 -88t-62 -143t-23.5 -196z" />
<glyph unicode="&#x44f;" horiz-adv-x="1167" d="M-25 0l240 332q39 53 80 80.5t72 38.5q-78 37 -119 106.5t-41 149.5q0 104 41 175.5t111.5 115.5t164.5 63.5t203 19.5h492l-232 -1081h-291l82 379h-90q-70 0 -111.5 -24.5t-76.5 -78.5l-191 -276h-334zM496 715q0 -47 32.5 -76t85.5 -29h215l52 242h-201 q-35 0 -68.5 -5t-59.5 -20.5t-41 -42t-15 -69.5z" />
<glyph unicode="&#x450;" horiz-adv-x="1206" d="M137 426q0 162 45 290t125 216t190.5 134t243.5 46q100 0 180 -30.5t135.5 -86t84 -130t28.5 -163.5q0 -39 -4 -88t-16 -104l-8 -37h-717q-2 -10 -2 -20.5v-20.5q0 -117 55 -179.5t154 -62.5q86 0 137 31t74 113h278q-43 -180 -167 -273.5t-353 -93.5q-106 0 -192 33 t-145.5 93.5t-92.5 145.5t-33 187zM446 662h443q6 31 6 59q0 84 -49 130t-131 46q-41 0 -82 -10t-76 -37t-63.5 -73t-47.5 -115zM483 1534h314l180 -317h-256z" />
<glyph unicode="&#x451;" horiz-adv-x="1206" d="M137 426q0 162 45 290t125 216t190.5 134t243.5 46q100 0 180 -30.5t135.5 -86t84 -130t28.5 -163.5q0 -39 -4 -88t-16 -104l-8 -37h-717q-2 -10 -2 -20.5v-20.5q0 -117 55 -179.5t154 -62.5q86 0 137 31t74 113h278q-43 -180 -167 -273.5t-353 -93.5q-106 0 -192 33 t-145.5 93.5t-92.5 145.5t-33 187zM428 1245l53 256h267l-54 -256h-266zM446 662h443q6 31 6 59q0 84 -49 130t-131 46q-41 0 -82 -10t-76 -37t-63.5 -73t-47.5 -115zM842 1245l53 256h266l-53 -256h-266z" />
<glyph unicode="&#x452;" horiz-adv-x="1282" d="M121 0l239 1130h-188l45 211h189l26 121h287l-27 -121h383l-45 -211h-383l-59 -280q68 78 149.5 123t175.5 45q156 0 236 -87t80 -235q0 -27 -5 -58.5t-11.5 -64t-13.5 -61.5t-11 -49l-98 -467q-12 -61 -38 -128t-73 -121t-122 -90t-187 -36q-45 0 -100.5 9.5 t-108.5 25.5l86 215q35 -10 62.5 -13t52.5 -3q61 0 92.5 32.5t46.5 102.5l119 551q4 20 8 56t4 44q0 66 -32 101.5t-103 35.5q-43 0 -87 -16.5t-81 -45t-64.5 -68.5t-38.5 -89l-118 -559h-287z" />
<glyph unicode="&#x453;" horiz-adv-x="915" d="M66 0l229 1081h756l-52 -239h-469l-178 -842h-286zM471 1217l312 317h338l-371 -317h-279z" />
<glyph unicode="&#x454;" horiz-adv-x="1187" d="M133 442q0 178 52.5 305t137.5 208t191.5 119t216.5 38q102 0 177 -23.5t127 -67.5t84 -106.5t48 -138.5l-276 -37q-16 72 -53 111t-129 39q-98 0 -169 -65.5t-96 -176.5h426l-41 -201h-419q0 -117 54 -186.5t165 -69.5q53 0 91 10.5t63.5 31t43 48t31.5 62.5h275 q-31 -106 -79 -178t-116 -116t-154 -62.5t-188 -18.5q-117 0 -203 38t-144.5 101.5t-87 150.5t-28.5 185z" />
<glyph unicode="&#x455;" horiz-adv-x="1099" d="M68 336h272q10 -86 63.5 -117t145.5 -31q98 0 143 29t45 94q0 41 -25.5 70t-93.5 43l-116 25q-176 37 -246 116.5t-70 190.5q0 90 36 157.5t99.5 112.5t152.5 67.5t194 22.5q78 0 151.5 -16.5t134 -54t100.5 -101t48 -158.5l-262 -32q-4 33 -14.5 59.5t-32 47t-54 31.5 t-82.5 11q-63 0 -100 -12t-56.5 -30.5t-24.5 -39t-5 -39.5q0 -45 32 -70.5t105 -41.5l109 -23q92 -18 152.5 -49t97.5 -72t51 -90t14 -104q0 -106 -40 -177t-108.5 -112t-160.5 -58.5t-195 -17.5q-90 0 -172 18.5t-145.5 61.5t-102 113.5t-40.5 175.5z" />
<glyph unicode="&#x456;" horiz-adv-x="544" d="M68 0l229 1081h287l-230 -1081h-286zM319 1223l56 258h295l-56 -258h-295z" />
<glyph unicode="&#x457;" horiz-adv-x="544" d="M68 0l229 1081h287l-230 -1081h-286zM111 1245l53 256h266l-53 -256h-266zM524 1245l54 256h266l-53 -256h-267z" />
<glyph unicode="&#x458;" horiz-adv-x="544" d="M-274 -334l81 211q25 -10 57 -17t66 -7q53 0 85 29.5t51 113.5l231 1085h287l-242 -1128q-20 -92 -50 -156.5t-75 -103.5t-107.5 -56.5t-146.5 -17.5q-66 0 -125 12.5t-112 34.5zM319 1223l56 258h295l-56 -258h-295z" />
<glyph unicode="&#x459;" horiz-adv-x="1767" d="M-49 -10l47 233h22q51 0 92.5 19.5t75 62.5t63.5 112.5t62 170.5l158 493h750l-74 -346h180q98 0 173 -24.5t125 -68.5t74.5 -104.5t24.5 -129.5q0 -186 -128 -297t-379 -111h-512l178 844h-205l-88 -287q-47 -150 -97.5 -257t-115 -176t-145 -101.5t-187.5 -32.5h-94z M1040 233h203q94 0 141.5 44.5t47.5 123.5q0 41 -31 72t-105 31h-198z" />
<glyph unicode="&#x45a;" horiz-adv-x="1787" d="M66 0l231 1081h287l-82 -381h379l82 381h286l-82 -381h191q98 0 172 -24.5t121 -66.5t70.5 -98t23.5 -120q0 -182 -131 -286.5t-383 -104.5h-498l98 469h-378l-101 -469h-286zM1069 233h203q94 0 137 35t43 101q0 39 -25.5 69.5t-99.5 30.5h-209z" />
<glyph unicode="&#x45b;" horiz-adv-x="1273" d="M119 0l237 1130h-186l45 211h186l27 121h287l-27 -121h383l-45 -211h-381l-59 -280q76 90 157.5 129t174.5 39q150 0 229.5 -81t79.5 -226q0 -66 -15 -131l-125 -580h-286l119 555q10 51 10 84q0 72 -34 105.5t-93 33.5q-55 0 -96 -15t-82 -48q-37 -29 -63.5 -69 t-37.5 -87l-118 -559h-287z" />
<glyph unicode="&#x45c;" horiz-adv-x="1144" d="M66 0l231 1081h287l-97 -442h52q37 0 77.5 24.5t88.5 100.5l83 133q35 55 69 90t72 56.5t82 29.5t99 8q29 0 73 -6t74 -16l-59 -207q-10 2 -22 4q-10 2 -23.5 4t-24.5 2q-47 0 -72.5 -20.5t-56.5 -67.5l-59 -90q-31 -49 -66.5 -80t-80.5 -49q63 -25 91.5 -73t45.5 -93 l143 -389h-289l-108 319q-10 31 -22.5 54.5t-31 39t-46 23.5t-66.5 8h-64l-96 -444h-284zM604 1217l312 317h338l-371 -317h-279z" />
<glyph unicode="&#x45d;" horiz-adv-x="1193" d="M66 0l231 1081h260l-145 -678l585 678h234l-232 -1081h-260l138 639l-564 -639h-247zM467 1534h314l180 -317h-256z" />
<glyph unicode="&#x45e;" horiz-adv-x="1161" d="M-8 -360l74 213q25 -8 54.5 -14.5t63.5 -6.5q57 0 95 31t77 98l54 92l-234 1028h320l110 -712l377 712h326l-664 -1112q-55 -92 -102 -160.5t-98.5 -114.5t-114 -68.5t-148.5 -22.5q-53 0 -98 9t-92 28zM415 1473q0 23 2 37t5 22h202q-2 -10 -2 -17.5v-15.5 q0 -18 6.5 -38.5t22.5 -36t45 -25.5t76 -10q78 0 126 32.5t68 110.5h205q-14 -70 -44 -128t-80 -101t-122.5 -67t-171.5 -24q-68 0 -129 14.5t-107 45.5t-74 80t-28 121z" />
<glyph unicode="&#x45f;" horiz-adv-x="1220" d="M66 0l229 1081h287l-179 -843h404l178 843h287l-230 -1081h-362l-62 -287h-245l59 287h-366z" />
<glyph unicode="&#x462;" horiz-adv-x="1562" d="M197 1135l53 245h352l31 140h305l-31 -140h439l-54 -245h-436l-37 -174h215q233 0 366.5 -110t133.5 -312q0 -262 -177 -400.5t-497 -138.5h-547l238 1135h-354zM670 252h245q154 0 235 64.5t81 205.5q0 86 -57.5 135.5t-182.5 49.5h-225z" />
<glyph unicode="&#x463;" horiz-adv-x="1267" d="M129 870l45 211h227l91 418h286l-90 -418h404l-45 -211h-404l-29 -135h213q98 0 173 -24.5t125.5 -68.5t75 -104.5t24.5 -129.5q0 -186 -128 -297t-380 -111h-547l186 870h-227zM506 233h237q94 0 141.5 44.5t47.5 123.5q0 41 -31 72t-104 31h-230z" />
<glyph unicode="&#x472;" horiz-adv-x="1597" d="M186 578q0 176 53.5 341.5t157 294.5t256 207t351.5 78q141 0 250.5 -46t184 -127t113.5 -193.5t39 -245.5q0 -178 -51 -345t-152.5 -296t-254 -206t-353.5 -77q-141 0 -251.5 45t-186.5 127t-116 194.5t-40 248.5zM502 596q0 -166 74.5 -268.5t224.5 -102.5 q84 0 152.5 29t121.5 79t92 115.5t64 139.5q-49 -25 -97.5 -31t-82.5 -6q-66 0 -114 22.5t-91 48t-88 48t-107 22.5q-29 0 -67.5 -5t-79.5 -21q-2 -16 -2 -35v-35zM553 893q47 23 94 29t82 6q66 0 114 -22.5t92 -48.5t89 -48.5t106 -22.5q29 0 67 4.5t77 20.5q2 14 2 28.5 v28.5q0 82 -18.5 149.5t-55.5 117t-93 76t-130 26.5q-82 0 -149.5 -27.5t-121 -75t-92 -109.5t-63.5 -132z" />
<glyph unicode="&#x473;" horiz-adv-x="1261" d="M127 426q0 160 47 288t132 217t200 137t250 48q109 0 195.5 -36t147 -98t93.5 -146t33 -179q0 -164 -46 -292.5t-129 -217t-199 -134.5t-253 -46q-109 0 -196 36t-148 98.5t-94 146.5t-33 178zM414 424q0 -115 51 -177.5t147 -62.5q98 0 175 61.5t118 194.5 q-39 -20 -74.5 -24t-64.5 -4q-43 0 -71.5 12t-55.5 25.5t-55.5 25.5t-67.5 12q-23 0 -48.5 -3t-53.5 -15v-45zM446 645q35 18 69 22.5t63 4.5q41 0 70.5 -12.5t56 -25.5t54 -25.5t68.5 -12.5q23 0 49.5 2t57.5 16q2 10 2 21.5v21.5q0 113 -50.5 177.5t-146.5 64.5 q-98 0 -175 -62.5t-118 -191.5z" />
<glyph unicode="&#x474;" horiz-adv-x="1624" d="M268 1462h324l143 -1034l406 754q37 72 78 130t94 100t122.5 64.5t166.5 22.5q76 0 148.5 -21.5t133.5 -62.5l-112 -233q-33 20 -70 32.5t-74 12.5q-45 0 -77.5 -12.5t-57.5 -35t-44 -53t-38 -65.5l-612 -1061h-291z" />
<glyph unicode="&#x475;" horiz-adv-x="1306" d="M176 1081h318l84 -755l274 503q49 88 91 143.5t85 86.5t93 42t114 11q86 0 143.5 -34t85.5 -58l-114 -193q-16 14 -40 27.5t-59 13.5q-53 0 -85.5 -35.5t-80.5 -113.5l-432 -719h-291z" />
<glyph unicode="&#x48a;" horiz-adv-x="1552" d="M88 0l307 1462h297l-203 -960l795 960h275l-256 -1198h182q-8 -121 -42 -218t-87 -176t-124 -142.5t-155 -118.5l-166 186q66 47 127.5 97.5t100.5 107.5h-189l205 950l-795 -950h-272zM676 1843q0 23 2 37t4 23h203q-2 -10 -2 -17.5v-15.5q0 -18 6 -39t22.5 -36 t45 -25.5t75.5 -10.5q78 0 126 33t69 111h205q-14 -70 -44 -128.5t-80.5 -101.5t-123 -66.5t-170.5 -23.5q-68 0 -129.5 14.5t-107.5 45t-73.5 80t-27.5 120.5z" />
<glyph unicode="&#x48b;" horiz-adv-x="1224" d="M66 0h247l564 639l-138 -639h146q-27 -47 -76 -90t-90 -78l151 -154q94 66 154.5 130.5t94.5 133t47.5 141.5t17.5 155h-133l180 843h-234l-585 -678l145 678h-260zM461 1468q0 23 2 37.5t4 22.5h203q-2 -10 -2 -17.5v-15.5q0 -18 6 -38.5t22.5 -36t45 -26t75.5 -10.5 q78 0 126 33t69 111h205q-14 -70 -44 -128.5t-80.5 -101.5t-123 -66.5t-170.5 -23.5q-68 0 -129.5 14.5t-107.5 45t-73.5 80t-27.5 120.5z" />
<glyph unicode="&#x48c;" horiz-adv-x="1378" d="M158 0l229 1092h-219l49 245h221l27 125h305l-27 -125h289l-51 -245h-291l-26 -131h194q233 0 366.5 -110t133.5 -312q0 -262 -177 -400.5t-497 -138.5h-526zM514 252h225q154 0 235 64.5t81 205.5q0 86 -57.5 135.5t-182.5 49.5h-205z" />
<glyph unicode="&#x48d;" horiz-adv-x="1247" d="M119 815l43 211h207l20 96h287l-21 -96h353l-43 -211h-355l-18 -86h223q98 0 173 -25.5t124 -69.5t73.5 -104.5t24.5 -130.5q0 -186 -128 -292.5t-380 -106.5h-552l174 815h-205zM485 233h244q188 0 189 162q0 41 -31 70t-105 29h-239z" />
<glyph unicode="&#x48e;" horiz-adv-x="1372" d="M88 0l309 1462h566q135 0 228 -38t152.5 -96t86 -129.5t26.5 -139.5q0 -203 -92 -324t-264 -174l65 -151l-190 -99l-90 213q-23 -2 -44.5 -2h-43.5h-297l-111 -522h-301zM553 776h227l-65 156l188 98l96 -229q68 25 108 80t40 155q0 72 -52.5 123t-181.5 51h-268z" />
<glyph unicode="&#x48f;" horiz-adv-x="1280" d="M-18 -397l313 1478h278l-26 -133q55 74 139 120t195 46q94 0 163.5 -36t115.5 -99.5t69.5 -149.5t23.5 -186q0 -104 -22.5 -199.5t-63.5 -175.5t-96 -141t-123 -100l80 -185l-174 -84l-92 211q-8 -2 -17.5 -2h-15.5q-123 0 -205 41t-141 139l-117 -544h-284zM446 436 q0 -41 8.5 -80t26.5 -69q47 -84 178 -88l-88 207l179 90l90 -215q55 66 84.5 164t29.5 204q0 111 -51 171.5t-129 60.5q-109 0 -190 -74q-41 -35 -69 -87t-38 -106l-16 -75q-4 -27 -9.5 -52.5t-5.5 -50.5z" />
<glyph unicode="&#x490;" horiz-adv-x="1095" d="M88 0l307 1462h660l43 203h266l-100 -467h-621l-252 -1198h-303z" />
<glyph unicode="&#x491;" horiz-adv-x="915" d="M66 0l231 1081h510l35 160h245l-86 -399h-469l-180 -842h-286z" />
<glyph unicode="&#x492;" horiz-adv-x="1157" d="M80 608l49 246h193l129 608h919l-57 -264h-615l-71 -344h381l-52 -246h-383l-127 -608h-303l127 608h-190z" />
<glyph unicode="&#x493;" horiz-adv-x="972" d="M59 389l41 211h150l102 481h756l-51 -239h-469l-51 -242h299l-43 -211h-301l-82 -389h-287l82 389h-146z" />
<glyph unicode="&#x494;" horiz-adv-x="1386" d="M88 0l313 1477h959l-55 -265h-654l-73 -344q55 16 117.5 27.5t142.5 11.5q106 0 198 -29.5t160 -91t105.5 -155.5t37.5 -221q0 -172 -52 -309.5t-153.5 -232.5t-250 -145.5t-342.5 -50.5h-82l55 260h68q86 0 165.5 24t141 78t98.5 143t37 222q0 117 -68.5 188.5 t-197.5 71.5q-66 0 -121 -10t-113 -28l-131 -621h-305z" />
<glyph unicode="&#x495;" horiz-adv-x="1171" d="M66 0l229 1081h821l-51 -237h-535l-47 -242q43 10 89 16.5t104 6.5q207 0 311.5 -119t104.5 -322q0 -287 -181.5 -443.5t-525.5 -156.5h-59l49 234h57q164 0 264.5 88t100.5 280q0 100 -51.5 153.5t-157.5 53.5q-53 0 -88 -7t-66 -17l-82 -369h-286z" />
<glyph unicode="&#x496;" horiz-adv-x="2166" d="M-47 0l514 602q59 68 111.5 105.5t109.5 54.5q-55 25 -91 73t-58 119l-43 133q-18 59 -51 93t-109 34q-12 0 -24.5 -1t-22.5 -1q-10 -2 -21 -2l41 234q49 12 80 15t72 3q111 0 172 -55t98 -160l72 -207q31 -86 81 -132t128 -46h39l127 600h305l-127 -600h39 q59 0 125.5 36t136.5 142l139 213q78 121 169 165t214 44q57 0 92 -5t68 -15l-70 -244l-20 4t-23.5 3t-27.5 1q-66 0 -106 -25.5t-85 -97.5l-98 -153q-49 -80 -100.5 -118t-106.5 -60q49 -27 86 -87.5t65 -125.5l119 -275h148l-129 -618h-267l74 354h-53l-207 498 q-23 53 -56.5 86.5t-109.5 33.5h-65l-133 -618h-306l133 618h-63q-47 0 -85 -23.5t-87 -80.5l-434 -514h-379z" />
<glyph unicode="&#x497;" horiz-adv-x="1703" d="M-41 0l313 401q59 76 112.5 112t113.5 48q-35 16 -53.5 45t-32.5 66l-37 94q-39 96 -127 96q-20 0 -41 -4q-8 -2 -19 -2l21 209q12 4 33 8q16 4 39.5 6t52.5 2q90 0 149.5 -47t94.5 -127l61 -139q27 -59 51.5 -94t73.5 -35h41l94 442h270l-94 -442h29q53 0 93 35t77 90 l92 141q115 176 330 176q41 0 78.5 -7t54.5 -15l-62 -207q-8 2 -18 4t-21.5 4t-25.5 2q-47 0 -77 -25.5t-58 -66.5l-70 -106q-59 -86 -137 -109q61 -23 91 -68t46 -88l59 -161h127l-110 -525h-236l60 287h-43l-105 319q-43 125 -166 125h-49l-96 -444h-270l96 444h-59 q-59 0 -99.5 -29.5t-91.5 -95.5l-242 -319h-313z" />
<glyph unicode="&#x498;" horiz-adv-x="1325" d="M119 451h287q10 -72 29.5 -118t53 -74t85 -39t124.5 -11q135 0 206 57.5t71 188.5q0 88 -68.5 132t-216.5 44h-143l51 243h160q72 0 132 12.5t103 38t67.5 68.5t24.5 105q0 78 -65.5 117.5t-161.5 39.5q-72 0 -125 -10t-93 -32.5t-69.5 -61.5t-50.5 -96l-276 37 q66 209 217 308t420 99q104 0 195 -25.5t156.5 -72.5t103.5 -118t38 -159q0 -145 -77.5 -232t-200.5 -132q80 -47 130 -123t50 -176q0 -111 -38 -199t-106.5 -151.5t-165 -100.5t-212.5 -45l-33 -67q98 -16 137 -60.5t39 -95.5q0 -57 -23.5 -95t-65.5 -61.5t-101.5 -33 t-128.5 -9.5q-29 0 -65 3t-79 12l21 139q49 -8 80.5 -10t60.5 -2q53 0 75.5 17t22.5 50q0 25 -24.5 38t-83.5 13h-72l80 166q-225 20 -345 137t-130 345z" />
<glyph unicode="&#x499;" horiz-adv-x="1140" d="M70 356h274q2 -88 60.5 -123.5t150.5 -35.5q131 0 180 34.5t49 108.5q0 61 -36.5 86t-114.5 25h-201l41 192h209q76 0 121 31t45 96q0 61 -48 89t-120 28q-102 0 -165.5 -33t-92.5 -121l-264 45q57 176 190 255t348 79q209 0 323 -72.5t114 -199.5q0 -104 -59.5 -171 t-155.5 -100q70 -29 114.5 -81t44.5 -148q0 -90 -33.5 -156.5t-94 -110.5t-143.5 -68.5t-181 -31.5l-35 -73q94 -14 130 -58.5t36 -93.5q0 -111 -84 -151.5t-221 -40.5q-29 0 -64 3t-78 11l21 139q47 -8 78.5 -10t58.5 -2q53 0 74.5 15.5t21.5 45.5q0 25 -23.5 39.5 t-82.5 14.5h-70l82 163q-197 18 -295 115.5t-104 265.5z" />
<glyph unicode="&#x49a;" horiz-adv-x="1409" d="M88 0l307 1462h305l-125 -598h58q45 0 84 16.5t73.5 46t66.5 67.5t67 81l114 148q43 55 86 99t91.5 74.5t103.5 48t123 17.5q45 0 90 -8t65 -14l-69 -244q-20 4 -43 7t-39 3q-68 0 -112 -42t-87 -99l-96 -125q-49 -63 -103.5 -111.5t-134.5 -76.5q74 -29 113 -91.5 t74 -138.5l119 -258h143l-129 -618h-266l73 354h-22l-213 471q-35 74 -78 109.5t-121 35.5h-82l-133 -616h-303z" />
<glyph unicode="&#x49b;" horiz-adv-x="1136" d="M66 0l231 1081h287l-97 -442h52q37 0 77.5 24.5t88.5 100.5l83 133q35 55 69 90t72 56.5t82 29.5t99 8q29 0 73 -6t74 -16l-59 -207q-10 2 -22 4q-10 2 -23.5 4t-24.5 2q-47 0 -72.5 -20.5t-56.5 -67.5l-59 -90q-31 -49 -66.5 -80t-80.5 -49q63 -25 91.5 -73t45.5 -93 l55 -151h125l-113 -525h-245l59 287h-27l-108 319q-10 31 -22.5 54.5t-31 39t-46 23.5t-66.5 8h-64l-96 -444h-284z" />
<glyph unicode="&#x49c;" horiz-adv-x="1470" d="M88 0l307 1462h305l-129 -610h95l61 281h197l-45 -211q31 29 61.5 67.5t69.5 85.5l114 148q43 55 85 99t88 74.5t99.5 48t121.5 17.5q45 0 90 -8t65 -14l-69 -244q-20 4 -43 7t-39 3q-68 0 -112 -42t-87 -99l-96 -125q-49 -63 -103.5 -111.5t-134.5 -76.5 q74 -29 113 -91.5t74 -138.5l241 -522h-323l-213 471q-16 35 -35 62.5t-41 48.5l-47 -226h-197l57 269h-94l-133 -625h-303z" />
<glyph unicode="&#x49d;" horiz-adv-x="1220" d="M66 0l231 1081h285l-97 -446h58l49 227h164l-43 -200q14 12 29.5 30.5t33.5 46.5l96 158q33 55 66 91t69.5 56.5t79.5 28.5t99 8q29 0 73 -6t74 -16l-59 -207q-10 2 -23 4q-10 2 -23.5 4t-23.5 2q-47 0 -72.5 -20.5t-56.5 -67.5l-59 -90q-31 -49 -67 -80t-81 -49 q63 -25 92 -73t46 -93l143 -389h-285l-104 319q-16 45 -35.5 75t-58.5 44l-45 -209h-164l47 222h-58l-96 -451h-284z" />
<glyph unicode="&#x49e;" horiz-adv-x="1443" d="M133 0l221 1051h-174l51 243h175l34 168h305l-34 -168h196l-49 -243h-199l-38 -187h57q90 0 158.5 62.5t136.5 148.5l114 148q43 55 86.5 99t91.5 74.5t103 48t123 17.5q45 0 90 -8t66 -14l-70 -244q-20 4 -43 7t-39 3q-68 0 -112 -42t-87 -99l-96 -125 q-49 -63 -103.5 -111.5t-133.5 -76.5q74 -29 112.5 -91.5t73.5 -138.5l242 -522h-324l-213 471q-35 74 -80 109.5t-123 35.5h-82l-133 -616h-303z" />
<glyph unicode="&#x49f;" d="M117 0l162 758h-160l43 209h162l24 114h287l-25 -114h148l-43 -209h-152l-24 -119h79q37 0 78 24.5t88 100.5l84 133q35 55 67 90t67.5 56.5t77.5 29.5t98 8q29 0 72.5 -6t74.5 -16l-59 -207q-10 2 -23 4q-10 2 -23.5 4t-23.5 2q-47 0 -72.5 -20.5t-56.5 -67.5l-59 -90 q-31 -49 -67 -80t-81 -49q63 -25 92 -73t45 -93l144 -389h-289l-109 319q-10 31 -22 54.5t-30.5 39t-46.5 23.5t-66 8h-80l-97 -444h-284z" />
<glyph unicode="&#x4a0;" horiz-adv-x="1609" d="M231 1198l58 264h626l-124 -598h57q45 0 84 16.5t73.5 46t66.5 67.5t67 81l114 148q43 55 86 99t91.5 74.5t103.5 48t123 17.5q45 0 90 -8t65 -14l-69 -244q-20 4 -43 7t-39 3q-68 0 -112 -42t-87 -99l-96 -125q-49 -63 -103.5 -111.5t-134.5 -76.5q74 -29 113 -91.5 t74 -138.5l241 -522h-323l-213 471q-35 74 -78 109.5t-121 35.5h-82l-133 -616h-303l252 1198h-324z" />
<glyph unicode="&#x4a1;" horiz-adv-x="1253" d="M123 844l49 237h518l-94 -442h51q37 0 78 24.5t88 100.5l84 133q35 55 68.5 90t71.5 56.5t82 29.5t100 8q29 0 72.5 -6t74.5 -16l-59 -207q-10 2 -23 4q-10 2 -23.5 4t-23.5 2q-47 0 -72.5 -20.5t-56.5 -67.5l-59 -90q-31 -49 -67 -80t-81 -49q63 -25 92 -73t45 -93 l144 -389h-289l-109 319q-10 31 -22 54.5t-30.5 39t-46.5 23.5t-67 8h-63l-96 -444h-285l180 844h-231z" />
<glyph unicode="&#x4a2;" horiz-adv-x="1548" d="M88 0l309 1462h305l-118 -565h579l119 565h305l-254 -1198h168l-131 -618h-266l76 354h-207l129 614h-580l-129 -614h-305z" />
<glyph unicode="&#x4a3;" horiz-adv-x="1275" d="M66 0l231 1081h287l-86 -405h426l86 405h286l-180 -843h133l-110 -525h-248l59 287h-172l92 438h-426l-92 -438h-286z" />
<glyph unicode="&#x4a4;" horiz-adv-x="1703" d="M88 0l309 1462h305l-118 -565h579l119 565h631l-58 -264h-323l-254 -1198h-305l129 614h-580l-129 -614h-305z" />
<glyph unicode="&#x4a5;" horiz-adv-x="1353" d="M66 0l231 1081h287l-86 -405h426l86 405h518l-51 -237h-232l-180 -844h-287l92 438h-426l-92 -438h-286z" />
<glyph unicode="&#x4a6;" horiz-adv-x="2215" d="M88 0l309 1462h1135l-125 -594q55 16 118.5 27.5t143.5 11.5q106 0 198.5 -29.5t160 -91t105.5 -155.5t38 -221q0 -172 -52.5 -309.5t-153.5 -232.5t-249.5 -145.5t-343.5 -50.5h-82l56 260h67q86 0 166 24t141.5 78t98 143t36.5 222q0 117 -68.5 188.5t-197.5 71.5 q-66 0 -121 -10t-112 -28l-133 -621h-305l253 1198h-526l-252 -1198h-305z" />
<glyph unicode="&#x4a7;" horiz-adv-x="1839" d="M66 0l231 1081h954l-104 -479q43 10 89 16.5t103 6.5q207 0 313.5 -119t106.5 -322q0 -287 -183 -443.5t-527 -156.5h-60l49 234h58q82 0 149.5 21.5t116.5 66.5t75.5 114.5t26.5 165.5q0 100 -53 153.5t-160 53.5q-53 0 -88 -7t-65 -17l-80 -369h-285l178 844h-381 l-178 -844h-286z" />
<glyph unicode="&#x4a8;" horiz-adv-x="1728" d="M182 567q0 188 55.5 357.5t165 297.5t272.5 202.5t376 74.5q94 0 167.5 -18.5t159.5 -59.5l-116 -225q-53 25 -103.5 38t-118.5 13q-135 0 -237.5 -54t-173 -144.5t-106.5 -205t-36 -233.5q0 -109 24 -185.5t63.5 -125.5t94 -71.5t117.5 -22.5q35 0 65 1t67 9 q-51 74 -82 165t-31 173q0 102 25.5 198.5t83 170t148.5 117.5t220 44q170 0 270.5 -100t100.5 -285q0 -147 -58.5 -277t-183.5 -222q16 -2 26.5 -2h22.5q109 0 199 30l35 -221q-72 -25 -151 -34t-138 -9q-86 0 -155.5 19.5t-135.5 54.5q-70 -33 -149.5 -53.5t-200.5 -20.5 q-115 0 -220.5 35t-185 108.5t-128 187.5t-48.5 273zM1079 565q0 -86 20.5 -161.5t71.5 -131.5q94 57 151.5 163t57.5 251q0 29 -6 58.5t-20.5 54t-37 40t-54.5 15.5q-53 0 -88 -26.5t-55.5 -68.5t-30 -93.5t-9.5 -100.5z" />
<glyph unicode="&#x4a9;" horiz-adv-x="1318" d="M125 430q0 135 40 259t117.5 218t193.5 149.5t267 55.5q61 0 129 -12.5t127 -40.5l-77 -197q-41 16 -82 24.5t-97 8.5q-86 0 -151.5 -34t-109.5 -93t-65.5 -142t-21.5 -182q0 -137 62.5 -208.5t148.5 -71.5q23 0 40.5 2t37.5 6q-41 47 -57.5 116.5t-16.5 133.5 q0 76 23.5 142.5t67.5 115.5t108.5 76.5t144.5 27.5q63 0 114.5 -22.5t86.5 -60t53.5 -88t18.5 -105.5q0 -104 -48.5 -193.5t-138.5 -156.5q47 0 83 4t65 10q31 8 57 16l45 -180q-20 -14 -51 -22q-27 -10 -68 -16.5t-94 -6.5q-29 0 -62.5 3t-68.5 10.5t-67.5 20.5t-59.5 32 q-61 -33 -120.5 -46.5t-127.5 -13.5q-102 0 -185 35t-141.5 96.5t-89 145.5t-30.5 184zM823 406q0 -16 2 -41t8.5 -51.5t17.5 -50t30 -40.5q76 51 104.5 127t28.5 146q0 39 -14.5 70.5t-61.5 31.5q-57 0 -86 -59.5t-29 -132.5z" />
<glyph unicode="&#x4aa;" horiz-adv-x="1460" d="M182 623q0 172 53.5 330.5t152.5 280.5t240.5 193.5t317.5 71.5q143 0 247.5 -37t173.5 -103.5t104.5 -159.5t44.5 -206l-304 -41q-8 68 -24.5 121t-49 89t-81.5 55.5t-121 19.5q-102 0 -182 -49t-135.5 -131t-85 -189.5t-29.5 -224.5q0 -86 14 -161.5t50 -132 t93.5 -90.5t143.5 -34q150 0 225.5 72t99.5 209h328q-25 -119 -68.5 -215t-115.5 -166t-176.5 -111t-247.5 -49l-33 -67q98 -16 137 -60.5t39 -95.5q0 -57 -23.5 -95t-65.5 -61.5t-101.5 -33t-128.5 -9.5q-29 0 -65 3t-79 12l21 139q49 -8 81 -10t60 -2q53 0 76 17t23 50 q0 25 -25 38t-84 13h-72l80 166q-135 14 -231.5 71.5t-157.5 144.5t-90 200t-29 238z" />
<glyph unicode="&#x4ab;" horiz-adv-x="1165" d="M127 428q0 166 47 295t129 216t192.5 132t239.5 45q102 0 178 -28.5t128.5 -79t81 -121t34.5 -156.5l-289 -37q-8 94 -42.5 143.5t-127.5 49.5q-55 0 -105 -30t-88 -87t-59.5 -144t-21.5 -200q0 -100 46 -164.5t144 -64.5q180 0 217 190h291q-35 -195 -145.5 -298 t-321.5 -120l-32 -69q94 -14 129.5 -58.5t35.5 -93.5q0 -111 -83.5 -151.5t-221.5 -40.5q-29 0 -63.5 3t-77.5 11l20 139q47 -8 79 -10t59 -2q53 0 74.5 15.5t21.5 45.5q0 25 -23.5 39.5t-83.5 14.5h-69l80 161q-88 12 -157 50t-117 97.5t-73.5 137.5t-25.5 170z" />
<glyph unicode="&#x4ac;" horiz-adv-x="1269" d="M233 1198l56 264h1188l-56 -264h-440l-199 -934h168l-131 -618h-282l75 354h-192l254 1198h-441z" />
<glyph unicode="&#x4ad;" horiz-adv-x="1044" d="M102 844l52 237h983l-52 -237h-346l-129 -606h133l-110 -525h-248l59 287h-172l181 844h-351z" />
<glyph unicode="&#x4ae;" horiz-adv-x="1345" d="M268 1462h328l195 -592l446 592h336l-678 -866l-125 -596h-305l125 596z" />
<glyph unicode="&#x4af;" horiz-adv-x="1163" d="M156 1081h319l137 -741l408 741h323l-649 -1058l-88 -420h-287l89 420z" />
<glyph unicode="&#x4b0;" horiz-adv-x="1345" d="M252 395l53 244h270l-305 823h328l195 -592l446 592h336l-645 -823h262l-53 -244h-285l-82 -395h-305l82 395h-297z" />
<glyph unicode="&#x4b1;" horiz-adv-x="1163" d="M154 0l49 231h153l-198 850h319l135 -741l408 741h323l-522 -850h160l-49 -231h-242l-84 -397h-287l84 397h-249z" />
<glyph unicode="&#x4b2;" horiz-adv-x="1392" d="M-49 0l672 774l-332 688h334l206 -471l406 471h342l-614 -704l237 -494h148l-129 -618h-263l74 354h-35l-245 537l-453 -537h-348z" />
<glyph unicode="&#x4b3;" horiz-adv-x="1105" d="M-45 0l502 567l-246 514h324l127 -313l262 313h317l-457 -524l148 -319h133l-113 -525h-245l59 287h-41l-152 356l-288 -356h-330z" />
<glyph unicode="&#x4b4;" horiz-adv-x="1751" d="M231 1198l56 264h1016l-56 -264h-352l-197 -934h533l254 1198h305l-254 -1198h168l-131 -618h-266l75 354h-1044l252 1198h-359z" />
<glyph unicode="&#x4b5;" horiz-adv-x="1339" d="M152 844l49 237h717l-50 -237h-223l-127 -606h375l178 843h287l-178 -843h133l-111 -525h-248l60 287h-834l178 844h-206z" />
<glyph unicode="&#x4b6;" horiz-adv-x="1447" d="M254 834.5q-16 95.5 8 214.5l88 413h305l-77 -370q-16 -72 -16.5 -131.5t22 -101.5t70.5 -64.5t128 -22.5q70 0 143.5 14.5t121.5 34.5l135 641h305l-254 -1198h168l-131 -618h-283l76 354h-191l125 592q-68 -29 -151.5 -45.5t-169.5 -16.5q-119 0 -208 37t-143.5 104.5 t-70.5 163z" />
<glyph unicode="&#x4b7;" horiz-adv-x="1183" d="M184 696q0 27 4.5 55.5t10.5 59.5l57 270h287l-58 -268q-4 -20 -6 -37.5t-2 -34.5q0 -72 40 -102.5t132 -30.5q53 0 98.5 7.5t73.5 17.5l97 448h286l-180 -843h133l-110 -525h-248l59 287h-172l84 399q-45 -10 -104.5 -16t-106.5 -6q-182 0 -278.5 85t-96.5 234z" />
<glyph unicode="&#x4b8;" horiz-adv-x="1429" d="M252 850q-16 90 8 199l88 413h305l-78 -381q-23 -115 -6 -193.5t107 -109.5l61 269h246l-61 -275q47 10 92 21.5t73 23.5l136 645h305l-309 -1462h-306l125 592q-72 -31 -168 -47l-57 -256h-246l56 246q-102 10 -180 51t-126.5 107.5t-64.5 156.5z" />
<glyph unicode="&#x4b9;" horiz-adv-x="1193" d="M184 696q0 27 4.5 55.5t10.5 59.5l57 270h287l-60 -280q-4 -20 -8 -44t-4 -40q0 -47 13.5 -74t52.5 -37l45 213h215l-47 -217q35 4 63.5 9t44.5 12l100 458h287l-231 -1081h-287l88 410q-20 -4 -48 -7.5l-60 -7.5l-45 -217h-216l46 215q-150 16 -229 92t-79 211z" />
<glyph unicode="&#x4ba;" horiz-adv-x="1388" d="M88 0l307 1462h305l-120 -571q68 29 151.5 44t169.5 15q119 0 208 -36.5t143.5 -104.5t70.5 -163t-8 -214l-92 -432h-305l81 389q14 72 15.5 131.5t-21 101.5t-71 64.5t-127.5 22.5q-70 0 -143.5 -14.5t-121.5 -35.5l-139 -659h-303z" />
<glyph unicode="&#x4bb;" d="M66 0l309 1462h287l-111 -518q76 90 158 129t174 39q150 0 229.5 -81t79.5 -226q0 -66 -14 -131l-144 -674h-286l137 649q10 51 10 84q0 72 -34 105.5t-93 33.5q-55 0 -96 -15t-82 -48q-37 -29 -63.5 -69t-37.5 -87l-137 -653h-286z" />
<glyph unicode="&#x4bc;" horiz-adv-x="1835" d="M143 926q0 84 30 154.5t75 127.5l203 -63q-25 -37 -44.5 -80t-19.5 -94t36 -84t128 -33q35 135 101.5 252t160.5 205t215 138t266 50q137 0 246 -44t183.5 -123t113.5 -189.5t39 -243.5q0 -70 -4 -114t-8 -85l-11 -79h-1026q-2 -18 -2 -34v-26q0 -86 24.5 -149.5 t66.5 -106.5t97.5 -63.5t119.5 -20.5q86 0 147 20.5t102 52.5t66 70.5t37 75.5h321q-82 -248 -251 -362.5t-425 -114.5q-295 0 -451.5 163t-156.5 458v34q-98 2 -169.5 27t-118 66t-69 96t-22.5 119zM862 854h701q6 49 6 94q0 63 -17.5 117.5t-51.5 94.5t-87 63.5t-127 23.5 q-82 0 -150.5 -31.5t-121.5 -86t-92 -125t-60 -150.5z" />
<glyph unicode="&#x4bd;" horiz-adv-x="1431" d="M74 705q0 115 67 219l174 -43q-16 -27 -27.5 -65t-11.5 -66q0 -45 30 -64.5t85 -21.5q57 217 210 332.5t366 115.5q100 0 180 -30.5t135 -86t84 -130t29 -163.5q0 -39 -4.5 -88t-16.5 -104l-8 -37h-717q-2 -10 -2 -20.5v-20.5q0 -117 55.5 -179.5t153.5 -62.5 q86 0 137 31t74 113h279q-43 -180 -167 -273.5t-354 -93.5q-106 0 -192 33t-145.5 93.5t-92.5 145.5t-33 187v49q-133 2 -210.5 62.5t-77.5 167.5zM672 662h442q6 31 6 59q0 84 -49 130t-131 46q-41 0 -82 -10t-75.5 -37t-63.5 -73t-47 -115z" />
<glyph unicode="&#x4be;" horiz-adv-x="1835" d="M143 926q0 84 30 154.5t75 127.5l203 -63q-25 -37 -44.5 -80t-19.5 -94t36 -84t128 -33q35 135 101.5 252t160.5 205t215 138t266 50q137 0 246 -44t183.5 -123t113.5 -189.5t39 -243.5q0 -70 -4 -114t-8 -85l-11 -79h-1026q-2 -18 -2 -34v-26q0 -86 24.5 -149.5 t66.5 -106.5t97.5 -63.5t119.5 -20.5q86 0 147 20.5t102 52.5t66 70.5t37 75.5h321q-74 -223 -220 -338.5t-363 -134.5l-68 -321h-283l72 338q-207 47 -314.5 201.5t-107.5 398.5v34q-98 2 -169.5 27t-118 66t-69 96t-22.5 119zM862 854h701q6 49 6 94q0 63 -17.5 117.5 t-51.5 94.5t-87 63.5t-127 23.5q-82 0 -150.5 -31.5t-121.5 -86t-92 -125t-60 -150.5z" />
<glyph unicode="&#x4bf;" horiz-adv-x="1431" d="M74 705q0 115 67 219l174 -43q-16 -27 -27.5 -65t-11.5 -66q0 -45 30 -64.5t85 -21.5q57 217 210 332.5t366 115.5q100 0 180 -30.5t135 -86t84 -130t29 -163.5q0 -39 -4.5 -88t-16.5 -104l-8 -37h-717q-2 -10 -2 -20.5v-20.5q0 -117 55.5 -179.5t153.5 -62.5 q86 0 137 31t74 113h279q-37 -158 -134.5 -247t-271.5 -112l-55 -262h-248l53 271q-154 35 -241 152.5t-87 289.5v49q-133 2 -210.5 62.5t-77.5 167.5zM672 662h442q6 31 6 59q0 84 -49 130t-131 46q-41 0 -82 -10t-75.5 -37t-63.5 -73t-47 -115z" />
<glyph unicode="&#x4c0;" horiz-adv-x="604" d="M88 0l309 1462h305l-309 -1462h-305z" />
<glyph unicode="&#x4c1;" horiz-adv-x="2168" d="M-47 0l514 602q59 68 111.5 105.5t109.5 54.5q-55 25 -91 73t-58 119l-43 133q-18 59 -51 93t-109 34q-12 0 -24.5 -1t-22.5 -1q-10 -2 -21 -2l41 234q49 12 80 15t72 3q111 0 172 -55t98 -160l72 -207q31 -86 81 -132t128 -46h39l127 600h305l-127 -600h39 q59 0 125.5 36t136.5 142l139 213q78 121 169 165t214 44q57 0 92 -5t68 -15l-70 -244l-20 4t-23.5 3t-27.5 1q-66 0 -106 -25.5t-85 -97.5l-98 -153q-49 -80 -100.5 -118t-106.5 -60q49 -27 86 -87.5t65 -125.5l234 -539h-342l-207 498q-23 53 -56.5 86.5t-109.5 33.5h-65 l-133 -618h-306l133 618h-63q-47 0 -85 -23.5t-87 -80.5l-434 -514h-379zM1017 1844q0 23 2 37t5 22h202q-2 -10 -2 -17.5v-15.5q0 -18 6.5 -38.5t22.5 -36t45 -25.5t76 -10q78 0 126 32.5t68 110.5h205q-14 -70 -44 -128t-80 -101t-122.5 -67t-171.5 -24q-68 0 -129 14.5 t-107 45.5t-74 80t-28 121z" />
<glyph unicode="&#x4c2;" horiz-adv-x="1724" d="M-41 0l313 401q59 76 112.5 112t113.5 48q-35 16 -53.5 45t-32.5 66l-37 94q-39 96 -127 96q-20 0 -41 -4q-8 -2 -19 -2l21 209q12 4 33 8q16 4 39.5 6t52.5 2q90 0 149.5 -47t94.5 -127l61 -139q27 -59 51.5 -94t73.5 -35h41l94 442h270l-94 -442h29q53 0 93 35t77 90 l92 141q115 176 330 176q41 0 78.5 -7t54.5 -15l-62 -207q-8 2 -18 4t-21.5 4t-25.5 2q-47 0 -77 -25.5t-58 -66.5l-70 -106q-59 -86 -137 -109q61 -23 91 -68t46 -88l148 -399h-291l-105 319q-43 125 -166 125h-49l-96 -444h-270l96 444h-59q-59 0 -99.5 -29.5t-91.5 -95.5 l-242 -319h-313zM718 1471q0 23 2 37t5 22h202q-2 -10 -2 -17.5v-15.5q0 -18 6.5 -38.5t22.5 -36t45 -25.5t76 -10q78 0 126 32.5t68 110.5h205q-14 -70 -44 -128t-80 -101t-122.5 -67t-171.5 -24q-68 0 -129 14.5t-107 45.5t-74 80t-28 121z" />
<glyph unicode="&#x4c3;" horiz-adv-x="1419" d="M88 0l307 1462h305l-127 -602h43q49 0 90.5 17.5t78 47t69.5 68.5t66 82l112 148q45 59 85 104t84 75t100.5 45t136.5 15q45 0 85 -8t60 -14l-70 -244q-20 6 -37.5 8t-33.5 2q-39 0 -67.5 -12t-51.5 -32.5t-41 -45t-39 -51.5l-94 -127q-31 -41 -75 -78t-89 -53 q172 -39 277.5 -158t105.5 -311q0 -164 -54 -288t-157.5 -208t-252 -127t-335.5 -43h-94l55 262h99q98 0 176 23t133 71t85 123.5t30 184.5q0 55 -20.5 107.5t-60.5 91t-101.5 62.5t-143.5 24h-203l-133 -621h-303z" />
<glyph unicode="&#x4c4;" horiz-adv-x="1202" d="M66 0l229 1081h285l-95 -440h39q37 0 77 23.5t87 99.5l84 133q35 55 68.5 90t71.5 56.5t82 29.5t100 8q29 0 72.5 -6t74.5 -16l-59 -207q-10 2 -23 4q-10 2 -23.5 4t-23.5 2q-47 0 -72.5 -20.5t-56.5 -67.5l-65 -98q-20 -29 -43 -47.5t-48 -30.5q66 -18 121.5 -52t96 -83 t63 -114.5t22.5 -149.5q0 -141 -43 -255t-131 -194t-222 -123t-316 -43h-80l49 234h74q182 0 279.5 96t97.5 283q0 131 -82 189t-205 58h-107l-94 -444h-284z" />
<glyph unicode="&#x4c5;" horiz-adv-x="1613" d="M-18 -16l53 260h33q76 0 137 24.5t114.5 85t100.5 164t96 260.5l213 684h920l-256 -1198h172q-8 -121 -42 -218t-87.5 -176t-124 -142.5t-154.5 -118.5l-166 186q66 47 127.5 97.5t100.5 107.5h-187l256 1206h-336l-172 -553q-53 -172 -116.5 -299t-147.5 -209 t-193.5 -121.5t-254.5 -39.5h-86z" />
<glyph unicode="&#x4c6;" horiz-adv-x="1253" d="M-49 -10l47 233h22q51 0 92.5 19.5t75 62.5t63.5 112.5t62 170.5l158 493h803l-178 -843h133q-4 -82 -17.5 -155t-47.5 -141.5t-94 -133t-155 -130.5l-151 154q41 35 90 78t76 90h-172l178 844h-258l-88 -287q-47 -150 -97.5 -257t-115 -176t-145 -101.5t-187.5 -32.5 h-94z" />
<glyph unicode="&#x4c7;" horiz-adv-x="1488" d="M88 0l309 1462h305l-118 -565h579l119 565h305l-319 -1509q-27 -123 -70 -195.5t-98.5 -112.5t-118.5 -52.5t-127 -12.5q-121 0 -231 41l82 229q27 -8 59.5 -13t60.5 -5q25 0 46.5 4t39 18.5t29.5 40t23 66.5l139 653h-580l-129 -614h-305z" />
<glyph unicode="&#x4c8;" horiz-adv-x="1245" d="M66 0l231 1081h287l-86 -405h426l86 405h286l-249 -1167q-20 -92 -50 -156.5t-75 -103.5t-107.5 -56.5t-146.5 -17.5q-66 0 -125.5 12.5t-112.5 34.5l82 211q25 -10 56.5 -17t66.5 -7q51 0 84 31.5t51 115.5l102 477h-428l-92 -438h-286z" />
<glyph unicode="&#x4c9;" horiz-adv-x="1552" d="M88 0l309 1462h305l-118 -565h579l119 565h305l-254 -1198h172q-8 -121 -41.5 -218t-87 -176t-124 -142.5t-154.5 -118.5l-166 186q66 47 127 97.5t100 107.5h-186l129 614h-580l-129 -614h-305z" />
<glyph unicode="&#x4ca;" horiz-adv-x="1275" d="M66 0l231 1081h287l-86 -405h426l86 405h286l-178 -843h131q-4 -82 -17 -155t-47 -141.5t-94.5 -133t-154.5 -130.5l-152 154q41 35 90.5 78t75.5 90h-172l92 438h-426l-92 -438h-286z" />
<glyph unicode="&#x4cb;" horiz-adv-x="1388" d="M255 857q-17 95 7 214l84 391h305l-73 -348q-16 -72 -15.5 -131t23 -101t72 -64.5t128.5 -22.5q70 0 144 14t121 35l131 618h305l-309 -1462h-195l-74 -354h-280l131 618h168l73 350q-68 -29 -151.5 -45t-169.5 -16q-119 0 -208 37t-144.5 104.5t-72.5 162.5z" />
<glyph unicode="&#x4cc;" horiz-adv-x="1153" d="M190 723q0 27 4.5 55.5t10.5 59.5l51 243h287l-51 -241q-4 -20 -6.5 -38t-2.5 -34q0 -72 40 -102.5t132 -30.5q53 0 98.5 7t73.5 17l91 422h286l-231 -1081h-172l-60 -287h-247l110 525h131l41 188q-45 -10 -104.5 -16.5t-106.5 -6.5q-182 0 -278.5 85t-96.5 235z" />
<glyph unicode="&#x4cd;" horiz-adv-x="1824" d="M88 0l309 1462h359l137 -1091l602 1091h365l-256 -1198h172q-8 -121 -42 -218t-87.5 -176t-124 -142.5t-154.5 -118.5l-166 186q66 47 127.5 97.5t100.5 107.5h-160l207 975l-537 -975h-238l-135 973l-205 -973h-274z" />
<glyph unicode="&#x4ce;" horiz-adv-x="1517" d="M66 0l231 1081h297l160 -782l512 782h272l-180 -843h133q-4 -82 -17.5 -155t-47 -141.5t-94 -133t-154.5 -130.5l-152 154q41 35 90 78t76 90h-143l129 602l-398 -602h-186l-133 655l-137 -655h-258z" />
<glyph unicode="&#x4cf;" horiz-adv-x="604" d="M88 0l309 1462h305l-309 -1462h-305z" />
<glyph unicode="&#x4d0;" horiz-adv-x="1429" d="M-41 0l858 1462h291l240 -1462h-316l-45 338h-512l-188 -338h-328zM604 590h354l-67 524zM649 1844q0 23 2 37t5 22h202q-2 -10 -2 -17.5v-15.5q0 -18 6.5 -38.5t22.5 -36t45 -25.5t76 -10q78 0 126 32.5t68 110.5h205q-14 -70 -44 -128t-80 -101t-122.5 -67t-171.5 -24 q-68 0 -129 14.5t-107 45.5t-74 80t-28 121z" />
<glyph unicode="&#x4d1;" horiz-adv-x="1148" d="M66 274q0 119 51 193t134 116t188.5 59t211.5 22l183 8l8 43q6 31 6 57q0 66 -41 98.5t-117 32.5q-90 0 -142 -27.5t-81 -101.5l-256 25q51 174 177 245.5t333 71.5q190 0 293.5 -83t105.5 -245q0 -29 -3 -61.5t-11 -67.5l-137 -659h-271l29 135q-39 -39 -76 -69.5 t-78 -51t-89 -31t-109 -10.5q-141 0 -225 76t-84 225zM354 299q0 -49 32 -80t89 -31q55 0 100.5 13.5t86.5 42.5q45 29 75.5 73.5t42.5 108.5l13 61l-140 -8q-88 -6 -145 -19.5t-91 -36t-48.5 -54t-14.5 -70.5zM430 1471q0 23 2 37t5 22h202q-2 -10 -2 -17.5v-15.5 q0 -18 6.5 -38.5t22.5 -36t45 -25.5t76 -10q78 0 126 32.5t68 110.5h205q-14 -70 -44 -128t-80 -101t-122.5 -67t-171.5 -24q-68 0 -129 14.5t-107 45.5t-74 80t-28 121z" />
<glyph unicode="&#x4d2;" horiz-adv-x="1429" d="M-41 0l858 1462h291l240 -1462h-316l-45 338h-512l-188 -338h-328zM604 590h354l-67 524zM631 1602l55 264h275l-56 -264h-274zM1057 1602l55 264h275l-56 -264h-274z" />
<glyph unicode="&#x4d3;" horiz-adv-x="1148" d="M66 274q0 119 51 193t134 116t188.5 59t211.5 22l183 8l8 43q6 31 6 57q0 66 -41 98.5t-117 32.5q-90 0 -142 -27.5t-81 -101.5l-256 25q51 174 177 245.5t333 71.5q190 0 293.5 -83t105.5 -245q0 -29 -3 -61.5t-11 -67.5l-137 -659h-271l29 135q-39 -39 -76 -69.5 t-78 -51t-89 -31t-109 -10.5q-141 0 -225 76t-84 225zM354 299q0 -49 32 -80t89 -31q55 0 100.5 13.5t86.5 42.5q45 29 75.5 73.5t42.5 108.5l13 61l-140 -8q-88 -6 -145 -19.5t-91 -36t-48.5 -54t-14.5 -70.5zM414 1245l53 256h267l-54 -256h-266zM828 1245l53 256h266 l-53 -256h-266z" />
<glyph unicode="&#x4d4;" horiz-adv-x="2154" d="M-76 0l1135 1462h1253l-55 -260h-653l-68 -319h612l-55 -262h-612l-78 -361h696l-84 -260h-960l92 438h-537l-336 -438h-350zM793 690h407l109 512h-135z" />
<glyph unicode="&#x4d5;" horiz-adv-x="1837" d="M66 274q0 119 51 193t133 116t185.5 59t209.5 22l176 8l8 39q4 14 5.5 29.5t1.5 27.5q0 66 -37 100.5t-117 34.5q-86 0 -137 -27.5t-80 -101.5l-256 25q51 174 173 245.5t310 71.5q133 0 206 -42t114 -124q72 86 160 126t204 40q98 0 177 -31.5t133.5 -87t83 -131 t28.5 -164.5q0 -39 -3 -81.5t-13 -92.5l-13 -55h-710v-39q0 -115 55 -179.5t146 -64.5q82 0 135 31t75 113h279q-43 -186 -172 -276.5t-342 -90.5q-141 0 -227 56.5t-140 160.5q-37 -43 -76.5 -80.5t-92 -67.5t-121 -46.5t-162.5 -16.5q-172 0 -261 76t-89 225zM354 299 q0 -49 33 -80t94 -31q55 0 98.5 14.5t84.5 43.5q45 33 68.5 74.5t35.5 105.5l12 61l-133 -8q-88 -6 -144.5 -19.5t-89 -36t-46 -54t-13.5 -70.5zM1081 662h437q6 31 6 59q0 88 -49 134t-127 46q-39 0 -79 -10t-75 -37t-64.5 -74t-48.5 -118z" />
<glyph unicode="&#x4d6;" horiz-adv-x="1236" d="M88 0l309 1462h998l-56 -260h-692l-67 -319h651l-55 -262h-652l-78 -361h736l-84 -260h-1010zM567 1844q0 23 2 37t5 22h202q-2 -10 -2 -17.5v-15.5q0 -18 6.5 -38.5t22.5 -36t45 -25.5t76 -10q78 0 126 32.5t68 110.5h205q-14 -70 -44 -128t-80 -101t-122.5 -67 t-171.5 -24q-68 0 -129 14.5t-107 45.5t-74 80t-28 121z" />
<glyph unicode="&#x4d7;" horiz-adv-x="1206" d="M137 426q0 162 45 290t125 216t190.5 134t243.5 46q100 0 180 -30.5t135.5 -86t84 -130t28.5 -163.5q0 -39 -4 -88t-16 -104l-8 -37h-717q-2 -10 -2 -20.5v-20.5q0 -117 55 -179.5t154 -62.5q86 0 137 31t74 113h278q-43 -180 -167 -273.5t-353 -93.5q-106 0 -192 33 t-145.5 93.5t-92.5 145.5t-33 187zM419 1471q0 23 2 37t5 22h202q-2 -10 -2 -17.5v-15.5q0 -18 6.5 -38.5t22.5 -36t45 -25.5t76 -10q78 0 126 32.5t68 110.5h205q-14 -70 -44 -128t-80 -101t-122.5 -67t-171.5 -24q-68 0 -129 14.5t-107 45.5t-74 80t-28 121zM446 662h443 q6 31 6 59q0 84 -49 130t-131 46q-41 0 -82 -10t-76 -37t-63.5 -73t-47.5 -115z" />
<glyph unicode="&#x4d8;" horiz-adv-x="1538" d="M195 555q0 18 1 46t3 57.5t4 55t4 40.5l12 88h1000q2 23 3 44t1 42q0 59 -16.5 116.5t-52.5 101.5t-92 70.5t-134 26.5q-145 0 -231.5 -58.5t-145.5 -178.5l-277 86q51 117 121 195.5t156 125.5t183 66.5t204 19.5q135 0 245.5 -41t187.5 -123t119 -201.5t42 -275.5 t-45 -315.5t-138.5 -288.5t-237.5 -210t-343 -81q-143 0 -250.5 48t-179.5 129t-107.5 188.5t-35.5 226.5zM496 535q0 -160 76.5 -240t197.5 -80q160 0 265.5 100.5t150.5 292.5h-684q-2 -12 -4 -31.5t-2 -41.5z" />
<glyph unicode="&#x4d9;" horiz-adv-x="1206" d="M111 410q0 39 9 98t19 102h748q2 10 3 27.5t1 28.5q0 104 -56.5 163.5t-152.5 59.5q-98 0 -159.5 -40t-104.5 -128l-254 59q41 88 90 151.5t114.5 103.5t149.5 58.5t193 18.5q225 0 344 -129t119 -358q0 -143 -42 -264t-120 -208t-186.5 -136.5t-239.5 -49.5 q-233 0 -354 113t-121 330zM385 377q0 -86 45 -140.5t152 -54.5q68 0 118 18.5t83.5 50.5t54 76t30.5 95h-479q-4 -16 -4 -25.5v-19.5z" />
<glyph unicode="&#x4da;" horiz-adv-x="1558" d="M205 555q0 18 1 46t3 57.5t4 55t4 40.5l12 88h1000q2 23 3 44t1 42q0 59 -16.5 116.5t-52.5 101.5t-92 70.5t-134 26.5q-145 0 -231.5 -58.5t-145.5 -178.5l-277 86q51 117 121 195.5t156 125.5t183 66.5t204 19.5q135 0 245.5 -41t187.5 -123t119 -201.5t42 -275.5 t-45 -315.5t-138.5 -288.5t-237.5 -210t-343 -81q-143 0 -250.5 48t-179.5 129t-107.5 188.5t-35.5 226.5zM506 535q0 -160 76.5 -240t197.5 -80q160 0 265.5 100.5t150.5 292.5h-684q-2 -12 -4 -31.5t-2 -41.5zM657 1602l55 264h275l-56 -264h-274zM1083 1602l55 264h275 l-56 -264h-274z" />
<glyph unicode="&#x4db;" horiz-adv-x="1206" d="M111 410q0 39 9 98t19 102h748q2 10 3 27.5t1 28.5q0 104 -56.5 163.5t-152.5 59.5q-98 0 -159.5 -40t-104.5 -128l-254 59q41 88 90 151.5t114.5 103.5t149.5 58.5t193 18.5q225 0 344 -129t119 -358q0 -143 -42 -264t-120 -208t-186.5 -136.5t-239.5 -49.5 q-233 0 -354 113t-121 330zM385 377q0 -86 45 -140.5t152 -54.5q68 0 118 18.5t83.5 50.5t54 76t30.5 95h-479q-4 -16 -4 -25.5v-19.5zM403 1245l53 256h267l-54 -256h-266zM817 1245l53 256h266l-53 -256h-266z" />
<glyph unicode="&#x4dc;" horiz-adv-x="2168" d="M-47 0l514 602q59 68 111.5 105.5t109.5 54.5q-55 25 -91 73t-58 119l-43 133q-18 59 -51 93t-109 34q-12 0 -24.5 -1t-22.5 -1q-10 -2 -21 -2l41 234q49 12 80 15t72 3q111 0 172 -55t98 -160l72 -207q31 -86 81 -132t128 -46h39l127 600h305l-127 -600h39 q59 0 125.5 36t136.5 142l139 213q78 121 169 165t214 44q57 0 92 -5t68 -15l-70 -244l-20 4t-23.5 3t-27.5 1q-66 0 -106 -25.5t-85 -97.5l-98 -153q-49 -80 -100.5 -118t-106.5 -60q49 -27 86 -87.5t65 -125.5l234 -539h-342l-207 498q-23 53 -56.5 86.5t-109.5 33.5h-65 l-133 -618h-306l133 618h-63q-47 0 -85 -23.5t-87 -80.5l-434 -514h-379zM1012 1602l55 264h275l-56 -264h-274zM1438 1602l55 264h275l-56 -264h-274z" />
<glyph unicode="&#x4dd;" horiz-adv-x="1724" d="M-41 0l313 401q59 76 112.5 112t113.5 48q-35 16 -53.5 45t-32.5 66l-37 94q-39 96 -127 96q-20 0 -41 -4q-8 -2 -19 -2l21 209q12 4 33 8q16 4 39.5 6t52.5 2q90 0 149.5 -47t94.5 -127l61 -139q27 -59 51.5 -94t73.5 -35h41l94 442h270l-94 -442h29q53 0 93 35t77 90 l92 141q115 176 330 176q41 0 78.5 -7t54.5 -15l-62 -207q-8 2 -18 4t-21.5 4t-25.5 2q-47 0 -77 -25.5t-58 -66.5l-70 -106q-59 -86 -137 -109q61 -23 91 -68t46 -88l148 -399h-291l-105 319q-43 125 -166 125h-49l-96 -444h-270l96 444h-59q-59 0 -99.5 -29.5t-91.5 -95.5 l-242 -319h-313zM735 1245l53 256h267l-54 -256h-266zM1149 1245l53 256h266l-53 -256h-266z" />
<glyph unicode="&#x4de;" horiz-adv-x="1325" d="M119 451h287q10 -72 29.5 -118t53 -74t85 -39t124.5 -11q135 0 206 57.5t71 188.5q0 88 -68.5 132t-216.5 44h-143l51 243h160q72 0 132 12.5t103 38t67.5 68.5t24.5 105q0 78 -65.5 117.5t-161.5 39.5q-72 0 -125 -10t-93 -32.5t-69.5 -61.5t-50.5 -96l-276 37 q66 209 217 308t420 99q104 0 195 -25.5t156.5 -72.5t103.5 -118t38 -159q0 -145 -77.5 -232t-200.5 -132q80 -47 130 -123t50 -176q0 -117 -43 -210t-120 -156.5t-183.5 -97.5t-235.5 -34q-274 0 -418.5 119t-156.5 369zM565 1602l55 264h275l-56 -264h-274zM991 1602 l55 264h275l-56 -264h-274z" />
<glyph unicode="&#x4df;" horiz-adv-x="1134" d="M70 356h274q10 -82 72.5 -119.5t154.5 -37.5q66 0 108 11t65.5 30.5t32.5 45t9 54.5q0 61 -45 86t-123 25h-200l41 192h219q76 0 123 31t47 96q0 61 -48 90t-120 29q-102 0 -166.5 -36t-93.5 -124l-264 45q57 176 191 257t349 81q209 0 319.5 -75.5t110.5 -202.5 q0 -104 -55 -170t-151 -99q70 -29 113.5 -88t43.5 -151q0 -90 -35.5 -157t-102.5 -111t-160 -65.5t-208 -21.5q-223 0 -352 93.5t-149 291.5zM377 1245l53 256h267l-54 -256h-266zM791 1245l53 256h266l-53 -256h-266z" />
<glyph unicode="&#x4e0;" horiz-adv-x="1255" d="M72 451h286q8 -113 67.5 -174.5t203.5 -61.5q152 0 217 64.5t65 187.5q0 33 -14 67.5t-46 62.5t-82 45t-120 17h-190l41 205l391 334h-606l51 264h991l-47 -225l-455 -373q184 -23 283.5 -126t99.5 -259q0 -117 -37.5 -212t-111.5 -162.5t-184.5 -104.5t-253.5 -37 q-154 0 -259.5 39t-170 105.5t-92 155.5t-27.5 188z" />
<glyph unicode="&#x4e1;" horiz-adv-x="1075" d="M-33 -29h271q16 -82 62 -124t161 -42q125 0 181 71t56 192q0 98 -66.5 160.5t-195.5 62.5h-162l35 186l406 379h-529l45 225h889l-30 -163l-465 -431q190 -31 276 -135t86 -252q0 -117 -29.5 -212t-94 -162.5t-166 -104.5t-246.5 -37q-246 0 -362 105.5t-122 281.5z" />
<glyph unicode="&#x4e2;" horiz-adv-x="1460" d="M88 0l307 1462h297l-203 -960l795 960h275l-312 -1462h-297l205 950l-795 -950h-272zM692 1618l49 227h635l-49 -227h-635z" />
<glyph unicode="&#x4e3;" horiz-adv-x="1193" d="M66 0l231 1081h260l-145 -678l585 678h234l-232 -1081h-260l138 639l-564 -639h-247zM498 1253l45 220h598l-45 -220h-598z" />
<glyph unicode="&#x4e4;" horiz-adv-x="1460" d="M88 0l307 1462h297l-203 -960l795 960h275l-312 -1462h-297l205 950l-795 -950h-272zM653 1602l55 264h275l-56 -264h-274zM1079 1602l55 264h275l-56 -264h-274z" />
<glyph unicode="&#x4e5;" horiz-adv-x="1193" d="M66 0l231 1081h260l-145 -678l585 678h234l-232 -1081h-260l138 639l-564 -639h-247zM457 1245l53 256h267l-54 -256h-266zM871 1245l53 256h266l-53 -256h-266z" />
<glyph unicode="&#x4e6;" horiz-adv-x="1597" d="M186 578q0 176 53.5 341.5t157 294.5t256 207t351.5 78q141 0 250.5 -46t184 -127t113.5 -193.5t39 -245.5q0 -178 -51 -345t-152.5 -296t-254 -206t-353.5 -77q-141 0 -251.5 45t-186.5 127t-116 194.5t-40 248.5zM502 592q0 -170 74.5 -268.5t224.5 -98.5 q123 0 212 57.5t147.5 149.5t87 208t28.5 232q0 166 -73.5 265.5t-223.5 99.5q-123 0 -213 -57.5t-148.5 -149.5t-87 -207.5t-28.5 -230.5zM678 1602l55 264h275l-56 -264h-274zM1104 1602l55 264h275l-56 -264h-274z" />
<glyph unicode="&#x4e7;" horiz-adv-x="1261" d="M127 424q0 160 47 287t132 216t200 137t250 48q109 0 195.5 -36t147 -98.5t93.5 -145t33 -177.5q0 -164 -46 -291.5t-129 -216t-199 -134.5t-253 -46q-109 0 -196 36t-148 98.5t-94 145.5t-33 177zM424 426q0 -106 50 -167.5t142 -61.5q63 0 120 29.5t100 87t67.5 142.5 t24.5 195q0 106 -50.5 169t-142.5 63q-63 0 -119.5 -30t-99.5 -88t-67.5 -143t-24.5 -196zM442 1245l53 256h267l-54 -256h-266zM856 1245l53 256h266l-53 -256h-266z" />
<glyph unicode="&#x4e8;" horiz-adv-x="1597" d="M186 578q0 176 53.5 341.5t157 294.5t256 207t351.5 78q141 0 250.5 -46t184 -127t113.5 -193.5t39 -245.5q0 -178 -51 -345t-152.5 -296t-254 -206t-353.5 -77q-141 0 -251.5 45t-186.5 127t-116 194.5t-40 248.5zM502 592q0 -170 74.5 -268.5t224.5 -98.5 q90 0 161.5 32t127 86t93.5 127t60 157h-741v-35zM551 891h725q-4 160 -78 253t-219 93q-84 0 -151.5 -26.5t-121 -73.5t-92.5 -110.5t-63 -135.5z" />
<glyph unicode="&#x4e9;" horiz-adv-x="1261" d="M127 426q0 160 47 288t132 216t200 135t250 47q109 0 195.5 -36t147 -97t93.5 -144t33 -178q0 -164 -46 -292.5t-129 -217t-199 -134.5t-253 -46q-109 0 -196 36t-148 98.5t-94 146.5t-33 178zM418 438q0 -117 51 -182.5t145 -65.5t174 62.5t115 185.5h-485zM451 651h483 q0 115 -52.5 177.5t-144.5 62.5q-94 0 -171 -61.5t-115 -178.5z" />
<glyph unicode="&#x4ea;" horiz-adv-x="1597" d="M186 578q0 176 53.5 341.5t157 294.5t256 207t351.5 78q141 0 250.5 -46t184 -127t113.5 -193.5t39 -245.5q0 -178 -51 -345t-152.5 -296t-254 -206t-353.5 -77q-141 0 -251.5 45t-186.5 127t-116 194.5t-40 248.5zM502 592q0 -170 74.5 -268.5t224.5 -98.5 q90 0 161.5 32t127 86t93.5 127t60 157h-741v-35zM551 891h725q-4 160 -78 253t-219 93q-84 0 -151.5 -26.5t-121 -73.5t-92.5 -110.5t-63 -135.5zM678 1602l55 264h275l-56 -264h-274zM1104 1602l55 264h275l-56 -264h-274z" />
<glyph unicode="&#x4eb;" horiz-adv-x="1261" d="M127 426q0 160 47 288t132 216t200 135t250 47q109 0 195.5 -36t147 -97t93.5 -144t33 -178q0 -164 -46 -292.5t-129 -217t-199 -134.5t-253 -46q-109 0 -196 36t-148 98.5t-94 146.5t-33 178zM418 438q0 -117 51 -182.5t145 -65.5t174 62.5t115 185.5h-485zM440 1245 l53 256h267l-54 -256h-266zM451 651h483q0 115 -52.5 177.5t-144.5 62.5q-94 0 -171 -61.5t-115 -178.5zM854 1245l53 256h266l-53 -256h-266z" />
<glyph unicode="&#x4ec;" horiz-adv-x="1454" d="M121 451h299q14 -74 45 -118t73 -67.5t93 -32t108 -8.5q80 0 141.5 29t107.5 81t78 124.5t50 161.5h-600l55 262h566q0 94 -22.5 160.5t-63.5 109.5t-97.5 63.5t-122.5 20.5q-127 0 -207.5 -49t-134.5 -170l-282 53q82 221 239.5 324.5t397.5 103.5q162 0 276.5 -49 t187 -136t106.5 -209t34 -267q0 -182 -45 -342t-136 -279t-230.5 -186.5t-325.5 -67.5q-117 0 -218.5 30t-180.5 90t-129 151.5t-62 216.5zM553 1602l55 264h275l-56 -264h-274zM979 1602l55 264h275l-56 -264h-274z" />
<glyph unicode="&#x4ed;" horiz-adv-x="1187" d="M80 346h270q14 -72 65.5 -114t137.5 -42q127 0 192.5 67t88.5 185h-404l41 201h385q0 121 -50 183.5t-142 62.5q-172 0 -236 -156l-252 47q53 147 180 239.5t344 92.5q106 0 190.5 -38t142 -104.5t88 -155.5t30.5 -191q0 -127 -36 -245t-111.5 -209t-191.5 -146.5 t-277 -55.5q-96 0 -177.5 26.5t-142.5 76t-97 119t-38 157.5zM368 1245l53 256h267l-54 -256h-266zM782 1245l53 256h266l-53 -256h-266z" />
<glyph unicode="&#x4ee;" horiz-adv-x="1280" d="M25 6l84 227q29 -10 76.5 -20t93.5 -10q84 0 143 40t119 132l39 59l-320 1028h313l199 -753l451 753h313l-700 -1114q-63 -100 -122 -173t-123.5 -120t-139 -69.5t-166.5 -22.5q-43 0 -84 4t-76 10.5t-61.5 14.5t-38.5 14zM606 1618l49 227h635l-49 -227h-635z" />
<glyph unicode="&#x4ef;" horiz-adv-x="1161" d="M-8 -360l74 213q25 -8 54.5 -14.5t63.5 -6.5q57 0 95 31t77 98l54 92l-234 1028h320l110 -712l377 712h326l-664 -1112q-55 -92 -102 -160.5t-98.5 -114.5t-114 -68.5t-148.5 -22.5q-53 0 -98 9t-92 28zM481 1253l45 220h598l-45 -220h-598z" />
<glyph unicode="&#x4f0;" horiz-adv-x="1280" d="M25 6l84 227q29 -10 76.5 -20t93.5 -10q84 0 143 40t119 132l39 59l-320 1028h313l199 -753l451 753h313l-700 -1114q-63 -100 -122 -173t-123.5 -120t-139 -69.5t-166.5 -22.5q-43 0 -84 4t-76 10.5t-61.5 14.5t-38.5 14zM557 1602l55 264h275l-56 -264h-274zM983 1602 l55 264h275l-56 -264h-274z" />
<glyph unicode="&#x4f1;" horiz-adv-x="1161" d="M-8 -360l74 213q25 -8 54.5 -14.5t63.5 -6.5q57 0 95 31t77 98l54 92l-234 1028h320l110 -712l377 712h326l-664 -1112q-55 -92 -102 -160.5t-98.5 -114.5t-114 -68.5t-148.5 -22.5q-53 0 -98 9t-92 28zM418 1245l53 256h267l-54 -256h-266zM832 1245l53 256h266 l-53 -256h-266z" />
<glyph unicode="&#x4f2;" horiz-adv-x="1280" d="M25 6l84 227q29 -10 76.5 -20t93.5 -10q84 0 143 40t119 132l39 59l-320 1028h313l199 -753l451 753h313l-700 -1114q-63 -100 -122 -173t-123.5 -120t-139 -69.5t-166.5 -22.5q-43 0 -84 4t-76 10.5t-61.5 14.5t-38.5 14zM515 1581l309 297h323l-372 -297h-260z M957 1581l309 297h324l-373 -297h-260z" />
<glyph unicode="&#x4f3;" horiz-adv-x="1165" d="M-8 -360l74 213q25 -8 54.5 -14.5t63.5 -6.5q57 0 95 31t77 98l54 92l-234 1028h320l110 -712l377 712h326l-664 -1112q-55 -92 -102 -160.5t-98.5 -114.5t-114 -68.5t-148.5 -22.5q-53 0 -98 9t-92 28zM418 1217l301 317h297l-361 -317h-237zM819 1217l301 317h297 l-360 -317h-238z" />
<glyph unicode="&#x4f4;" horiz-adv-x="1388" d="M254 834.5q-16 95.5 8 214.5l88 413h305l-77 -370q-16 -72 -16.5 -131.5t22 -101.5t70.5 -64.5t128 -22.5q70 0 143.5 14.5t121.5 34.5l135 641h305l-309 -1462h-306l125 592q-68 -29 -151.5 -45.5t-169.5 -16.5q-119 0 -208 37t-143.5 104.5t-70.5 163zM596 1602l55 264 h275l-56 -264h-274zM1022 1602l55 264h275l-56 -264h-274z" />
<glyph unicode="&#x4f5;" horiz-adv-x="1153" d="M184 696q0 27 4.5 55.5t10.5 59.5l57 270h287l-58 -268q-4 -20 -6 -37.5t-2 -34.5q0 -72 40 -102.5t132 -30.5q53 0 98.5 7.5t73.5 17.5l97 448h286l-231 -1081h-287l84 399q-45 -10 -104.5 -16t-106.5 -6q-182 0 -278.5 85t-96.5 234zM424 1245l53 256h267l-54 -256 h-266zM838 1245l53 256h266l-53 -256h-266z" />
<glyph unicode="&#x4f6;" horiz-adv-x="1095" d="M88 0l307 1462h926l-57 -264h-621l-197 -934h177l-131 -618h-283l76 354h-197z" />
<glyph unicode="&#x4f7;" horiz-adv-x="915" d="M66 0l229 1081h756l-52 -239h-469l-129 -604h140l-111 -525h-248l60 287h-176z" />
<glyph unicode="&#x4f8;" horiz-adv-x="1902" d="M88 0h508q319 0 496.5 135t177.5 397q0 203 -133 316t-367 113h-176l106 501h-305zM444 252l97 455h186q125 0 182.5 -49.5t57.5 -135.5q0 -141 -81 -205.5t-235 -64.5h-207zM850 1602l55 264h275l-56 -264h-274zM1276 1602l55 264h275l-56 -264h-274zM1386 0l310 1462 h305l-309 -1462h-306z" />
<glyph unicode="&#x4f9;" horiz-adv-x="1626" d="M66 0l231 1081h287l-74 -346h182q98 0 173 -24.5t125 -68.5t75 -104.5t25 -129.5q0 -186 -128 -297t-380 -111h-516zM403 233h205q94 0 141.5 44.5t47.5 123.5q0 41 -31 72t-104 31h-201zM639 1245l53 256h267l-54 -256h-266zM1053 1245l53 256h266l-53 -256h-266z M1157 0l232 1081h288l-231 -1081h-289z" />
<glyph unicode="&#x1e80;" horiz-adv-x="1982" d="M268 1462h344l15 -1016l450 1008h324l39 -1008l442 1016h328l-707 -1462h-297l-43 1081l-493 -1081h-289zM926 1878h319l201 -297h-258z" />
<glyph unicode="&#x1e81;" horiz-adv-x="1583" d="M176 1069h311l-4 -709l348 701h250l52 -701l303 709h299l-537 -1069h-278l-41 705l-342 -705h-275zM633 1534h314l180 -317h-256z" />
<glyph unicode="&#x1e82;" horiz-adv-x="1982" d="M268 1462h344l15 -1016l450 1008h324l39 -1008l442 1016h328l-707 -1462h-297l-43 1081l-493 -1081h-289zM1065 1581l322 297h346l-389 -297h-279z" />
<glyph unicode="&#x1e83;" horiz-adv-x="1583" d="M176 1069h311l-4 -709l348 701h250l52 -701l303 709h299l-537 -1069h-278l-41 705l-342 -705h-275zM813 1217l312 317h338l-371 -317h-279z" />
<glyph unicode="&#x1e84;" horiz-adv-x="1982" d="M268 1462h344l15 -1016l450 1008h324l39 -1008l442 1016h328l-707 -1462h-297l-43 1081l-493 -1081h-289zM909 1602l55 264h275l-56 -264h-274zM1335 1602l55 264h275l-56 -264h-274z" />
<glyph unicode="&#x1e85;" horiz-adv-x="1583" d="M176 1069h311l-4 -709l348 701h250l52 -701l303 709h299l-537 -1069h-278l-41 705l-342 -705h-275zM631 1245l53 256h267l-54 -256h-266zM1045 1245l53 256h266l-53 -256h-266z" />
<glyph unicode="&#x1ef2;" horiz-adv-x="1345" d="M268 1462h328l195 -592l446 592h336l-678 -866l-125 -596h-305l125 596zM582 1878h319l201 -297h-258z" />
<glyph unicode="&#x1ef3;" horiz-adv-x="1161" d="M-8 -360l74 213q25 -8 54.5 -14.5t63.5 -6.5q57 0 95 31t77 98l56 96l-232 1012h320l108 -702l375 702h326l-664 -1100q-55 -92 -102 -160.5t-98.5 -114.5t-114 -68.5t-148.5 -22.5q-53 0 -98 9t-92 28zM442 1534h314l180 -317h-256z" />
<glyph unicode="&#x2000;" horiz-adv-x="998" />
<glyph unicode="&#x2001;" horiz-adv-x="1997" />
<glyph unicode="&#x2002;" horiz-adv-x="998" />
<glyph unicode="&#x2003;" horiz-adv-x="1997" />
<glyph unicode="&#x2004;" horiz-adv-x="665" />
<glyph unicode="&#x2005;" horiz-adv-x="499" />
<glyph unicode="&#x2006;" horiz-adv-x="332" />
<glyph unicode="&#x2007;" horiz-adv-x="332" />
<glyph unicode="&#x2008;" horiz-adv-x="249" />
<glyph unicode="&#x2009;" horiz-adv-x="399" />
<glyph unicode="&#x200a;" horiz-adv-x="110" />
<glyph unicode="&#x2010;" horiz-adv-x="796" d="M129 471l61 283h613l-62 -283h-612z" />
<glyph unicode="&#x2011;" horiz-adv-x="796" d="M129 471l61 283h613l-62 -283h-612z" />
<glyph unicode="&#x2012;" horiz-adv-x="796" d="M129 471l61 283h613l-62 -283h-612z" />
<glyph unicode="&#x2013;" horiz-adv-x="1024" d="M39 477l57 271h1024l-57 -271h-1024z" />
<glyph unicode="&#x2014;" horiz-adv-x="2048" d="M39 477l57 271h2048l-57 -271h-2048z" />
<glyph unicode="&#x2015;" horiz-adv-x="2048" d="M39 477l57 271h2048l-57 -271h-2048z" />
<glyph unicode="&#x2018;" horiz-adv-x="493" d="M223 942l238 520h219l-176 -520h-281z" />
<glyph unicode="&#x2019;" horiz-adv-x="493" d="M199 942l178 520h278l-237 -520h-219z" />
<glyph unicode="&#x201a;" horiz-adv-x="493" d="M-29 -193l179 523h278l-238 -523h-219z" />
<glyph unicode="&#x201c;" horiz-adv-x="856" d="M223 942l238 520h203l-177 -520h-264zM602 942l238 520h202l-176 -520h-264z" />
<glyph unicode="&#x201d;" horiz-adv-x="856" d="M199 942l178 520h262l-238 -520h-202zM578 942l176 520h264l-238 -520h-202z" />
<glyph unicode="&#x201e;" horiz-adv-x="856" d="M-31 -195l181 523h262l-240 -523h-203zM348 -195l178 523h265l-240 -523h-203z" />
<glyph unicode="&#x2020;" horiz-adv-x="980" d="M145 834l54 253h317l80 375h285l-80 -375h317l-53 -253h-317l-216 -1012h-284l215 1012h-318z" />
<glyph unicode="&#x2021;" horiz-adv-x="980" d="M12 203l54 254h317l84 397h-317l53 254h317l76 354h285l-76 -354h317l-53 -254h-317l-84 -397h317l-53 -254h-318l-82 -381h-284l82 381h-318z" />
<glyph unicode="&#x2022;" horiz-adv-x="819" d="M174 745q0 68 23.5 124.5t64.5 96.5t97.5 62.5t123.5 22.5q66 0 122.5 -22.5t97 -62.5t63 -96.5t22.5 -124.5q0 -70 -22.5 -126t-63 -97t-97 -63.5t-122.5 -22.5q-68 0 -124 22.5t-97 63.5t-64.5 97.5t-23.5 125.5z" />
<glyph unicode="&#x2026;" horiz-adv-x="1996" d="M45 0l70 330h293l-70 -330h-293zM790 0l70 330h293l-70 -330h-293zM1538 0l70 330h293l-70 -330h-293z" />
<glyph unicode="&#x202f;" horiz-adv-x="399" />
<glyph unicode="&#x2030;" horiz-adv-x="2834" d="M180 897q0 100 28.5 199.5t86 178.5t145.5 127t205 48q68 0 125 -24.5t99 -69.5t66.5 -109.5t24.5 -142.5q0 -102 -26.5 -200.5t-84 -176.5t-144.5 -125t-210 -47q-68 0 -125 23.5t-99 68.5t-66.5 108.5t-24.5 141.5zM415 893q0 -70 30 -103.5t79 -33.5q55 0 94 36.5 t62.5 91t34 115t10.5 109.5q0 70 -30 104.5t-79 34.5q-55 0 -94 -36.5t-62.5 -91t-34 -116t-10.5 -110.5zM434 0l1012 1415h278l-1011 -1415h-279zM1200 309q0 100 28.5 199.5t86 178.5t145.5 127t205 48q68 0 125 -24.5t99 -69.5t66.5 -109.5t24.5 -142.5 q0 -102 -26.5 -200.5t-84 -176.5t-144.5 -125t-210 -47q-68 0 -125 23.5t-99 68.5t-66.5 108.5t-24.5 141.5zM1435 305q0 -70 30 -103.5t79 -33.5q55 0 94 36.5t62.5 91t34 115t10.5 109.5q0 70 -30 104.5t-79 34.5q-55 0 -94 -36.5t-62.5 -91t-34 -116t-10.5 -110.5z M2046 309q0 100 28.5 199.5t86 178.5t145.5 127t205 48q68 0 125 -24.5t99 -69.5t66.5 -109.5t24.5 -142.5q0 -102 -26.5 -200.5t-84 -176.5t-144.5 -125t-210 -47q-68 0 -125 23.5t-99 68.5t-66.5 108.5t-24.5 141.5zM2281 305q0 -70 30 -103.5t79 -33.5q55 0 94 36.5 t62.5 91t34 115t10.5 109.5q0 70 -30 104.5t-79 34.5q-55 0 -94 -36.5t-62.5 -91t-34 -116t-10.5 -110.5z" />
<glyph unicode="&#x2039;" horiz-adv-x="669" d="M121 528l360 459h299l-348 -473l139 -453h-290z" />
<glyph unicode="&#x203a;" horiz-adv-x="669" d="M-4 61l352 474l-139 452h287l163 -467l-360 -459h-303z" />
<glyph unicode="&#x2044;" horiz-adv-x="231" d="M-381 0l1012 1415h278l-1011 -1415h-279z" />
<glyph unicode="&#x205f;" horiz-adv-x="499" />
<glyph unicode="&#x2070;" horiz-adv-x="843" d="M162 897q0 100 28.5 199.5t86 178.5t145.5 127t205 48q68 0 125 -24.5t99 -69.5t66.5 -109.5t24.5 -142.5q0 -102 -26.5 -200.5t-84 -176.5t-144.5 -125t-210 -47q-68 0 -125 23.5t-99 68.5t-66.5 108.5t-24.5 141.5zM397 893q0 -70 30 -103.5t79 -33.5q55 0 94 36.5 t62.5 91t34 115t10.5 109.5q0 70 -30 104.5t-79 34.5q-55 0 -94 -36.5t-62.5 -91t-34 -116t-10.5 -110.5z" />
<glyph unicode="&#x2074;" horiz-adv-x="843" d="M162 756l26 133l502 526h199l-105 -495h107l-55 -164h-86l-35 -166h-193l35 166h-395zM408 920h184l53 256z" />
<glyph unicode="&#x2075;" horiz-adv-x="843" d="M211 831h190q6 -47 30 -74.5t83 -27.5q63 0 97 35t34 113q0 45 -28.5 72.5t-79.5 27.5q-35 0 -63 -10.5t-62 -36.5h-164l143 485h504l-35 -172h-332l-39 -143q61 23 121 22q53 0 96.5 -18.5t74 -49t48 -72.5t17.5 -87q0 -96 -26.5 -160.5t-73 -104.5t-109 -57.5 t-133.5 -17.5q-141 0 -217 68.5t-76 207.5z" />
<glyph unicode="&#x2076;" horiz-adv-x="843" d="M205 860q0 88 20.5 191.5t70.5 192.5t134 147.5t211 58.5q129 0 193.5 -65.5t76.5 -182.5l-196 -20q-10 49 -29.5 74.5t-71.5 25.5q-27 0 -54.5 -10t-52 -36t-45 -68t-32.5 -105q39 31 85 41t93 10q111 0 179.5 -57.5t68.5 -167.5q0 -160 -97 -247t-257 -87 q-80 0 -136.5 26.5t-92 69.5t-52 97.5t-16.5 111.5zM399 821q0 -41 28 -75.5t87 -34.5q66 0 108 36.5t42 126.5q0 41 -28 71t-81 30q-70 0 -113 -34t-43 -120z" />
<glyph unicode="&#x2077;" horiz-adv-x="843" d="M272 590q51 102 97.5 185t91.5 158t92 146.5t102 151.5h-379l39 184h633l-33 -158q-59 -78 -114.5 -155.5t-105.5 -159.5t-98 -169t-93 -183h-232z" />
<glyph unicode="&#x2078;" horiz-adv-x="843" d="M176 780q0 174 172 236q-35 27 -51 68.5t-16 82.5q0 61 24.5 112.5t68.5 89.5t106.5 58.5t140.5 20.5q76 0 130 -19.5t87.5 -50t49 -70.5t15.5 -83q0 -63 -29.5 -114.5t-117.5 -92.5q45 -27 71.5 -77t26.5 -101q0 -76 -29.5 -129.5t-79 -87t-115 -50t-138.5 -16.5 q-76 0 -134.5 17.5t-98.5 48t-61.5 71.5t-21.5 86zM375 811q0 -37 33 -66.5t92 -29.5q61 0 107 25.5t46 93.5q0 35 -27.5 62.5t-93.5 27.5q-158 0 -157 -113zM467 1178q0 -37 28.5 -61.5t79.5 -24.5q53 0 92.5 25.5t39.5 88.5q0 33 -24 58.5t-75 25.5q-72 0 -106.5 -30.5 t-34.5 -81.5z" />
<glyph unicode="&#x2079;" horiz-adv-x="843" d="M170 811h199q8 -51 37.5 -69.5t85.5 -18.5q27 0 53 10t47.5 35t37 67t21.5 105q-39 -31 -85 -40t-93 -9q-111 0 -179.5 62.5t-68.5 172.5q0 80 25.5 140.5t72 101.5t108 61.5t134.5 20.5q84 0 143.5 -28.5t96.5 -76t54.5 -111t17.5 -132.5q0 -100 -16.5 -197.5 t-61.5 -175.5t-124 -126t-204 -48q-143 0 -217 66.5t-84 189.5zM420 1137q0 -43 27.5 -74t78.5 -31q68 0 111 30t43 107q0 20 -6 41t-19.5 38.5t-35 28.5t-52.5 11q-63 0 -105 -31.5t-42 -119.5z" />
<glyph unicode="&#x2080;" horiz-adv-x="843" d="M82 309q0 100 28.5 199.5t86 178.5t145.5 127t205 48q68 0 125 -24.5t99 -69.5t66.5 -109.5t24.5 -142.5q0 -102 -26.5 -200.5t-84 -176.5t-144.5 -125t-210 -47q-68 0 -125 23.5t-99 68.5t-66.5 108.5t-24.5 141.5zM317 305q0 -70 30 -103.5t79 -33.5q55 0 94 36.5 t62.5 91t34 115t10.5 109.5q0 70 -30 104.5t-79 34.5q-55 0 -94 -36.5t-62.5 -91t-34 -116t-10.5 -110.5z" />
<glyph unicode="&#x2081;" horiz-adv-x="843" d="M203 672l305 155h219l-174 -825h-215l131 616l-197 -96z" />
<glyph unicode="&#x2082;" horiz-adv-x="843" d="M90 2l33 153q16 12 36.5 26.5t48 35t66.5 47.5t92 66q59 43 104.5 75.5t76 63t46 62.5t15.5 71q0 31 -22.5 55.5t-67.5 24.5q-25 0 -46.5 -4t-39.5 -18.5t-34.5 -41t-28.5 -71.5l-203 26q20 74 51 128t75 90t107.5 53.5t149.5 17.5q127 0 203.5 -67.5t76.5 -168.5 q0 -55 -13 -99t-41 -82t-67.5 -73.5t-95.5 -74.5q-39 -29 -84 -57.5t-82 -55.5h316l-62 -182h-610z" />
<glyph unicode="&#x2083;" horiz-adv-x="843" d="M98 274h193q0 -66 33.5 -104.5t105.5 -38.5q53 0 89 24.5t36 87.5q0 51 -31 75t-80 24h-86l35 164h84q63 0 95 28.5t32 81.5q0 35 -25.5 58.5t-77.5 23.5q-55 0 -92 -22.5t-57 -100.5l-190 27q33 129 111.5 194.5t242.5 65.5q133 0 208.5 -64.5t75.5 -162.5 q0 -70 -31.5 -122t-117.5 -89q53 -29 78.5 -78t25.5 -109q0 -127 -80.5 -198.5t-248.5 -71.5q-156 0 -242 80t-86 227z" />
<glyph unicode="&#x2084;" horiz-adv-x="843" d="M62 168l26 133l502 526h199l-105 -495h107l-55 -164h-86l-35 -166h-193l35 166h-395zM308 332h184l53 256z" />
<glyph unicode="&#x2085;" horiz-adv-x="843" d="M131 243h190q6 -47 30 -74.5t83 -27.5q63 0 97 35t34 113q0 45 -28.5 72.5t-79.5 27.5q-35 0 -63 -10.5t-62 -36.5h-164l143 485h504l-35 -172h-332l-39 -143q61 23 121 22q53 0 96.5 -18.5t74 -49t48 -72.5t17.5 -87q0 -96 -26.5 -160.5t-73 -104.5t-109 -57.5 t-133.5 -17.5q-141 0 -217 68.5t-76 207.5z" />
<glyph unicode="&#x2086;" horiz-adv-x="843" d="M125 272q0 88 20.5 191.5t70.5 192.5t134 147.5t211 58.5q129 0 193.5 -65.5t76.5 -182.5l-196 -20q-10 49 -29.5 74.5t-71.5 25.5q-27 0 -54.5 -10t-52 -36t-45 -68t-32.5 -105q39 31 85 41t93 10q111 0 179.5 -57.5t68.5 -167.5q0 -160 -97 -247t-257 -87 q-80 0 -136.5 26.5t-92 69.5t-52 97.5t-16.5 111.5zM319 233q0 -41 28 -75.5t87 -34.5q66 0 108 36.5t42 126.5q0 41 -28 71t-81 30q-70 0 -113 -34t-43 -120z" />
<glyph unicode="&#x2087;" horiz-adv-x="843" d="M172 2q51 102 97.5 185t91.5 158t92 146.5t102 151.5h-379l39 184h633l-33 -158q-59 -78 -114.5 -155.5t-105.5 -159.5t-98 -169t-93 -183h-232z" />
<glyph unicode="&#x2088;" horiz-adv-x="843" d="M96 192q0 174 172 236q-35 27 -51 68.5t-16 82.5q0 61 24.5 112.5t68.5 89.5t106.5 58.5t140.5 20.5q76 0 130 -19.5t87.5 -50t49 -70.5t15.5 -83q0 -63 -29.5 -114.5t-117.5 -92.5q45 -27 71.5 -77t26.5 -101q0 -76 -29.5 -129.5t-79 -87t-115 -50t-138.5 -16.5 q-76 0 -134.5 17.5t-98.5 48t-61.5 71.5t-21.5 86zM295 223q0 -37 33 -66.5t92 -29.5q61 0 107 25.5t46 93.5q0 35 -27.5 62.5t-93.5 27.5q-158 0 -157 -113zM387 590q0 -37 28.5 -61.5t79.5 -24.5q53 0 92.5 25.5t39.5 88.5q0 33 -24 58.5t-75 25.5q-72 0 -106.5 -30.5 t-34.5 -81.5z" />
<glyph unicode="&#x2089;" horiz-adv-x="843" d="M111 223h199q8 -51 37.5 -69.5t85.5 -18.5q27 0 53 10t47.5 35t37 67t21.5 105q-39 -31 -85 -40t-93 -9q-111 0 -179.5 62.5t-68.5 172.5q0 80 25.5 140.5t72 101.5t108 61.5t134.5 20.5q84 0 143.5 -28.5t96.5 -76t54.5 -111t17.5 -132.5q0 -100 -16.5 -197.5 t-61.5 -175.5t-124 -126t-204 -48q-143 0 -217 66.5t-84 189.5zM361 549q0 -43 27.5 -74t78.5 -31q68 0 111 30t43 107q0 20 -6 41t-19.5 38.5t-35 28.5t-52.5 11q-63 0 -105 -31.5t-42 -119.5z" />
<glyph unicode="&#x20ac;" d="M68 453l69 186h103q2 63 12 125h-135l67 186h109q33 111 84 203t123.5 159.5t165 104.5t206.5 37q106 0 184.5 -30.5t129.5 -85t79.5 -130t39.5 -166.5l-267 -41q-6 43 -16 81t-30.5 65t-53.5 42t-84 15q-94 0 -165 -65.5t-114 -188.5h343l-68 -186h-315 q-4 -29 -6.5 -60.5t-4.5 -64.5h295l-71 -186h-220q8 -72 27.5 -118t46.5 -74t59.5 -39t67.5 -11q109 0 159 58.5t70 158.5h269q-31 -233 -154 -349t-350 -116q-125 0 -213 39t-144.5 105.5t-86 155.5t-37.5 190h-174z" />
<glyph unicode="&#x20ae;" d="M207 283l254 139l35 162l-191 -105l-61 142l293 159l81 385h-395l56 252h1073l-56 -252h-395l-45 -209l150 82l61 -141l-252 -139l-35 -162l189 104l61 -141l-291 -160l-84 -399h-282l47 223l-152 -82z" />
<glyph unicode="&#x20b4;" d="M74 477l32 146h154q23 23 100.5 69.5t212.5 87.5h-438l33 146h686q70 57 70 135q0 76 -43 112.5t-119 36.5q-63 0 -116.5 -35.5t-92.5 -134.5l-272 60q45 178 179 266t337 88q84 0 160.5 -20.5t135 -66.5t94.5 -117.5t36 -172.5q0 -43 -8.5 -81t-22.5 -70h108l-32 -146 h-199q-16 -14 -57 -36.5t-93.5 -45t-109.5 -44t-109 -31.5h539l-33 -146h-745q-31 -20 -40 -50t-9 -60q0 -76 46 -119t156 -43q82 0 139.5 38t84.5 126h292q-43 -211 -176 -309.5t-358 -98.5q-84 0 -167 18.5t-148.5 62.5t-106.5 115.5t-41 180.5q0 39 8.5 73.5t22.5 65.5 h-90z" />
<glyph unicode="&#x2122;" horiz-adv-x="1886" d="M252 1286l37 176h702l-37 -176h-254l-137 -643h-198l137 643h-250zM913 643l174 819h234l94 -594l346 594h242l-174 -819h-182l110 516l-303 -516h-168l-82 514l-110 -514h-181z" />
<glyph unicode="&#x2153;" horiz-adv-x="1918" d="M183 1260l305 155h219l-174 -825h-215l131 616l-197 -96zM293 0l1012 1415h278l-1011 -1415h-279zM1186 274h193q0 -66 33.5 -104.5t105.5 -38.5q53 0 89 24.5t36 87.5q0 51 -31 75t-80 24h-86l35 164h84q63 0 95 28.5t32 81.5q0 35 -25.5 58.5t-77.5 23.5 q-55 0 -92 -22.5t-57 -100.5l-190 27q33 129 111.5 194.5t242.5 65.5q133 0 208.5 -64.5t75.5 -162.5q0 -70 -31.5 -122t-117.5 -89q53 -29 78.5 -78t25.5 -109q0 -127 -80.5 -198.5t-248.5 -71.5q-156 0 -242 80t-86 227z" />
<glyph unicode="&#x2154;" horiz-adv-x="1918" d="M139 590l33 153q16 12 36.5 26.5t48 35t66.5 47.5t92 66q59 43 104.5 75.5t76 63t46 62.5t15.5 71q0 31 -22.5 55.5t-67.5 24.5q-25 0 -46.5 -4t-39.5 -18.5t-34.5 -41t-28.5 -71.5l-203 26q20 74 51 128t75 90t107.5 53.5t149.5 17.5q127 0 203.5 -67.5t76.5 -168.5 q0 -55 -13 -99t-41 -82t-67.5 -73.5t-95.5 -74.5q-39 -29 -84 -57.5t-82 -55.5h316l-62 -182h-610zM391 0l1012 1415h278l-1011 -1415h-279zM1186 274h193q0 -66 33.5 -104.5t105.5 -38.5q53 0 89 24.5t36 87.5q0 51 -31 75t-80 24h-86l35 164h84q63 0 95 28.5t32 81.5 q0 35 -25.5 58.5t-77.5 23.5q-55 0 -92 -22.5t-57 -100.5l-190 27q33 129 111.5 194.5t242.5 65.5q133 0 208.5 -64.5t75.5 -162.5q0 -70 -31.5 -122t-117.5 -89q53 -29 78.5 -78t25.5 -109q0 -127 -80.5 -198.5t-248.5 -71.5q-156 0 -242 80t-86 227z" />
<glyph unicode="&#x2155;" horiz-adv-x="1918" d="M183 1260l305 155h219l-174 -825h-215l131 616l-197 -96zM297 0l1012 1415h278l-1011 -1415h-279zM1225 243h190q6 -47 30 -74.5t83 -27.5q63 0 97 35t34 113q0 45 -28.5 72.5t-79.5 27.5q-35 0 -63 -10.5t-62 -36.5h-164l143 485h504l-35 -172h-332l-39 -143 q61 23 121 22q53 0 96.5 -18.5t74 -49t48 -72.5t17.5 -87q0 -96 -26.5 -160.5t-73 -104.5t-109 -57.5t-133.5 -17.5q-141 0 -217 68.5t-76 207.5z" />
<glyph unicode="&#x2156;" horiz-adv-x="1918" d="M139 590l33 153q16 12 36.5 26.5t48 35t66.5 47.5t92 66q59 43 104.5 75.5t76 63t46 62.5t15.5 71q0 31 -22.5 55.5t-67.5 24.5q-25 0 -46.5 -4t-39.5 -18.5t-34.5 -41t-28.5 -71.5l-203 26q20 74 51 128t75 90t107.5 53.5t149.5 17.5q127 0 203.5 -67.5t76.5 -168.5 q0 -55 -13 -99t-41 -82t-67.5 -73.5t-95.5 -74.5q-39 -29 -84 -57.5t-82 -55.5h316l-62 -182h-610zM418 0l1012 1415h278l-1011 -1415h-279zM1225 243h190q6 -47 30 -74.5t83 -27.5q63 0 97 35t34 113q0 45 -28.5 72.5t-79.5 27.5q-35 0 -63 -10.5t-62 -36.5h-164l143 485 h504l-35 -172h-332l-39 -143q61 23 121 22q53 0 96.5 -18.5t74 -49t48 -72.5t17.5 -87q0 -96 -26.5 -160.5t-73 -104.5t-109 -57.5t-133.5 -17.5q-141 0 -217 68.5t-76 207.5z" />
<glyph unicode="&#x2157;" horiz-adv-x="1918" d="M192 862h193q0 -66 33.5 -104.5t105.5 -38.5q53 0 89 24.5t36 87.5q0 51 -31 75t-80 24h-86l35 164h84q63 0 95 28.5t32 81.5q0 35 -25.5 58.5t-77.5 23.5q-55 0 -92 -22.5t-57 -100.5l-190 27q33 129 111.5 194.5t242.5 65.5q133 0 208.5 -64.5t75.5 -162.5 q0 -70 -31.5 -122t-117.5 -89q53 -29 78.5 -78t25.5 -109q0 -127 -80.5 -198.5t-248.5 -71.5q-156 0 -242 80t-86 227zM438 0l1012 1415h278l-1011 -1415h-279zM1225 243h190q6 -47 30 -74.5t83 -27.5q63 0 97 35t34 113q0 45 -28.5 72.5t-79.5 27.5q-35 0 -63 -10.5 t-62 -36.5h-164l143 485h504l-35 -172h-332l-39 -143q61 23 121 22q53 0 96.5 -18.5t74 -49t48 -72.5t17.5 -87q0 -96 -26.5 -160.5t-73 -104.5t-109 -57.5t-133.5 -17.5q-141 0 -217 68.5t-76 207.5z" />
<glyph unicode="&#x2158;" horiz-adv-x="1918" d="M144 756l26 133l502 526h199l-105 -495h107l-55 -164h-86l-35 -166h-193l35 166h-395zM390 920h184l53 256zM403 0l1012 1415h278l-1011 -1415h-279zM1225 243h190q6 -47 30 -74.5t83 -27.5q63 0 97 35t34 113q0 45 -28.5 72.5t-79.5 27.5q-35 0 -63 -10.5t-62 -36.5 h-164l143 485h504l-35 -172h-332l-39 -143q61 23 121 22q53 0 96.5 -18.5t74 -49t48 -72.5t17.5 -87q0 -96 -26.5 -160.5t-73 -104.5t-109 -57.5t-133.5 -17.5q-141 0 -217 68.5t-76 207.5z" />
<glyph unicode="&#x2159;" horiz-adv-x="1918" d="M183 1260l305 155h219l-174 -825h-215l131 616l-197 -96zM297 0l1012 1415h278l-1011 -1415h-279zM1219 272q0 88 20.5 191.5t70.5 192.5t134 147.5t211 58.5q129 0 193.5 -65.5t76.5 -182.5l-196 -20q-10 49 -29.5 74.5t-71.5 25.5q-27 0 -54.5 -10t-52 -36t-45 -68 t-32.5 -105q39 31 85 41t93 10q111 0 179.5 -57.5t68.5 -167.5q0 -160 -97 -247t-257 -87q-80 0 -136.5 26.5t-92 69.5t-52 97.5t-16.5 111.5zM1413 233q0 -41 28 -75.5t87 -34.5q66 0 108 36.5t42 126.5q0 41 -28 71t-81 30q-70 0 -113 -34t-43 -120z" />
<glyph unicode="&#x215a;" horiz-adv-x="1918" d="M172 831h190q6 -47 30 -74.5t83 -27.5q63 0 97 35t34 113q0 45 -28.5 72.5t-79.5 27.5q-35 0 -63 -10.5t-62 -36.5h-164l143 485h504l-35 -172h-332l-39 -143q61 23 121 22q53 0 96.5 -18.5t74 -49t48 -72.5t17.5 -87q0 -96 -26.5 -160.5t-73 -104.5t-109 -57.5 t-133.5 -17.5q-141 0 -217 68.5t-76 207.5zM401 0l1012 1415h278l-1011 -1415h-279zM1219 272q0 88 20.5 191.5t70.5 192.5t134 147.5t211 58.5q129 0 193.5 -65.5t76.5 -182.5l-196 -20q-10 49 -29.5 74.5t-71.5 25.5q-27 0 -54.5 -10t-52 -36t-45 -68t-32.5 -105 q39 31 85 41t93 10q111 0 179.5 -57.5t68.5 -167.5q0 -160 -97 -247t-257 -87q-80 0 -136.5 26.5t-92 69.5t-52 97.5t-16.5 111.5zM1413 233q0 -41 28 -75.5t87 -34.5q66 0 108 36.5t42 126.5q0 41 -28 71t-81 30q-70 0 -113 -34t-43 -120z" />
<glyph unicode="&#x215b;" horiz-adv-x="1918" d="M183 1260l305 155h219l-174 -825h-215l131 616l-197 -96zM289 0l1012 1415h278l-1011 -1415h-279zM1190 192q0 174 172 236q-35 27 -51 68.5t-16 82.5q0 61 24.5 112.5t68.5 89.5t106.5 58.5t140.5 20.5q76 0 130 -19.5t87.5 -50t49 -70.5t15.5 -83q0 -63 -29.5 -114.5 t-117.5 -92.5q45 -27 71.5 -77t26.5 -101q0 -76 -29.5 -129.5t-79 -87t-115 -50t-138.5 -16.5q-76 0 -134.5 17.5t-98.5 48t-61.5 71.5t-21.5 86zM1389 223q0 -37 33 -66.5t92 -29.5q61 0 107 25.5t46 93.5q0 35 -27.5 62.5t-93.5 27.5q-158 0 -157 -113zM1481 590 q0 -37 28.5 -61.5t79.5 -24.5q53 0 92.5 25.5t39.5 88.5q0 33 -24 58.5t-75 25.5q-72 0 -106.5 -30.5t-34.5 -81.5z" />
<glyph unicode="&#x215c;" horiz-adv-x="1918" d="M192 862h193q0 -66 33.5 -104.5t105.5 -38.5q53 0 89 24.5t36 87.5q0 51 -31 75t-80 24h-86l35 164h84q63 0 95 28.5t32 81.5q0 35 -25.5 58.5t-77.5 23.5q-55 0 -92 -22.5t-57 -100.5l-190 27q33 129 111.5 194.5t242.5 65.5q133 0 208.5 -64.5t75.5 -162.5 q0 -70 -31.5 -122t-117.5 -89q53 -29 78.5 -78t25.5 -109q0 -127 -80.5 -198.5t-248.5 -71.5q-156 0 -242 80t-86 227zM428 0l1012 1415h278l-1011 -1415h-279zM1190 192q0 174 172 236q-35 27 -51 68.5t-16 82.5q0 61 24.5 112.5t68.5 89.5t106.5 58.5t140.5 20.5 q76 0 130 -19.5t87.5 -50t49 -70.5t15.5 -83q0 -63 -29.5 -114.5t-117.5 -92.5q45 -27 71.5 -77t26.5 -101q0 -76 -29.5 -129.5t-79 -87t-115 -50t-138.5 -16.5q-76 0 -134.5 17.5t-98.5 48t-61.5 71.5t-21.5 86zM1389 223q0 -37 33 -66.5t92 -29.5q61 0 107 25.5t46 93.5 q0 35 -27.5 62.5t-93.5 27.5q-158 0 -157 -113zM1481 590q0 -37 28.5 -61.5t79.5 -24.5q53 0 92.5 25.5t39.5 88.5q0 33 -24 58.5t-75 25.5q-72 0 -106.5 -30.5t-34.5 -81.5z" />
<glyph unicode="&#x215d;" horiz-adv-x="1918" d="M172 831h190q6 -47 30 -74.5t83 -27.5q63 0 97 35t34 113q0 45 -28.5 72.5t-79.5 27.5q-35 0 -63 -10.5t-62 -36.5h-164l143 485h504l-35 -172h-332l-39 -143q61 23 121 22q53 0 96.5 -18.5t74 -49t48 -72.5t17.5 -87q0 -96 -26.5 -160.5t-73 -104.5t-109 -57.5 t-133.5 -17.5q-141 0 -217 68.5t-76 207.5zM395 0l1012 1415h278l-1011 -1415h-279zM1190 192q0 174 172 236q-35 27 -51 68.5t-16 82.5q0 61 24.5 112.5t68.5 89.5t106.5 58.5t140.5 20.5q76 0 130 -19.5t87.5 -50t49 -70.5t15.5 -83q0 -63 -29.5 -114.5t-117.5 -92.5 q45 -27 71.5 -77t26.5 -101q0 -76 -29.5 -129.5t-79 -87t-115 -50t-138.5 -16.5q-76 0 -134.5 17.5t-98.5 48t-61.5 71.5t-21.5 86zM1389 223q0 -37 33 -66.5t92 -29.5q61 0 107 25.5t46 93.5q0 35 -27.5 62.5t-93.5 27.5q-158 0 -157 -113zM1481 590q0 -37 28.5 -61.5 t79.5 -24.5q53 0 92.5 25.5t39.5 88.5q0 33 -24 58.5t-75 25.5q-72 0 -106.5 -30.5t-34.5 -81.5z" />
</font>
</defs>
</svg>
